G04 (created by PCBNEW-RS274X (2011-03-30 BZR 2932)-stable) date 5/27/2014 12:52:24 AM*
G01*
G70*
G90*
%MOIN*%
G04 Gerber Fmt 3.4, Leading zero omitted, Abs format*
%FSLAX34Y34*%
G04 APERTURE LIST*
%ADD10C,0.006000*%
%ADD11C,0.015000*%
%ADD12C,0.012000*%
%ADD13C,0.007000*%
%ADD14C,0.005000*%
%ADD15C,0.008000*%
%ADD16C,0.010000*%
%ADD17C,0.007500*%
%ADD18C,0.011300*%
%ADD19C,0.010700*%
G04 APERTURE END LIST*
G54D10*
X35262Y-45219D02*
X35071Y-45353D01*
X35262Y-45448D02*
X34862Y-45448D01*
X34862Y-45295D01*
X34881Y-45257D01*
X34900Y-45238D01*
X34938Y-45219D01*
X34995Y-45219D01*
X35033Y-45238D01*
X35052Y-45257D01*
X35071Y-45295D01*
X35071Y-45448D01*
X34862Y-45105D02*
X34862Y-44876D01*
X35262Y-44991D02*
X34862Y-44991D01*
X35243Y-44762D02*
X35262Y-44705D01*
X35262Y-44609D01*
X35243Y-44571D01*
X35224Y-44552D01*
X35186Y-44533D01*
X35148Y-44533D01*
X35110Y-44552D01*
X35090Y-44571D01*
X35071Y-44609D01*
X35052Y-44686D01*
X35033Y-44724D01*
X35014Y-44743D01*
X34976Y-44762D01*
X34938Y-44762D01*
X34900Y-44743D01*
X34881Y-44724D01*
X34862Y-44686D01*
X34862Y-44590D01*
X34881Y-44533D01*
X33868Y-45360D02*
X34173Y-45360D01*
X34363Y-45245D02*
X34668Y-45360D01*
X34363Y-45474D01*
X32981Y-46132D02*
X32847Y-45941D01*
X32752Y-46132D02*
X32752Y-45732D01*
X32905Y-45732D01*
X32943Y-45751D01*
X32962Y-45770D01*
X32981Y-45808D01*
X32981Y-45865D01*
X32962Y-45903D01*
X32943Y-45922D01*
X32905Y-45941D01*
X32752Y-45941D01*
X33095Y-45732D02*
X33324Y-45732D01*
X33209Y-46132D02*
X33209Y-45732D01*
X33438Y-46113D02*
X33495Y-46132D01*
X33591Y-46132D01*
X33629Y-46113D01*
X33648Y-46094D01*
X33667Y-46056D01*
X33667Y-46018D01*
X33648Y-45980D01*
X33629Y-45960D01*
X33591Y-45941D01*
X33514Y-45922D01*
X33476Y-45903D01*
X33457Y-45884D01*
X33438Y-45846D01*
X33438Y-45808D01*
X33457Y-45770D01*
X33476Y-45751D01*
X33514Y-45732D01*
X33610Y-45732D01*
X33667Y-45751D01*
X33868Y-46600D02*
X34173Y-46600D01*
X34363Y-46485D02*
X34668Y-46600D01*
X34363Y-46714D01*
X35262Y-45219D02*
X35071Y-45353D01*
X35262Y-45448D02*
X34862Y-45448D01*
X34862Y-45295D01*
X34881Y-45257D01*
X34900Y-45238D01*
X34938Y-45219D01*
X34995Y-45219D01*
X35033Y-45238D01*
X35052Y-45257D01*
X35071Y-45295D01*
X35071Y-45448D01*
X34862Y-45105D02*
X34862Y-44876D01*
X35262Y-44991D02*
X34862Y-44991D01*
X35243Y-44762D02*
X35262Y-44705D01*
X35262Y-44609D01*
X35243Y-44571D01*
X35224Y-44552D01*
X35186Y-44533D01*
X35148Y-44533D01*
X35110Y-44552D01*
X35090Y-44571D01*
X35071Y-44609D01*
X35052Y-44686D01*
X35033Y-44724D01*
X35014Y-44743D01*
X34976Y-44762D01*
X34938Y-44762D01*
X34900Y-44743D01*
X34881Y-44724D01*
X34862Y-44686D01*
X34862Y-44590D01*
X34881Y-44533D01*
X35262Y-45219D02*
X35071Y-45353D01*
X35262Y-45448D02*
X34862Y-45448D01*
X34862Y-45295D01*
X34881Y-45257D01*
X34900Y-45238D01*
X34938Y-45219D01*
X34995Y-45219D01*
X35033Y-45238D01*
X35052Y-45257D01*
X35071Y-45295D01*
X35071Y-45448D01*
X34862Y-45105D02*
X34862Y-44876D01*
X35262Y-44991D02*
X34862Y-44991D01*
X35243Y-44762D02*
X35262Y-44705D01*
X35262Y-44609D01*
X35243Y-44571D01*
X35224Y-44552D01*
X35186Y-44533D01*
X35148Y-44533D01*
X35110Y-44552D01*
X35090Y-44571D01*
X35071Y-44609D01*
X35052Y-44686D01*
X35033Y-44724D01*
X35014Y-44743D01*
X34976Y-44762D01*
X34938Y-44762D01*
X34900Y-44743D01*
X34881Y-44724D01*
X34862Y-44686D01*
X34862Y-44590D01*
X34881Y-44533D01*
X35312Y-47507D02*
X34912Y-47507D01*
X34912Y-47412D01*
X34931Y-47354D01*
X34969Y-47316D01*
X35007Y-47297D01*
X35083Y-47278D01*
X35140Y-47278D01*
X35217Y-47297D01*
X35255Y-47316D01*
X35293Y-47354D01*
X35312Y-47412D01*
X35312Y-47507D01*
X34912Y-47164D02*
X34912Y-46935D01*
X35312Y-47050D02*
X34912Y-47050D01*
X35312Y-46573D02*
X35121Y-46707D01*
X35312Y-46802D02*
X34912Y-46802D01*
X34912Y-46649D01*
X34931Y-46611D01*
X34950Y-46592D01*
X34988Y-46573D01*
X35045Y-46573D01*
X35083Y-46592D01*
X35102Y-46611D01*
X35121Y-46649D01*
X35121Y-46802D01*
X35262Y-45219D02*
X35071Y-45353D01*
X35262Y-45448D02*
X34862Y-45448D01*
X34862Y-45295D01*
X34881Y-45257D01*
X34900Y-45238D01*
X34938Y-45219D01*
X34995Y-45219D01*
X35033Y-45238D01*
X35052Y-45257D01*
X35071Y-45295D01*
X35071Y-45448D01*
X34862Y-45105D02*
X34862Y-44876D01*
X35262Y-44991D02*
X34862Y-44991D01*
X35243Y-44762D02*
X35262Y-44705D01*
X35262Y-44609D01*
X35243Y-44571D01*
X35224Y-44552D01*
X35186Y-44533D01*
X35148Y-44533D01*
X35110Y-44552D01*
X35090Y-44571D01*
X35071Y-44609D01*
X35052Y-44686D01*
X35033Y-44724D01*
X35014Y-44743D01*
X34976Y-44762D01*
X34938Y-44762D01*
X34900Y-44743D01*
X34881Y-44724D01*
X34862Y-44686D01*
X34862Y-44590D01*
X34881Y-44533D01*
X39492Y-51952D02*
X39092Y-51952D01*
X39378Y-51818D01*
X39092Y-51685D01*
X39492Y-51685D01*
X39092Y-51419D02*
X39092Y-51342D01*
X39111Y-51304D01*
X39149Y-51266D01*
X39225Y-51247D01*
X39359Y-51247D01*
X39435Y-51266D01*
X39473Y-51304D01*
X39492Y-51342D01*
X39492Y-51419D01*
X39473Y-51457D01*
X39435Y-51495D01*
X39359Y-51514D01*
X39225Y-51514D01*
X39149Y-51495D01*
X39111Y-51457D01*
X39092Y-51419D01*
X39492Y-51076D02*
X39092Y-51076D01*
X39092Y-50981D01*
X39111Y-50923D01*
X39149Y-50885D01*
X39187Y-50866D01*
X39263Y-50847D01*
X39320Y-50847D01*
X39397Y-50866D01*
X39435Y-50885D01*
X39473Y-50923D01*
X39492Y-50981D01*
X39492Y-51076D01*
X39282Y-50676D02*
X39282Y-50542D01*
X39492Y-50485D02*
X39492Y-50676D01*
X39092Y-50676D01*
X39092Y-50485D01*
X39492Y-50314D02*
X39092Y-50314D01*
X39378Y-50180D01*
X39092Y-50047D01*
X39492Y-50047D01*
G54D11*
X35730Y-47700D02*
X35730Y-47300D01*
X36030Y-47700D02*
X36030Y-47300D01*
X35730Y-46900D02*
X35730Y-46500D01*
X36030Y-46900D02*
X36030Y-46500D01*
X36070Y-45500D02*
X35670Y-45500D01*
X35670Y-45100D02*
X36070Y-45100D01*
X35670Y-44700D02*
X36070Y-44700D01*
X35670Y-44300D02*
X36070Y-44300D01*
X35670Y-44300D02*
X36070Y-44300D01*
X35670Y-44700D02*
X36070Y-44700D01*
G54D10*
X35982Y-53472D02*
X35982Y-53243D01*
X36382Y-53358D02*
X35982Y-53358D01*
X36172Y-53110D02*
X36172Y-52976D01*
X36382Y-52919D02*
X36382Y-53110D01*
X35982Y-53110D01*
X35982Y-52919D01*
X36382Y-52519D02*
X36191Y-52653D01*
X36382Y-52748D02*
X35982Y-52748D01*
X35982Y-52595D01*
X36001Y-52557D01*
X36020Y-52538D01*
X36058Y-52519D01*
X36115Y-52519D01*
X36153Y-52538D01*
X36172Y-52557D01*
X36191Y-52595D01*
X36191Y-52748D01*
X36382Y-52348D02*
X35982Y-52348D01*
X36268Y-52214D01*
X35982Y-52081D01*
X36382Y-52081D01*
X36382Y-51891D02*
X35982Y-51891D01*
X36382Y-51701D02*
X35982Y-51701D01*
X36382Y-51472D01*
X35982Y-51472D01*
X36268Y-51301D02*
X36268Y-51110D01*
X36382Y-51339D02*
X35982Y-51206D01*
X36382Y-51072D01*
X36382Y-50748D02*
X36382Y-50939D01*
X35982Y-50939D01*
G54D11*
X35220Y-52150D02*
X35620Y-52150D01*
X35220Y-51750D02*
X35620Y-51750D01*
X35620Y-51350D02*
X35220Y-51350D01*
X35220Y-50950D02*
X35620Y-50950D01*
G54D12*
X34443Y-36642D02*
X34929Y-36642D01*
X34986Y-36614D01*
X35014Y-36585D01*
X35043Y-36528D01*
X35043Y-36414D01*
X35014Y-36356D01*
X34986Y-36328D01*
X34929Y-36299D01*
X34443Y-36299D01*
X35014Y-36042D02*
X35043Y-35985D01*
X35043Y-35870D01*
X35014Y-35813D01*
X34957Y-35785D01*
X34929Y-35785D01*
X34871Y-35813D01*
X34843Y-35870D01*
X34843Y-35956D01*
X34814Y-36013D01*
X34757Y-36042D01*
X34729Y-36042D01*
X34671Y-36013D01*
X34643Y-35956D01*
X34643Y-35870D01*
X34671Y-35813D01*
X35014Y-35299D02*
X35043Y-35356D01*
X35043Y-35470D01*
X35014Y-35527D01*
X34957Y-35556D01*
X34729Y-35556D01*
X34671Y-35527D01*
X34643Y-35470D01*
X34643Y-35356D01*
X34671Y-35299D01*
X34729Y-35270D01*
X34786Y-35270D01*
X34843Y-35556D01*
X35043Y-34556D02*
X34643Y-34556D01*
X34757Y-34556D02*
X34700Y-34528D01*
X34671Y-34499D01*
X34643Y-34442D01*
X34643Y-34385D01*
X34643Y-34271D02*
X34643Y-34042D01*
X34443Y-34185D02*
X34957Y-34185D01*
X35014Y-34157D01*
X35043Y-34099D01*
X35043Y-34042D01*
X34986Y-33842D02*
X35014Y-33814D01*
X35043Y-33842D01*
X35014Y-33871D01*
X34986Y-33842D01*
X35043Y-33842D01*
X35043Y-32842D02*
X34729Y-32842D01*
X34671Y-32871D01*
X34643Y-32928D01*
X34643Y-33042D01*
X34671Y-33099D01*
X35014Y-32842D02*
X35043Y-32899D01*
X35043Y-33042D01*
X35014Y-33099D01*
X34957Y-33128D01*
X34900Y-33128D01*
X34843Y-33099D01*
X34814Y-33042D01*
X34814Y-32899D01*
X34786Y-32842D01*
X34643Y-32556D02*
X35043Y-32556D01*
X34700Y-32556D02*
X34671Y-32528D01*
X34643Y-32470D01*
X34643Y-32385D01*
X34671Y-32328D01*
X34729Y-32299D01*
X35043Y-32299D01*
X34643Y-31756D02*
X35129Y-31756D01*
X35186Y-31785D01*
X35214Y-31813D01*
X35243Y-31870D01*
X35243Y-31956D01*
X35214Y-32013D01*
X35014Y-31756D02*
X35043Y-31813D01*
X35043Y-31927D01*
X35014Y-31985D01*
X34986Y-32013D01*
X34929Y-32042D01*
X34757Y-32042D01*
X34700Y-32013D01*
X34671Y-31985D01*
X34643Y-31927D01*
X34643Y-31813D01*
X34671Y-31756D01*
X35043Y-31384D02*
X35014Y-31442D01*
X34957Y-31470D01*
X34443Y-31470D01*
X35014Y-30928D02*
X35043Y-30985D01*
X35043Y-31099D01*
X35014Y-31156D01*
X34957Y-31185D01*
X34729Y-31185D01*
X34671Y-31156D01*
X34643Y-31099D01*
X34643Y-30985D01*
X34671Y-30928D01*
X34729Y-30899D01*
X34786Y-30899D01*
X34843Y-31185D01*
X35043Y-30185D02*
X34443Y-30185D01*
X35043Y-29899D02*
X34443Y-29899D01*
X34443Y-29756D01*
X34471Y-29671D01*
X34529Y-29613D01*
X34586Y-29585D01*
X34700Y-29556D01*
X34786Y-29556D01*
X34900Y-29585D01*
X34957Y-29613D01*
X35014Y-29671D01*
X35043Y-29756D01*
X35043Y-29899D01*
X34729Y-29299D02*
X34729Y-29099D01*
X35043Y-29013D02*
X35043Y-29299D01*
X34443Y-29299D01*
X34443Y-29013D01*
X35014Y-28042D02*
X35043Y-28099D01*
X35043Y-28213D01*
X35014Y-28271D01*
X34986Y-28299D01*
X34929Y-28328D01*
X34757Y-28328D01*
X34700Y-28299D01*
X34671Y-28271D01*
X34643Y-28213D01*
X34643Y-28099D01*
X34671Y-28042D01*
X35043Y-27699D02*
X35014Y-27757D01*
X34986Y-27785D01*
X34929Y-27814D01*
X34757Y-27814D01*
X34700Y-27785D01*
X34671Y-27757D01*
X34643Y-27699D01*
X34643Y-27614D01*
X34671Y-27557D01*
X34700Y-27528D01*
X34757Y-27499D01*
X34929Y-27499D01*
X34986Y-27528D01*
X35014Y-27557D01*
X35043Y-27614D01*
X35043Y-27699D01*
X34643Y-27242D02*
X35043Y-27242D01*
X34700Y-27242D02*
X34671Y-27214D01*
X34643Y-27156D01*
X34643Y-27071D01*
X34671Y-27014D01*
X34729Y-26985D01*
X35043Y-26985D01*
X34643Y-26699D02*
X35043Y-26699D01*
X34700Y-26699D02*
X34671Y-26671D01*
X34643Y-26613D01*
X34643Y-26528D01*
X34671Y-26471D01*
X34729Y-26442D01*
X35043Y-26442D01*
X35014Y-25928D02*
X35043Y-25985D01*
X35043Y-26099D01*
X35014Y-26156D01*
X34957Y-26185D01*
X34729Y-26185D01*
X34671Y-26156D01*
X34643Y-26099D01*
X34643Y-25985D01*
X34671Y-25928D01*
X34729Y-25899D01*
X34786Y-25899D01*
X34843Y-26185D01*
X35014Y-25385D02*
X35043Y-25442D01*
X35043Y-25556D01*
X35014Y-25614D01*
X34986Y-25642D01*
X34929Y-25671D01*
X34757Y-25671D01*
X34700Y-25642D01*
X34671Y-25614D01*
X34643Y-25556D01*
X34643Y-25442D01*
X34671Y-25385D01*
X34643Y-25214D02*
X34643Y-24985D01*
X34443Y-25128D02*
X34957Y-25128D01*
X35014Y-25100D01*
X35043Y-25042D01*
X35043Y-24985D01*
X35043Y-24699D02*
X35014Y-24757D01*
X34986Y-24785D01*
X34929Y-24814D01*
X34757Y-24814D01*
X34700Y-24785D01*
X34671Y-24757D01*
X34643Y-24699D01*
X34643Y-24614D01*
X34671Y-24557D01*
X34700Y-24528D01*
X34757Y-24499D01*
X34929Y-24499D01*
X34986Y-24528D01*
X35014Y-24557D01*
X35043Y-24614D01*
X35043Y-24699D01*
X35043Y-24242D02*
X34643Y-24242D01*
X34757Y-24242D02*
X34700Y-24214D01*
X34671Y-24185D01*
X34643Y-24128D01*
X34643Y-24071D01*
X45751Y-49189D02*
X45751Y-49503D01*
X45751Y-49346D02*
X45131Y-49346D01*
X45220Y-49398D01*
X45279Y-49451D01*
X45308Y-49503D01*
X45131Y-48717D02*
X45131Y-48822D01*
X45160Y-48874D01*
X45190Y-48901D01*
X45279Y-48953D01*
X45397Y-48979D01*
X45633Y-48979D01*
X45692Y-48953D01*
X45721Y-48927D01*
X45751Y-48874D01*
X45751Y-48770D01*
X45721Y-48717D01*
X45692Y-48691D01*
X45633Y-48665D01*
X45485Y-48665D01*
X45426Y-48691D01*
X45397Y-48717D01*
X45367Y-48770D01*
X45367Y-48874D01*
X45397Y-48927D01*
X45426Y-48953D01*
X45485Y-48979D01*
X45692Y-48115D02*
X45721Y-48141D01*
X45751Y-48220D01*
X45751Y-48272D01*
X45721Y-48350D01*
X45662Y-48403D01*
X45603Y-48429D01*
X45485Y-48455D01*
X45397Y-48455D01*
X45279Y-48429D01*
X45220Y-48403D01*
X45160Y-48350D01*
X45131Y-48272D01*
X45131Y-48220D01*
X45160Y-48141D01*
X45190Y-48115D01*
X45131Y-47931D02*
X45131Y-47565D01*
X45751Y-47800D01*
X45131Y-47093D02*
X45131Y-47355D01*
X45426Y-47381D01*
X45397Y-47355D01*
X45367Y-47303D01*
X45367Y-47172D01*
X45397Y-47119D01*
X45426Y-47093D01*
X45485Y-47067D01*
X45633Y-47067D01*
X45692Y-47093D01*
X45721Y-47119D01*
X45751Y-47172D01*
X45751Y-47303D01*
X45721Y-47355D01*
X45692Y-47381D01*
X45131Y-46726D02*
X45131Y-46674D01*
X45160Y-46622D01*
X45190Y-46595D01*
X45249Y-46569D01*
X45367Y-46543D01*
X45515Y-46543D01*
X45633Y-46569D01*
X45692Y-46595D01*
X45721Y-46622D01*
X45751Y-46674D01*
X45751Y-46726D01*
X45721Y-46779D01*
X45692Y-46805D01*
X45633Y-46831D01*
X45515Y-46857D01*
X45367Y-46857D01*
X45249Y-46831D01*
X45190Y-46805D01*
X45160Y-46779D01*
X45131Y-46726D01*
X45426Y-46124D02*
X45426Y-46307D01*
X45751Y-46307D02*
X45131Y-46307D01*
X45131Y-46045D01*
X45751Y-45836D02*
X45131Y-45836D01*
X45751Y-45522D01*
X45131Y-45522D01*
X33657Y-54062D02*
X33600Y-54024D01*
X33514Y-54024D01*
X33429Y-54062D01*
X33371Y-54138D01*
X33343Y-54214D01*
X33314Y-54367D01*
X33314Y-54481D01*
X33343Y-54633D01*
X33371Y-54710D01*
X33429Y-54786D01*
X33514Y-54824D01*
X33571Y-54824D01*
X33657Y-54786D01*
X33686Y-54748D01*
X33686Y-54481D01*
X33571Y-54481D01*
X34657Y-42562D02*
X34600Y-42524D01*
X34514Y-42524D01*
X34429Y-42562D01*
X34371Y-42638D01*
X34343Y-42714D01*
X34314Y-42867D01*
X34314Y-42981D01*
X34343Y-43133D01*
X34371Y-43210D01*
X34429Y-43286D01*
X34514Y-43324D01*
X34571Y-43324D01*
X34657Y-43286D01*
X34686Y-43248D01*
X34686Y-42981D01*
X34571Y-42981D01*
X34986Y-38769D02*
X35443Y-38769D01*
X35214Y-39074D02*
X35214Y-38464D01*
X36015Y-38274D02*
X35729Y-38274D01*
X35700Y-38655D01*
X35729Y-38617D01*
X35786Y-38579D01*
X35929Y-38579D01*
X35986Y-38617D01*
X36015Y-38655D01*
X36043Y-38731D01*
X36043Y-38921D01*
X36015Y-38998D01*
X35986Y-39036D01*
X35929Y-39074D01*
X35786Y-39074D01*
X35729Y-39036D01*
X35700Y-38998D01*
X37172Y-43074D02*
X36829Y-43074D01*
X37001Y-43074D02*
X37001Y-42274D01*
X36944Y-42388D01*
X36886Y-42464D01*
X36829Y-42502D01*
X31172Y-46074D02*
X30829Y-46074D01*
X31001Y-46074D02*
X31001Y-45274D01*
X30944Y-45388D01*
X30886Y-45464D01*
X30829Y-45502D01*
X36172Y-24074D02*
X35829Y-24074D01*
X36001Y-24074D02*
X36001Y-23274D01*
X35944Y-23388D01*
X35886Y-23464D01*
X35829Y-23502D01*
X31172Y-23824D02*
X30829Y-23824D01*
X31001Y-23824D02*
X31001Y-23024D01*
X30944Y-23138D01*
X30886Y-23214D01*
X30829Y-23252D01*
X31288Y-22324D02*
X31288Y-21524D01*
X31688Y-22324D01*
X31688Y-21524D01*
X32121Y-21867D02*
X32054Y-21829D01*
X32021Y-21790D01*
X31987Y-21714D01*
X31987Y-21676D01*
X32021Y-21600D01*
X32054Y-21562D01*
X32121Y-21524D01*
X32254Y-21524D01*
X32321Y-21562D01*
X32354Y-21600D01*
X32387Y-21676D01*
X32387Y-21714D01*
X32354Y-21790D01*
X32321Y-21829D01*
X32254Y-21867D01*
X32121Y-21867D01*
X32054Y-21905D01*
X32021Y-21943D01*
X31987Y-22019D01*
X31987Y-22171D01*
X32021Y-22248D01*
X32054Y-22286D01*
X32121Y-22324D01*
X32254Y-22324D01*
X32321Y-22286D01*
X32354Y-22248D01*
X32387Y-22171D01*
X32387Y-22019D01*
X32354Y-21943D01*
X32321Y-21905D01*
X32254Y-21867D01*
X32588Y-21524D02*
X32821Y-22324D01*
X33054Y-21524D01*
X33288Y-21905D02*
X33521Y-21905D01*
X33621Y-22324D02*
X33288Y-22324D01*
X33288Y-21524D01*
X33621Y-21524D01*
X33921Y-22324D02*
X33921Y-21524D01*
X34154Y-22095D01*
X34387Y-21524D01*
X34387Y-22324D01*
X37919Y-22324D02*
X37919Y-21524D01*
X38152Y-22095D01*
X38385Y-21524D01*
X38385Y-22324D01*
X39019Y-21790D02*
X39019Y-22324D01*
X38719Y-21790D02*
X38719Y-22210D01*
X38752Y-22286D01*
X38819Y-22324D01*
X38919Y-22324D01*
X38985Y-22286D01*
X39019Y-22248D01*
X39452Y-22324D02*
X39385Y-22286D01*
X39352Y-22210D01*
X39352Y-21524D01*
X39619Y-21790D02*
X39885Y-21790D01*
X39719Y-21524D02*
X39719Y-22210D01*
X39752Y-22286D01*
X39819Y-22324D01*
X39885Y-22324D01*
X40119Y-22324D02*
X40119Y-21790D01*
X40119Y-21524D02*
X40085Y-21562D01*
X40119Y-21600D01*
X40152Y-21562D01*
X40119Y-21524D01*
X40119Y-21600D01*
X40352Y-21790D02*
X40618Y-21790D01*
X40452Y-22324D02*
X40452Y-21638D01*
X40485Y-21562D01*
X40552Y-21524D01*
X40618Y-21524D01*
X41152Y-21790D02*
X41152Y-22324D01*
X40852Y-21790D02*
X40852Y-22210D01*
X40885Y-22286D01*
X40952Y-22324D01*
X41052Y-22324D01*
X41118Y-22286D01*
X41152Y-22248D01*
X41485Y-21790D02*
X41485Y-22324D01*
X41485Y-21867D02*
X41518Y-21829D01*
X41585Y-21790D01*
X41685Y-21790D01*
X41751Y-21829D01*
X41785Y-21905D01*
X41785Y-22324D01*
X42418Y-22286D02*
X42351Y-22324D01*
X42218Y-22324D01*
X42151Y-22286D01*
X42118Y-22248D01*
X42084Y-22171D01*
X42084Y-21943D01*
X42118Y-21867D01*
X42151Y-21829D01*
X42218Y-21790D01*
X42351Y-21790D01*
X42418Y-21829D01*
X42618Y-21790D02*
X42884Y-21790D01*
X42718Y-21524D02*
X42718Y-22210D01*
X42751Y-22286D01*
X42818Y-22324D01*
X42884Y-22324D01*
X43118Y-22324D02*
X43118Y-21790D01*
X43118Y-21524D02*
X43084Y-21562D01*
X43118Y-21600D01*
X43151Y-21562D01*
X43118Y-21524D01*
X43118Y-21600D01*
X43551Y-22324D02*
X43484Y-22286D01*
X43451Y-22248D01*
X43417Y-22171D01*
X43417Y-21943D01*
X43451Y-21867D01*
X43484Y-21829D01*
X43551Y-21790D01*
X43651Y-21790D01*
X43717Y-21829D01*
X43751Y-21867D01*
X43784Y-21943D01*
X43784Y-22171D01*
X43751Y-22248D01*
X43717Y-22286D01*
X43651Y-22324D01*
X43551Y-22324D01*
X44084Y-21790D02*
X44084Y-22324D01*
X44084Y-21867D02*
X44117Y-21829D01*
X44184Y-21790D01*
X44284Y-21790D01*
X44350Y-21829D01*
X44384Y-21905D01*
X44384Y-22324D01*
X45483Y-21905D02*
X45583Y-21943D01*
X45616Y-21981D01*
X45650Y-22057D01*
X45650Y-22171D01*
X45616Y-22248D01*
X45583Y-22286D01*
X45516Y-22324D01*
X45250Y-22324D01*
X45250Y-21524D01*
X45483Y-21524D01*
X45550Y-21562D01*
X45583Y-21600D01*
X45616Y-21676D01*
X45616Y-21752D01*
X45583Y-21829D01*
X45550Y-21867D01*
X45483Y-21905D01*
X45250Y-21905D01*
X46050Y-22324D02*
X45983Y-22286D01*
X45950Y-22248D01*
X45916Y-22171D01*
X45916Y-21943D01*
X45950Y-21867D01*
X45983Y-21829D01*
X46050Y-21790D01*
X46150Y-21790D01*
X46216Y-21829D01*
X46250Y-21867D01*
X46283Y-21943D01*
X46283Y-22171D01*
X46250Y-22248D01*
X46216Y-22286D01*
X46150Y-22324D01*
X46050Y-22324D01*
X46883Y-22324D02*
X46883Y-21905D01*
X46849Y-21829D01*
X46783Y-21790D01*
X46649Y-21790D01*
X46583Y-21829D01*
X46883Y-22286D02*
X46816Y-22324D01*
X46649Y-22324D01*
X46583Y-22286D01*
X46549Y-22210D01*
X46549Y-22133D01*
X46583Y-22057D01*
X46649Y-22019D01*
X46816Y-22019D01*
X46883Y-21981D01*
X47216Y-22324D02*
X47216Y-21790D01*
X47216Y-21943D02*
X47249Y-21867D01*
X47282Y-21829D01*
X47349Y-21790D01*
X47416Y-21790D01*
X47949Y-22324D02*
X47949Y-21524D01*
X47949Y-22286D02*
X47882Y-22324D01*
X47749Y-22324D01*
X47682Y-22286D01*
X47649Y-22248D01*
X47615Y-22171D01*
X47615Y-21943D01*
X47649Y-21867D01*
X47682Y-21829D01*
X47749Y-21790D01*
X47882Y-21790D01*
X47949Y-21829D01*
X48748Y-21790D02*
X48881Y-22324D01*
X49015Y-21943D01*
X49148Y-22324D01*
X49281Y-21790D01*
X50048Y-21486D02*
X49448Y-22514D01*
X50814Y-22324D02*
X50814Y-21524D01*
X51080Y-21524D01*
X51147Y-21562D01*
X51180Y-21600D01*
X51214Y-21676D01*
X51214Y-21790D01*
X51180Y-21867D01*
X51147Y-21905D01*
X51080Y-21943D01*
X50814Y-21943D01*
X51514Y-22324D02*
X51514Y-21524D01*
X52247Y-22248D02*
X52213Y-22286D01*
X52113Y-22324D01*
X52047Y-22324D01*
X51947Y-22286D01*
X51880Y-22210D01*
X51847Y-22133D01*
X51813Y-21981D01*
X51813Y-21867D01*
X51847Y-21714D01*
X51880Y-21638D01*
X51947Y-21562D01*
X52047Y-21524D01*
X52113Y-21524D01*
X52213Y-21562D01*
X52247Y-21600D01*
X53080Y-22324D02*
X53080Y-21790D01*
X53080Y-21943D02*
X53113Y-21867D01*
X53146Y-21829D01*
X53213Y-21790D01*
X53280Y-21790D01*
X53779Y-22286D02*
X53713Y-22324D01*
X53579Y-22324D01*
X53513Y-22286D01*
X53479Y-22210D01*
X53479Y-21905D01*
X53513Y-21829D01*
X53579Y-21790D01*
X53713Y-21790D01*
X53779Y-21829D01*
X53813Y-21905D01*
X53813Y-21981D01*
X53479Y-22057D01*
X54046Y-21790D02*
X54213Y-22324D01*
X54379Y-21790D01*
X54646Y-22248D02*
X54679Y-22286D01*
X54646Y-22324D01*
X54612Y-22286D01*
X54646Y-22248D01*
X54646Y-22324D01*
X55445Y-21524D02*
X55878Y-21524D01*
X55645Y-21829D01*
X55745Y-21829D01*
X55812Y-21867D01*
X55845Y-21905D01*
X55878Y-21981D01*
X55878Y-22171D01*
X55845Y-22248D01*
X55812Y-22286D01*
X55745Y-22324D01*
X55545Y-22324D01*
X55478Y-22286D01*
X55445Y-22248D01*
X56179Y-22248D02*
X56212Y-22286D01*
X56179Y-22324D01*
X56145Y-22286D01*
X56179Y-22248D01*
X56179Y-22324D01*
X56645Y-21524D02*
X56712Y-21524D01*
X56778Y-21562D01*
X56812Y-21600D01*
X56845Y-21676D01*
X56878Y-21829D01*
X56878Y-22019D01*
X56845Y-22171D01*
X56812Y-22248D01*
X56778Y-22286D01*
X56712Y-22324D01*
X56645Y-22324D01*
X56578Y-22286D01*
X56545Y-22248D01*
X56512Y-22171D01*
X56478Y-22019D01*
X56478Y-21829D01*
X56512Y-21676D01*
X56545Y-21600D01*
X56578Y-21562D01*
X56645Y-21524D01*
X57179Y-22019D02*
X57712Y-22019D01*
X58179Y-21524D02*
X58246Y-21524D01*
X58312Y-21562D01*
X58346Y-21600D01*
X58379Y-21676D01*
X58412Y-21829D01*
X58412Y-22019D01*
X58379Y-22171D01*
X58346Y-22248D01*
X58312Y-22286D01*
X58246Y-22324D01*
X58179Y-22324D01*
X58112Y-22286D01*
X58079Y-22248D01*
X58046Y-22171D01*
X58012Y-22019D01*
X58012Y-21829D01*
X58046Y-21676D01*
X58079Y-21600D01*
X58112Y-21562D01*
X58179Y-21524D01*
X58846Y-21524D02*
X58913Y-21524D01*
X58979Y-21562D01*
X59013Y-21600D01*
X59046Y-21676D01*
X59079Y-21829D01*
X59079Y-22019D01*
X59046Y-22171D01*
X59013Y-22248D01*
X58979Y-22286D01*
X58913Y-22324D01*
X58846Y-22324D01*
X58779Y-22286D01*
X58746Y-22248D01*
X58713Y-22171D01*
X58679Y-22019D01*
X58679Y-21829D01*
X58713Y-21676D01*
X58746Y-21600D01*
X58779Y-21562D01*
X58846Y-21524D01*
X59313Y-21524D02*
X59780Y-21524D01*
X59480Y-22324D01*
X42453Y-31348D02*
X42419Y-31386D01*
X42319Y-31424D01*
X42253Y-31424D01*
X42153Y-31386D01*
X42086Y-31310D01*
X42053Y-31233D01*
X42019Y-31081D01*
X42019Y-30967D01*
X42053Y-30814D01*
X42086Y-30738D01*
X42153Y-30662D01*
X42253Y-30624D01*
X42319Y-30624D01*
X42419Y-30662D01*
X42453Y-30700D01*
X42853Y-31424D02*
X42786Y-31386D01*
X42753Y-31348D01*
X42719Y-31271D01*
X42719Y-31043D01*
X42753Y-30967D01*
X42786Y-30929D01*
X42853Y-30890D01*
X42953Y-30890D01*
X43019Y-30929D01*
X43053Y-30967D01*
X43086Y-31043D01*
X43086Y-31271D01*
X43053Y-31348D01*
X43019Y-31386D01*
X42953Y-31424D01*
X42853Y-31424D01*
X43386Y-30890D02*
X43386Y-31690D01*
X43386Y-30929D02*
X43452Y-30890D01*
X43586Y-30890D01*
X43652Y-30929D01*
X43686Y-30967D01*
X43719Y-31043D01*
X43719Y-31271D01*
X43686Y-31348D01*
X43652Y-31386D01*
X43586Y-31424D01*
X43452Y-31424D01*
X43386Y-31386D01*
X43952Y-30890D02*
X44119Y-31424D01*
X44285Y-30890D02*
X44119Y-31424D01*
X44052Y-31614D01*
X44019Y-31652D01*
X43952Y-31690D01*
X44552Y-31424D02*
X44552Y-30890D01*
X44552Y-31043D02*
X44585Y-30967D01*
X44618Y-30929D01*
X44685Y-30890D01*
X44752Y-30890D01*
X44985Y-31424D02*
X44985Y-30890D01*
X44985Y-30624D02*
X44951Y-30662D01*
X44985Y-30700D01*
X45018Y-30662D01*
X44985Y-30624D01*
X44985Y-30700D01*
X45618Y-30890D02*
X45618Y-31538D01*
X45584Y-31614D01*
X45551Y-31652D01*
X45484Y-31690D01*
X45384Y-31690D01*
X45318Y-31652D01*
X45618Y-31386D02*
X45551Y-31424D01*
X45418Y-31424D01*
X45351Y-31386D01*
X45318Y-31348D01*
X45284Y-31271D01*
X45284Y-31043D01*
X45318Y-30967D01*
X45351Y-30929D01*
X45418Y-30890D01*
X45551Y-30890D01*
X45618Y-30929D01*
X45951Y-31424D02*
X45951Y-30624D01*
X46251Y-31424D02*
X46251Y-31005D01*
X46217Y-30929D01*
X46151Y-30890D01*
X46051Y-30890D01*
X45984Y-30929D01*
X45951Y-30967D01*
X46484Y-30890D02*
X46750Y-30890D01*
X46584Y-30624D02*
X46584Y-31310D01*
X46617Y-31386D01*
X46684Y-31424D01*
X46750Y-31424D01*
X47717Y-31729D02*
X47683Y-31690D01*
X47617Y-31576D01*
X47583Y-31500D01*
X47550Y-31386D01*
X47517Y-31195D01*
X47517Y-31043D01*
X47550Y-30852D01*
X47583Y-30738D01*
X47617Y-30662D01*
X47683Y-30548D01*
X47717Y-30510D01*
X48284Y-31386D02*
X48217Y-31424D01*
X48084Y-31424D01*
X48017Y-31386D01*
X47984Y-31348D01*
X47950Y-31271D01*
X47950Y-31043D01*
X47984Y-30967D01*
X48017Y-30929D01*
X48084Y-30890D01*
X48217Y-30890D01*
X48284Y-30929D01*
X48517Y-31729D02*
X48550Y-31690D01*
X48617Y-31576D01*
X48650Y-31500D01*
X48684Y-31386D01*
X48717Y-31195D01*
X48717Y-31043D01*
X48684Y-30852D01*
X48650Y-30738D01*
X48617Y-30662D01*
X48550Y-30548D01*
X48517Y-30510D01*
X49550Y-30700D02*
X49584Y-30662D01*
X49650Y-30624D01*
X49817Y-30624D01*
X49884Y-30662D01*
X49917Y-30700D01*
X49950Y-30776D01*
X49950Y-30852D01*
X49917Y-30967D01*
X49517Y-31424D01*
X49950Y-31424D01*
X50384Y-30624D02*
X50451Y-30624D01*
X50517Y-30662D01*
X50551Y-30700D01*
X50584Y-30776D01*
X50617Y-30929D01*
X50617Y-31119D01*
X50584Y-31271D01*
X50551Y-31348D01*
X50517Y-31386D01*
X50451Y-31424D01*
X50384Y-31424D01*
X50317Y-31386D01*
X50284Y-31348D01*
X50251Y-31271D01*
X50217Y-31119D01*
X50217Y-30929D01*
X50251Y-30776D01*
X50284Y-30700D01*
X50317Y-30662D01*
X50384Y-30624D01*
X51284Y-31424D02*
X50884Y-31424D01*
X51084Y-31424D02*
X51084Y-30624D01*
X51018Y-30738D01*
X50951Y-30814D01*
X50884Y-30852D01*
X51885Y-30890D02*
X51885Y-31424D01*
X51718Y-30586D02*
X51551Y-31157D01*
X51985Y-31157D01*
X53518Y-30624D02*
X53518Y-31195D01*
X53484Y-31310D01*
X53418Y-31386D01*
X53318Y-31424D01*
X53251Y-31424D01*
X53951Y-31424D02*
X53884Y-31386D01*
X53851Y-31348D01*
X53817Y-31271D01*
X53817Y-31043D01*
X53851Y-30967D01*
X53884Y-30929D01*
X53951Y-30890D01*
X54051Y-30890D01*
X54117Y-30929D01*
X54151Y-30967D01*
X54184Y-31043D01*
X54184Y-31271D01*
X54151Y-31348D01*
X54117Y-31386D01*
X54051Y-31424D01*
X53951Y-31424D01*
X54484Y-31424D02*
X54484Y-30624D01*
X54784Y-31424D02*
X54784Y-31005D01*
X54750Y-30929D01*
X54684Y-30890D01*
X54584Y-30890D01*
X54517Y-30929D01*
X54484Y-30967D01*
X55117Y-30890D02*
X55117Y-31424D01*
X55117Y-30967D02*
X55150Y-30929D01*
X55217Y-30890D01*
X55317Y-30890D01*
X55383Y-30929D01*
X55417Y-31005D01*
X55417Y-31424D01*
X56683Y-31424D02*
X56449Y-31043D01*
X56283Y-31424D02*
X56283Y-30624D01*
X56549Y-30624D01*
X56616Y-30662D01*
X56649Y-30700D01*
X56683Y-30776D01*
X56683Y-30890D01*
X56649Y-30967D01*
X56616Y-31005D01*
X56549Y-31043D01*
X56283Y-31043D01*
X56983Y-31348D02*
X57016Y-31386D01*
X56983Y-31424D01*
X56949Y-31386D01*
X56983Y-31348D01*
X56983Y-31424D01*
X58249Y-31348D02*
X58215Y-31386D01*
X58115Y-31424D01*
X58049Y-31424D01*
X57949Y-31386D01*
X57882Y-31310D01*
X57849Y-31233D01*
X57815Y-31081D01*
X57815Y-30967D01*
X57849Y-30814D01*
X57882Y-30738D01*
X57949Y-30662D01*
X58049Y-30624D01*
X58115Y-30624D01*
X58215Y-30662D01*
X58249Y-30700D01*
X58649Y-31424D02*
X58582Y-31386D01*
X58549Y-31348D01*
X58515Y-31271D01*
X58515Y-31043D01*
X58549Y-30967D01*
X58582Y-30929D01*
X58649Y-30890D01*
X58749Y-30890D01*
X58815Y-30929D01*
X58849Y-30967D01*
X58882Y-31043D01*
X58882Y-31271D01*
X58849Y-31348D01*
X58815Y-31386D01*
X58749Y-31424D01*
X58649Y-31424D01*
X59082Y-30890D02*
X59348Y-30890D01*
X59182Y-31424D02*
X59182Y-30738D01*
X59215Y-30662D01*
X59282Y-30624D01*
X59348Y-30624D01*
X59482Y-30890D02*
X59748Y-30890D01*
X59582Y-31424D02*
X59582Y-30738D01*
X59615Y-30662D01*
X59682Y-30624D01*
X59748Y-30624D01*
X59982Y-31424D02*
X59982Y-30890D01*
X59982Y-30967D02*
X60015Y-30929D01*
X60082Y-30890D01*
X60182Y-30890D01*
X60248Y-30929D01*
X60282Y-31005D01*
X60282Y-31424D01*
X60282Y-31005D02*
X60315Y-30929D01*
X60382Y-30890D01*
X60482Y-30890D01*
X60548Y-30929D01*
X60582Y-31005D01*
X60582Y-31424D01*
X61215Y-31424D02*
X61215Y-31005D01*
X61181Y-30929D01*
X61115Y-30890D01*
X60981Y-30890D01*
X60915Y-30929D01*
X61215Y-31386D02*
X61148Y-31424D01*
X60981Y-31424D01*
X60915Y-31386D01*
X60881Y-31310D01*
X60881Y-31233D01*
X60915Y-31157D01*
X60981Y-31119D01*
X61148Y-31119D01*
X61215Y-31081D01*
X61548Y-30890D02*
X61548Y-31424D01*
X61548Y-30967D02*
X61581Y-30929D01*
X61648Y-30890D01*
X61748Y-30890D01*
X61814Y-30929D01*
X61848Y-31005D01*
X61848Y-31424D01*
G54D11*
X36500Y-43000D02*
X35000Y-43000D01*
X36500Y-41500D02*
X36500Y-43000D01*
G54D13*
X44102Y-55412D02*
X44064Y-55393D01*
X44045Y-55374D01*
X44026Y-55336D01*
X44026Y-55221D01*
X44045Y-55183D01*
X44064Y-55164D01*
X44102Y-55145D01*
X44160Y-55145D01*
X44198Y-55164D01*
X44217Y-55183D01*
X44236Y-55221D01*
X44236Y-55336D01*
X44217Y-55374D01*
X44198Y-55393D01*
X44160Y-55412D01*
X44102Y-55412D01*
X44407Y-55145D02*
X44407Y-55545D01*
X44407Y-55164D02*
X44445Y-55145D01*
X44522Y-55145D01*
X44560Y-55164D01*
X44579Y-55183D01*
X44598Y-55221D01*
X44598Y-55336D01*
X44579Y-55374D01*
X44560Y-55393D01*
X44522Y-55412D01*
X44445Y-55412D01*
X44407Y-55393D01*
X44712Y-55145D02*
X44864Y-55145D01*
X44769Y-55012D02*
X44769Y-55355D01*
X44788Y-55393D01*
X44826Y-55412D01*
X44864Y-55412D01*
X44998Y-55412D02*
X44998Y-55145D01*
X44998Y-55012D02*
X44979Y-55031D01*
X44998Y-55050D01*
X45017Y-55031D01*
X44998Y-55012D01*
X44998Y-55050D01*
X45245Y-55412D02*
X45207Y-55393D01*
X45188Y-55374D01*
X45169Y-55336D01*
X45169Y-55221D01*
X45188Y-55183D01*
X45207Y-55164D01*
X45245Y-55145D01*
X45303Y-55145D01*
X45341Y-55164D01*
X45360Y-55183D01*
X45379Y-55221D01*
X45379Y-55336D01*
X45360Y-55374D01*
X45341Y-55393D01*
X45303Y-55412D01*
X45245Y-55412D01*
X45550Y-55145D02*
X45550Y-55412D01*
X45550Y-55183D02*
X45569Y-55164D01*
X45607Y-55145D01*
X45665Y-55145D01*
X45703Y-55164D01*
X45722Y-55202D01*
X45722Y-55412D01*
X45912Y-55374D02*
X45931Y-55393D01*
X45912Y-55412D01*
X45893Y-55393D01*
X45912Y-55374D01*
X45912Y-55412D01*
X45912Y-55164D02*
X45931Y-55183D01*
X45912Y-55202D01*
X45893Y-55183D01*
X45912Y-55164D01*
X45912Y-55202D01*
X46407Y-55412D02*
X46407Y-55012D01*
X46541Y-55298D01*
X46674Y-55012D01*
X46674Y-55412D01*
X46845Y-55298D02*
X47036Y-55298D01*
X46807Y-55412D02*
X46940Y-55012D01*
X47074Y-55412D01*
X47169Y-55012D02*
X47436Y-55412D01*
X47436Y-55012D02*
X47169Y-55412D01*
X47569Y-55050D02*
X47588Y-55031D01*
X47626Y-55012D01*
X47722Y-55012D01*
X47760Y-55031D01*
X47779Y-55050D01*
X47798Y-55088D01*
X47798Y-55126D01*
X47779Y-55183D01*
X47550Y-55412D01*
X47798Y-55412D01*
X47931Y-55012D02*
X48179Y-55012D01*
X48045Y-55164D01*
X48103Y-55164D01*
X48141Y-55183D01*
X48160Y-55202D01*
X48179Y-55240D01*
X48179Y-55336D01*
X48160Y-55374D01*
X48141Y-55393D01*
X48103Y-55412D01*
X47988Y-55412D01*
X47950Y-55393D01*
X47931Y-55374D01*
X48541Y-55012D02*
X48350Y-55012D01*
X48331Y-55202D01*
X48350Y-55183D01*
X48388Y-55164D01*
X48484Y-55164D01*
X48522Y-55183D01*
X48541Y-55202D01*
X48560Y-55240D01*
X48560Y-55336D01*
X48541Y-55374D01*
X48522Y-55393D01*
X48484Y-55412D01*
X48388Y-55412D01*
X48350Y-55393D01*
X48331Y-55374D01*
X49093Y-55412D02*
X49055Y-55393D01*
X49036Y-55374D01*
X49017Y-55336D01*
X49017Y-55221D01*
X49036Y-55183D01*
X49055Y-55164D01*
X49093Y-55145D01*
X49151Y-55145D01*
X49189Y-55164D01*
X49208Y-55183D01*
X49227Y-55221D01*
X49227Y-55336D01*
X49208Y-55374D01*
X49189Y-55393D01*
X49151Y-55412D01*
X49093Y-55412D01*
X49398Y-55412D02*
X49398Y-55145D01*
X49398Y-55221D02*
X49417Y-55183D01*
X49436Y-55164D01*
X49474Y-55145D01*
X49513Y-55145D01*
X42901Y-56042D02*
X42901Y-55642D01*
X43035Y-55928D01*
X43168Y-55642D01*
X43168Y-56042D01*
X43339Y-55928D02*
X43530Y-55928D01*
X43301Y-56042D02*
X43434Y-55642D01*
X43568Y-56042D01*
X43663Y-55642D02*
X43930Y-56042D01*
X43930Y-55642D02*
X43663Y-56042D01*
X44063Y-55680D02*
X44082Y-55661D01*
X44120Y-55642D01*
X44216Y-55642D01*
X44254Y-55661D01*
X44273Y-55680D01*
X44292Y-55718D01*
X44292Y-55756D01*
X44273Y-55813D01*
X44044Y-56042D01*
X44292Y-56042D01*
X44425Y-55642D02*
X44673Y-55642D01*
X44539Y-55794D01*
X44597Y-55794D01*
X44635Y-55813D01*
X44654Y-55832D01*
X44673Y-55870D01*
X44673Y-55966D01*
X44654Y-56004D01*
X44635Y-56023D01*
X44597Y-56042D01*
X44482Y-56042D01*
X44444Y-56023D01*
X44425Y-56004D01*
X44825Y-55680D02*
X44844Y-55661D01*
X44882Y-55642D01*
X44978Y-55642D01*
X45016Y-55661D01*
X45035Y-55680D01*
X45054Y-55718D01*
X45054Y-55756D01*
X45035Y-55813D01*
X44806Y-56042D01*
X45054Y-56042D01*
X45530Y-55890D02*
X45835Y-55890D01*
X45683Y-56042D02*
X45683Y-55737D01*
X46502Y-55775D02*
X46502Y-56042D01*
X46406Y-55623D02*
X46311Y-55909D01*
X46559Y-55909D01*
X47188Y-56023D02*
X47150Y-56042D01*
X47073Y-56042D01*
X47035Y-56023D01*
X47016Y-56004D01*
X46997Y-55966D01*
X46997Y-55851D01*
X47016Y-55813D01*
X47035Y-55794D01*
X47073Y-55775D01*
X47150Y-55775D01*
X47188Y-55794D01*
X47531Y-56042D02*
X47531Y-55832D01*
X47512Y-55794D01*
X47474Y-55775D01*
X47397Y-55775D01*
X47359Y-55794D01*
X47531Y-56023D02*
X47493Y-56042D01*
X47397Y-56042D01*
X47359Y-56023D01*
X47340Y-55985D01*
X47340Y-55947D01*
X47359Y-55909D01*
X47397Y-55890D01*
X47493Y-55890D01*
X47531Y-55870D01*
X47721Y-55775D02*
X47721Y-56175D01*
X47721Y-55794D02*
X47759Y-55775D01*
X47836Y-55775D01*
X47874Y-55794D01*
X47893Y-55813D01*
X47912Y-55851D01*
X47912Y-55966D01*
X47893Y-56004D01*
X47874Y-56023D01*
X47836Y-56042D01*
X47759Y-56042D01*
X47721Y-56023D01*
X48388Y-55890D02*
X48693Y-55890D01*
X48541Y-56042D02*
X48541Y-55737D01*
X49150Y-55642D02*
X49398Y-55642D01*
X49264Y-55794D01*
X49322Y-55794D01*
X49360Y-55813D01*
X49379Y-55832D01*
X49398Y-55870D01*
X49398Y-55966D01*
X49379Y-56004D01*
X49360Y-56023D01*
X49322Y-56042D01*
X49207Y-56042D01*
X49169Y-56023D01*
X49150Y-56004D01*
X49874Y-56042D02*
X49874Y-55775D01*
X49874Y-55851D02*
X49893Y-55813D01*
X49912Y-55794D01*
X49950Y-55775D01*
X49989Y-55775D01*
X50275Y-56023D02*
X50237Y-56042D01*
X50160Y-56042D01*
X50122Y-56023D01*
X50103Y-55985D01*
X50103Y-55832D01*
X50122Y-55794D01*
X50160Y-55775D01*
X50237Y-55775D01*
X50275Y-55794D01*
X50294Y-55832D01*
X50294Y-55870D01*
X50103Y-55909D01*
X50446Y-56023D02*
X50484Y-56042D01*
X50560Y-56042D01*
X50599Y-56023D01*
X50618Y-55985D01*
X50618Y-55966D01*
X50599Y-55928D01*
X50560Y-55909D01*
X50503Y-55909D01*
X50465Y-55890D01*
X50446Y-55851D01*
X50446Y-55832D01*
X50465Y-55794D01*
X50503Y-55775D01*
X50560Y-55775D01*
X50599Y-55794D01*
G54D11*
X39430Y-52700D02*
X39430Y-52300D01*
X39130Y-52700D02*
X39130Y-52300D01*
X35220Y-50950D02*
X35620Y-50950D01*
X35620Y-51350D02*
X35220Y-51350D01*
X35220Y-51750D02*
X35620Y-51750D01*
X35220Y-52150D02*
X35620Y-52150D01*
X35220Y-52550D02*
X35620Y-52550D01*
X35620Y-52950D02*
X35220Y-52950D01*
G54D10*
X35982Y-53472D02*
X35982Y-53243D01*
X36382Y-53358D02*
X35982Y-53358D01*
X36172Y-53110D02*
X36172Y-52976D01*
X36382Y-52919D02*
X36382Y-53110D01*
X35982Y-53110D01*
X35982Y-52919D01*
X36382Y-52519D02*
X36191Y-52653D01*
X36382Y-52748D02*
X35982Y-52748D01*
X35982Y-52595D01*
X36001Y-52557D01*
X36020Y-52538D01*
X36058Y-52519D01*
X36115Y-52519D01*
X36153Y-52538D01*
X36172Y-52557D01*
X36191Y-52595D01*
X36191Y-52748D01*
X36382Y-52348D02*
X35982Y-52348D01*
X36268Y-52214D01*
X35982Y-52081D01*
X36382Y-52081D01*
X36382Y-51891D02*
X35982Y-51891D01*
X36382Y-51701D02*
X35982Y-51701D01*
X36382Y-51472D01*
X35982Y-51472D01*
X36268Y-51301D02*
X36268Y-51110D01*
X36382Y-51339D02*
X35982Y-51206D01*
X36382Y-51072D01*
X36382Y-50748D02*
X36382Y-50939D01*
X35982Y-50939D01*
X39492Y-51952D02*
X39092Y-51952D01*
X39378Y-51818D01*
X39092Y-51685D01*
X39492Y-51685D01*
X39092Y-51419D02*
X39092Y-51342D01*
X39111Y-51304D01*
X39149Y-51266D01*
X39225Y-51247D01*
X39359Y-51247D01*
X39435Y-51266D01*
X39473Y-51304D01*
X39492Y-51342D01*
X39492Y-51419D01*
X39473Y-51457D01*
X39435Y-51495D01*
X39359Y-51514D01*
X39225Y-51514D01*
X39149Y-51495D01*
X39111Y-51457D01*
X39092Y-51419D01*
X39492Y-51076D02*
X39092Y-51076D01*
X39092Y-50981D01*
X39111Y-50923D01*
X39149Y-50885D01*
X39187Y-50866D01*
X39263Y-50847D01*
X39320Y-50847D01*
X39397Y-50866D01*
X39435Y-50885D01*
X39473Y-50923D01*
X39492Y-50981D01*
X39492Y-51076D01*
X39282Y-50676D02*
X39282Y-50542D01*
X39492Y-50485D02*
X39492Y-50676D01*
X39092Y-50676D01*
X39092Y-50485D01*
X39492Y-50314D02*
X39092Y-50314D01*
X39378Y-50180D01*
X39092Y-50047D01*
X39492Y-50047D01*
G54D11*
X39430Y-53500D02*
X39430Y-53100D01*
X39130Y-53500D02*
X39130Y-53100D01*
X39430Y-54300D02*
X39430Y-53900D01*
X39130Y-54300D02*
X39130Y-53900D01*
G54D14*
X53501Y-54500D02*
X53481Y-54694D01*
X53425Y-54881D01*
X53333Y-55053D01*
X53210Y-55205D01*
X53059Y-55329D01*
X52887Y-55422D01*
X52701Y-55480D01*
X52506Y-55500D01*
X52313Y-55483D01*
X52126Y-55428D01*
X51952Y-55337D01*
X51800Y-55215D01*
X51675Y-55065D01*
X51580Y-54894D01*
X51521Y-54708D01*
X51500Y-54513D01*
X51516Y-54320D01*
X51570Y-54132D01*
X51659Y-53958D01*
X51780Y-53805D01*
X51929Y-53679D01*
X52100Y-53583D01*
X52286Y-53523D01*
X52480Y-53500D01*
X52673Y-53515D01*
X52861Y-53567D01*
X53036Y-53655D01*
X53190Y-53776D01*
X53317Y-53923D01*
X53414Y-54093D01*
X53476Y-54279D01*
X53500Y-54473D01*
X53501Y-54500D01*
X42501Y-54500D02*
X42481Y-54694D01*
X42425Y-54881D01*
X42333Y-55053D01*
X42210Y-55205D01*
X42059Y-55329D01*
X41887Y-55422D01*
X41701Y-55480D01*
X41506Y-55500D01*
X41313Y-55483D01*
X41126Y-55428D01*
X40952Y-55337D01*
X40800Y-55215D01*
X40675Y-55065D01*
X40580Y-54894D01*
X40521Y-54708D01*
X40500Y-54513D01*
X40516Y-54320D01*
X40570Y-54132D01*
X40659Y-53958D01*
X40780Y-53805D01*
X40929Y-53679D01*
X41100Y-53583D01*
X41286Y-53523D01*
X41480Y-53500D01*
X41673Y-53515D01*
X41861Y-53567D01*
X42036Y-53655D01*
X42190Y-53776D01*
X42317Y-53923D01*
X42414Y-54093D01*
X42476Y-54279D01*
X42500Y-54473D01*
X42501Y-54500D01*
G54D12*
X40550Y-54100D02*
X40550Y-56900D01*
X40550Y-56900D02*
X39750Y-56900D01*
X39750Y-56900D02*
X39750Y-54100D01*
X39750Y-54100D02*
X40550Y-54100D01*
X40350Y-54100D02*
X40550Y-54300D01*
X41900Y-27100D02*
X41900Y-29900D01*
X41900Y-29900D02*
X41100Y-29900D01*
X41100Y-29900D02*
X41100Y-27100D01*
X41100Y-27100D02*
X41900Y-27100D01*
X41700Y-27100D02*
X41900Y-27300D01*
G54D14*
X42501Y-56500D02*
X42481Y-56694D01*
X42425Y-56881D01*
X42333Y-57053D01*
X42210Y-57205D01*
X42059Y-57329D01*
X41887Y-57422D01*
X41701Y-57480D01*
X41506Y-57500D01*
X41313Y-57483D01*
X41126Y-57428D01*
X40952Y-57337D01*
X40800Y-57215D01*
X40675Y-57065D01*
X40580Y-56894D01*
X40521Y-56708D01*
X40500Y-56513D01*
X40516Y-56320D01*
X40570Y-56132D01*
X40659Y-55958D01*
X40780Y-55805D01*
X40929Y-55679D01*
X41100Y-55583D01*
X41286Y-55523D01*
X41480Y-55500D01*
X41673Y-55515D01*
X41861Y-55567D01*
X42036Y-55655D01*
X42190Y-55776D01*
X42317Y-55923D01*
X42414Y-56093D01*
X42476Y-56279D01*
X42500Y-56473D01*
X42501Y-56500D01*
X53501Y-56500D02*
X53481Y-56694D01*
X53425Y-56881D01*
X53333Y-57053D01*
X53210Y-57205D01*
X53059Y-57329D01*
X52887Y-57422D01*
X52701Y-57480D01*
X52506Y-57500D01*
X52313Y-57483D01*
X52126Y-57428D01*
X51952Y-57337D01*
X51800Y-57215D01*
X51675Y-57065D01*
X51580Y-56894D01*
X51521Y-56708D01*
X51500Y-56513D01*
X51516Y-56320D01*
X51570Y-56132D01*
X51659Y-55958D01*
X51780Y-55805D01*
X51929Y-55679D01*
X52100Y-55583D01*
X52286Y-55523D01*
X52480Y-55500D01*
X52673Y-55515D01*
X52861Y-55567D01*
X53036Y-55655D01*
X53190Y-55776D01*
X53317Y-55923D01*
X53414Y-56093D01*
X53476Y-56279D01*
X53500Y-56473D01*
X53501Y-56500D01*
X55751Y-57500D02*
X55731Y-57694D01*
X55675Y-57881D01*
X55583Y-58053D01*
X55460Y-58205D01*
X55309Y-58329D01*
X55137Y-58422D01*
X54951Y-58480D01*
X54756Y-58500D01*
X54563Y-58483D01*
X54376Y-58428D01*
X54202Y-58337D01*
X54050Y-58215D01*
X53925Y-58065D01*
X53830Y-57894D01*
X53771Y-57708D01*
X53750Y-57513D01*
X53766Y-57320D01*
X53820Y-57132D01*
X53909Y-56958D01*
X54030Y-56805D01*
X54179Y-56679D01*
X54350Y-56583D01*
X54536Y-56523D01*
X54730Y-56500D01*
X54923Y-56515D01*
X55111Y-56567D01*
X55286Y-56655D01*
X55440Y-56776D01*
X55567Y-56923D01*
X55664Y-57093D01*
X55726Y-57279D01*
X55750Y-57473D01*
X55751Y-57500D01*
G54D12*
X33500Y-46500D02*
X33500Y-51500D01*
X33500Y-51500D02*
X31500Y-51500D01*
X31500Y-51500D02*
X31500Y-46500D01*
X31500Y-46500D02*
X33500Y-46500D01*
G54D11*
X36750Y-59250D02*
X36750Y-49250D01*
X38750Y-49250D02*
X38750Y-59250D01*
X36750Y-59250D02*
X38750Y-59250D01*
X38750Y-49250D02*
X36750Y-49250D01*
G54D12*
X49100Y-40900D02*
X49100Y-38100D01*
X49100Y-38100D02*
X49900Y-38100D01*
X49900Y-38100D02*
X49900Y-40900D01*
X49900Y-40900D02*
X49100Y-40900D01*
X49300Y-40900D02*
X49100Y-40700D01*
X63100Y-27900D02*
X63100Y-25100D01*
X63100Y-25100D02*
X63900Y-25100D01*
X63900Y-25100D02*
X63900Y-27900D01*
X63900Y-27900D02*
X63100Y-27900D01*
X63300Y-27900D02*
X63100Y-27700D01*
X54400Y-53600D02*
X54400Y-56400D01*
X54400Y-56400D02*
X53600Y-56400D01*
X53600Y-56400D02*
X53600Y-53600D01*
X53600Y-53600D02*
X54400Y-53600D01*
X54200Y-53600D02*
X54400Y-53800D01*
X51900Y-47600D02*
X51900Y-50400D01*
X51900Y-50400D02*
X51100Y-50400D01*
X51100Y-50400D02*
X51100Y-47600D01*
X51100Y-47600D02*
X51900Y-47600D01*
X51700Y-47600D02*
X51900Y-47800D01*
X73100Y-46400D02*
X73100Y-43600D01*
X73100Y-43600D02*
X73900Y-43600D01*
X73900Y-43600D02*
X73900Y-46400D01*
X73900Y-46400D02*
X73100Y-46400D01*
X73300Y-46400D02*
X73100Y-46200D01*
X65900Y-31100D02*
X65900Y-33900D01*
X65900Y-33900D02*
X65100Y-33900D01*
X65100Y-33900D02*
X65100Y-31100D01*
X65100Y-31100D02*
X65900Y-31100D01*
X65700Y-31100D02*
X65900Y-31300D01*
X65900Y-26600D02*
X65900Y-29400D01*
X65900Y-29400D02*
X65100Y-29400D01*
X65100Y-29400D02*
X65100Y-26600D01*
X65100Y-26600D02*
X65900Y-26600D01*
X65700Y-26600D02*
X65900Y-26800D01*
X56900Y-56100D02*
X56900Y-58900D01*
X56900Y-58900D02*
X56100Y-58900D01*
X56100Y-58900D02*
X56100Y-56100D01*
X56100Y-56100D02*
X56900Y-56100D01*
X56700Y-56100D02*
X56900Y-56300D01*
X39900Y-46600D02*
X39900Y-49400D01*
X39900Y-49400D02*
X39100Y-49400D01*
X39100Y-49400D02*
X39100Y-46600D01*
X39100Y-46600D02*
X39900Y-46600D01*
X39700Y-46600D02*
X39900Y-46800D01*
X39100Y-45900D02*
X39100Y-43100D01*
X39100Y-43100D02*
X39900Y-43100D01*
X39900Y-43100D02*
X39900Y-45900D01*
X39900Y-45900D02*
X39100Y-45900D01*
X39300Y-45900D02*
X39100Y-45700D01*
X41100Y-25900D02*
X41100Y-23100D01*
X41100Y-23100D02*
X41900Y-23100D01*
X41900Y-23100D02*
X41900Y-25900D01*
X41900Y-25900D02*
X41100Y-25900D01*
X41300Y-25900D02*
X41100Y-25700D01*
X65900Y-39600D02*
X65900Y-42400D01*
X65900Y-42400D02*
X65100Y-42400D01*
X65100Y-42400D02*
X65100Y-39600D01*
X65100Y-39600D02*
X65900Y-39600D01*
X65700Y-39600D02*
X65900Y-39800D01*
X55400Y-39600D02*
X55400Y-42400D01*
X55400Y-42400D02*
X54600Y-42400D01*
X54600Y-42400D02*
X54600Y-39600D01*
X54600Y-39600D02*
X55400Y-39600D01*
X55200Y-39600D02*
X55400Y-39800D01*
X38900Y-38600D02*
X38900Y-41400D01*
X38900Y-41400D02*
X38100Y-41400D01*
X38100Y-41400D02*
X38100Y-38600D01*
X38100Y-38600D02*
X38900Y-38600D01*
X38700Y-38600D02*
X38900Y-38800D01*
X51900Y-43600D02*
X51900Y-46400D01*
X51900Y-46400D02*
X51100Y-46400D01*
X51100Y-46400D02*
X51100Y-43600D01*
X51100Y-43600D02*
X51900Y-43600D01*
X51700Y-43600D02*
X51900Y-43800D01*
X65900Y-22600D02*
X65900Y-25400D01*
X65900Y-25400D02*
X65100Y-25400D01*
X65100Y-25400D02*
X65100Y-22600D01*
X65100Y-22600D02*
X65900Y-22600D01*
X65700Y-22600D02*
X65900Y-22800D01*
X66400Y-56100D02*
X66400Y-58900D01*
X66400Y-58900D02*
X65600Y-58900D01*
X65600Y-58900D02*
X65600Y-56100D01*
X65600Y-56100D02*
X66400Y-56100D01*
X66200Y-56100D02*
X66400Y-56300D01*
X66400Y-51600D02*
X66400Y-54400D01*
X66400Y-54400D02*
X65600Y-54400D01*
X65600Y-54400D02*
X65600Y-51600D01*
X65600Y-51600D02*
X66400Y-51600D01*
X66200Y-51600D02*
X66400Y-51800D01*
X76400Y-56100D02*
X76400Y-58900D01*
X76400Y-58900D02*
X75600Y-58900D01*
X75600Y-58900D02*
X75600Y-56100D01*
X75600Y-56100D02*
X76400Y-56100D01*
X76200Y-56100D02*
X76400Y-56300D01*
X76400Y-51600D02*
X76400Y-54400D01*
X76400Y-54400D02*
X75600Y-54400D01*
X75600Y-54400D02*
X75600Y-51600D01*
X75600Y-51600D02*
X76400Y-51600D01*
X76200Y-51600D02*
X76400Y-51800D01*
X76400Y-46600D02*
X76400Y-49400D01*
X76400Y-49400D02*
X75600Y-49400D01*
X75600Y-49400D02*
X75600Y-46600D01*
X75600Y-46600D02*
X76400Y-46600D01*
X76200Y-46600D02*
X76400Y-46800D01*
X76400Y-42100D02*
X76400Y-44900D01*
X76400Y-44900D02*
X75600Y-44900D01*
X75600Y-44900D02*
X75600Y-42100D01*
X75600Y-42100D02*
X76400Y-42100D01*
X76200Y-42100D02*
X76400Y-42300D01*
X76400Y-36100D02*
X76400Y-38900D01*
X76400Y-38900D02*
X75600Y-38900D01*
X75600Y-38900D02*
X75600Y-36100D01*
X75600Y-36100D02*
X76400Y-36100D01*
X76200Y-36100D02*
X76400Y-36300D01*
X76400Y-31600D02*
X76400Y-34400D01*
X76400Y-34400D02*
X75600Y-34400D01*
X75600Y-34400D02*
X75600Y-31600D01*
X75600Y-31600D02*
X76400Y-31600D01*
X76200Y-31600D02*
X76400Y-31800D01*
X76400Y-27100D02*
X76400Y-29900D01*
X76400Y-29900D02*
X75600Y-29900D01*
X75600Y-29900D02*
X75600Y-27100D01*
X75600Y-27100D02*
X76400Y-27100D01*
X76200Y-27100D02*
X76400Y-27300D01*
X76400Y-22600D02*
X76400Y-25400D01*
X76400Y-25400D02*
X75600Y-25400D01*
X75600Y-25400D02*
X75600Y-22600D01*
X75600Y-22600D02*
X76400Y-22600D01*
X76200Y-22600D02*
X76400Y-22800D01*
X55900Y-33100D02*
X55900Y-35900D01*
X55900Y-35900D02*
X55100Y-35900D01*
X55100Y-35900D02*
X55100Y-33100D01*
X55100Y-33100D02*
X55900Y-33100D01*
X55700Y-33100D02*
X55900Y-33300D01*
X45400Y-33100D02*
X45400Y-35900D01*
X45400Y-35900D02*
X44600Y-35900D01*
X44600Y-35900D02*
X44600Y-33100D01*
X44600Y-33100D02*
X45400Y-33100D01*
X45200Y-33100D02*
X45400Y-33300D01*
X65900Y-35100D02*
X65900Y-37900D01*
X65900Y-37900D02*
X65100Y-37900D01*
X65100Y-37900D02*
X65100Y-35100D01*
X65100Y-35100D02*
X65900Y-35100D01*
X65700Y-35100D02*
X65900Y-35300D01*
X55900Y-51600D02*
X55900Y-54400D01*
X55900Y-54400D02*
X55100Y-54400D01*
X55100Y-54400D02*
X55100Y-51600D01*
X55100Y-51600D02*
X55900Y-51600D01*
X55700Y-51600D02*
X55900Y-51800D01*
G54D10*
X74500Y-49500D02*
X73500Y-49500D01*
X73500Y-49500D02*
X73500Y-47500D01*
X73500Y-47500D02*
X74500Y-47500D01*
X74500Y-47500D02*
X74500Y-49500D01*
G54D15*
X37000Y-23500D02*
X37000Y-36500D01*
X39000Y-36500D02*
X39000Y-23500D01*
X39000Y-23500D02*
X37000Y-23500D01*
X37000Y-36500D02*
X39000Y-36500D01*
G54D12*
X31550Y-43000D02*
X31550Y-23000D01*
X33550Y-43000D02*
X33550Y-23000D01*
X33550Y-43000D02*
X31550Y-43000D01*
X33550Y-23000D02*
X31550Y-23000D01*
G54D10*
X36000Y-42500D02*
X35000Y-42500D01*
X35000Y-42500D02*
X35000Y-39500D01*
X35000Y-39500D02*
X36000Y-39500D01*
X36000Y-39500D02*
X36000Y-42500D01*
X35000Y-41500D02*
X36000Y-41500D01*
G54D12*
X51020Y-42000D02*
X53000Y-42000D01*
X53000Y-42000D02*
X53000Y-43000D01*
X53000Y-43000D02*
X51000Y-43000D01*
X51000Y-43000D02*
X51000Y-42000D01*
X51000Y-42250D02*
X51250Y-42000D01*
G54D10*
X33000Y-57000D02*
X33000Y-56000D01*
X33000Y-56000D02*
X35000Y-56000D01*
X35000Y-56000D02*
X35000Y-57000D01*
X35000Y-57000D02*
X33000Y-57000D01*
G54D12*
X43500Y-32500D02*
X43500Y-36500D01*
X43500Y-36500D02*
X41500Y-36500D01*
X41500Y-36500D02*
X41500Y-32500D01*
X41500Y-32500D02*
X43500Y-32500D01*
G54D11*
X36200Y-56500D02*
X36148Y-57024D01*
X35996Y-57528D01*
X35748Y-57994D01*
X35415Y-58402D01*
X35009Y-58738D01*
X34546Y-58989D01*
X34042Y-59144D01*
X33518Y-59199D01*
X32995Y-59152D01*
X32489Y-59003D01*
X32022Y-58759D01*
X31611Y-58429D01*
X31273Y-58025D01*
X31019Y-57563D01*
X30860Y-57061D01*
X30801Y-56537D01*
X30845Y-56013D01*
X30990Y-55507D01*
X31231Y-55038D01*
X31558Y-54625D01*
X31960Y-54283D01*
X32420Y-54026D01*
X32921Y-53863D01*
X33444Y-53801D01*
X33968Y-53842D01*
X34476Y-53983D01*
X34946Y-54221D01*
X35361Y-54545D01*
X35706Y-54944D01*
X35966Y-55402D01*
X36132Y-55902D01*
X36198Y-56425D01*
X36200Y-56500D01*
G54D14*
X65001Y-30500D02*
X64981Y-30694D01*
X64925Y-30881D01*
X64833Y-31053D01*
X64710Y-31205D01*
X64559Y-31329D01*
X64387Y-31422D01*
X64201Y-31480D01*
X64006Y-31500D01*
X63813Y-31483D01*
X63626Y-31428D01*
X63452Y-31337D01*
X63300Y-31215D01*
X63175Y-31065D01*
X63080Y-30894D01*
X63021Y-30708D01*
X63000Y-30513D01*
X63016Y-30320D01*
X63070Y-30132D01*
X63159Y-29958D01*
X63280Y-29805D01*
X63429Y-29679D01*
X63600Y-29583D01*
X63786Y-29523D01*
X63980Y-29500D01*
X64173Y-29515D01*
X64361Y-29567D01*
X64536Y-29655D01*
X64690Y-29776D01*
X64817Y-29923D01*
X64914Y-30093D01*
X64976Y-30279D01*
X65000Y-30473D01*
X65001Y-30500D01*
G54D12*
X38500Y-44000D02*
X38500Y-48000D01*
X38500Y-48000D02*
X36500Y-48000D01*
X36500Y-48000D02*
X36500Y-44000D01*
X36500Y-44000D02*
X38500Y-44000D01*
X41500Y-58000D02*
X41700Y-58000D01*
X44500Y-58000D02*
X44300Y-58000D01*
X44300Y-58000D02*
X44300Y-57600D01*
X44300Y-57600D02*
X41700Y-57600D01*
X41700Y-57600D02*
X41700Y-58400D01*
X41700Y-58400D02*
X44300Y-58400D01*
X44300Y-58400D02*
X44300Y-58000D01*
X41700Y-57800D02*
X41900Y-57600D01*
X49500Y-58000D02*
X49700Y-58000D01*
X52500Y-58000D02*
X52300Y-58000D01*
X52300Y-58000D02*
X52300Y-57600D01*
X52300Y-57600D02*
X49700Y-57600D01*
X49700Y-57600D02*
X49700Y-58400D01*
X49700Y-58400D02*
X52300Y-58400D01*
X52300Y-58400D02*
X52300Y-58000D01*
X49700Y-57800D02*
X49900Y-57600D01*
X45500Y-58000D02*
X45700Y-58000D01*
X48500Y-58000D02*
X48300Y-58000D01*
X48300Y-58000D02*
X48300Y-57600D01*
X48300Y-57600D02*
X45700Y-57600D01*
X45700Y-57600D02*
X45700Y-58400D01*
X45700Y-58400D02*
X48300Y-58400D01*
X48300Y-58400D02*
X48300Y-58000D01*
X45700Y-57800D02*
X45900Y-57600D01*
G54D10*
X87750Y-58750D02*
X87750Y-57750D01*
X87750Y-57750D02*
X90750Y-57750D01*
X90750Y-57750D02*
X90750Y-58750D01*
X90750Y-58750D02*
X87750Y-58750D01*
X88750Y-57750D02*
X88750Y-58750D01*
G54D11*
X42000Y-26000D02*
X42500Y-26000D01*
X42500Y-26000D02*
X42500Y-27000D01*
X42500Y-27000D02*
X42000Y-27000D01*
X42000Y-24000D02*
X63000Y-24000D01*
X63000Y-24000D02*
X63000Y-29000D01*
X63000Y-29000D02*
X42000Y-29000D01*
X42000Y-29000D02*
X42000Y-24000D01*
X52000Y-46500D02*
X52500Y-46500D01*
X52500Y-46500D02*
X52500Y-47500D01*
X52500Y-47500D02*
X52000Y-47500D01*
X52000Y-44500D02*
X73000Y-44500D01*
X73000Y-44500D02*
X73000Y-49500D01*
X73000Y-49500D02*
X52000Y-49500D01*
X52000Y-49500D02*
X52000Y-44500D01*
G54D12*
X77000Y-41000D02*
X77000Y-40000D01*
X77000Y-40000D02*
X87000Y-40000D01*
X87000Y-40000D02*
X87000Y-41000D01*
X87000Y-41000D02*
X77000Y-41000D01*
X78000Y-41000D02*
X78000Y-40000D01*
X54500Y-38000D02*
X54500Y-37000D01*
X54500Y-37000D02*
X64500Y-37000D01*
X64500Y-37000D02*
X64500Y-38000D01*
X64500Y-38000D02*
X54500Y-38000D01*
X55500Y-38000D02*
X55500Y-37000D01*
G54D11*
X66000Y-23000D02*
X74000Y-23000D01*
X74000Y-25000D02*
X66000Y-25000D01*
X66000Y-25000D02*
X66000Y-23000D01*
X66000Y-23500D02*
X66500Y-23500D01*
X66500Y-23500D02*
X66500Y-24500D01*
X66500Y-24500D02*
X66000Y-24500D01*
X74000Y-23000D02*
X74000Y-25000D01*
X57000Y-56500D02*
X65000Y-56500D01*
X65000Y-58500D02*
X57000Y-58500D01*
X57000Y-58500D02*
X57000Y-56500D01*
X57000Y-57000D02*
X57500Y-57000D01*
X57500Y-57000D02*
X57500Y-58000D01*
X57500Y-58000D02*
X57000Y-58000D01*
X65000Y-56500D02*
X65000Y-58500D01*
X66500Y-52000D02*
X74500Y-52000D01*
X74500Y-54000D02*
X66500Y-54000D01*
X66500Y-54000D02*
X66500Y-52000D01*
X66500Y-52500D02*
X67000Y-52500D01*
X67000Y-52500D02*
X67000Y-53500D01*
X67000Y-53500D02*
X66500Y-53500D01*
X74500Y-52000D02*
X74500Y-54000D01*
X56000Y-33500D02*
X64000Y-33500D01*
X64000Y-35500D02*
X56000Y-35500D01*
X56000Y-35500D02*
X56000Y-33500D01*
X56000Y-34000D02*
X56500Y-34000D01*
X56500Y-34000D02*
X56500Y-35000D01*
X56500Y-35000D02*
X56000Y-35000D01*
X64000Y-33500D02*
X64000Y-35500D01*
X45500Y-33500D02*
X53500Y-33500D01*
X53500Y-35500D02*
X45500Y-35500D01*
X45500Y-35500D02*
X45500Y-33500D01*
X45500Y-34000D02*
X46000Y-34000D01*
X46000Y-34000D02*
X46000Y-35000D01*
X46000Y-35000D02*
X45500Y-35000D01*
X53500Y-33500D02*
X53500Y-35500D01*
X66500Y-56500D02*
X74500Y-56500D01*
X74500Y-58500D02*
X66500Y-58500D01*
X66500Y-58500D02*
X66500Y-56500D01*
X66500Y-57000D02*
X67000Y-57000D01*
X67000Y-57000D02*
X67000Y-58000D01*
X67000Y-58000D02*
X66500Y-58000D01*
X74500Y-56500D02*
X74500Y-58500D01*
X39500Y-39000D02*
X47500Y-39000D01*
X47500Y-41000D02*
X39500Y-41000D01*
X39500Y-41000D02*
X39500Y-39000D01*
X39500Y-39500D02*
X40000Y-39500D01*
X40000Y-39500D02*
X40000Y-40500D01*
X40000Y-40500D02*
X39500Y-40500D01*
X47500Y-39000D02*
X47500Y-41000D01*
X55500Y-40500D02*
X55500Y-40500D01*
X55500Y-40500D02*
X56000Y-40500D01*
X56000Y-40500D02*
X56000Y-41500D01*
X56000Y-41500D02*
X55500Y-41500D01*
X55500Y-40000D02*
X64500Y-40000D01*
X64500Y-40000D02*
X64500Y-42000D01*
X64500Y-42000D02*
X55500Y-42000D01*
X55500Y-42000D02*
X55500Y-40000D01*
X56000Y-52500D02*
X56000Y-52500D01*
X56000Y-52500D02*
X56500Y-52500D01*
X56500Y-52500D02*
X56500Y-53500D01*
X56500Y-53500D02*
X56000Y-53500D01*
X56000Y-52000D02*
X65000Y-52000D01*
X65000Y-52000D02*
X65000Y-54000D01*
X65000Y-54000D02*
X56000Y-54000D01*
X56000Y-54000D02*
X56000Y-52000D01*
X66000Y-27500D02*
X66000Y-27500D01*
X66000Y-27500D02*
X66500Y-27500D01*
X66500Y-27500D02*
X66500Y-28500D01*
X66500Y-28500D02*
X66000Y-28500D01*
X66000Y-27000D02*
X75000Y-27000D01*
X75000Y-27000D02*
X75000Y-29000D01*
X75000Y-29000D02*
X66000Y-29000D01*
X66000Y-29000D02*
X66000Y-27000D01*
X66000Y-36000D02*
X66000Y-36000D01*
X66000Y-36000D02*
X66500Y-36000D01*
X66500Y-36000D02*
X66500Y-37000D01*
X66500Y-37000D02*
X66000Y-37000D01*
X66000Y-35500D02*
X75000Y-35500D01*
X75000Y-35500D02*
X75000Y-37500D01*
X75000Y-37500D02*
X66000Y-37500D01*
X66000Y-37500D02*
X66000Y-35500D01*
X66000Y-32000D02*
X66000Y-32000D01*
X66000Y-32000D02*
X66500Y-32000D01*
X66500Y-32000D02*
X66500Y-33000D01*
X66500Y-33000D02*
X66000Y-33000D01*
X66000Y-31500D02*
X75000Y-31500D01*
X75000Y-31500D02*
X75000Y-33500D01*
X75000Y-33500D02*
X66000Y-33500D01*
X66000Y-33500D02*
X66000Y-31500D01*
X66000Y-40500D02*
X66000Y-40500D01*
X66000Y-40500D02*
X66500Y-40500D01*
X66500Y-40500D02*
X66500Y-41500D01*
X66500Y-41500D02*
X66000Y-41500D01*
X66000Y-40000D02*
X75000Y-40000D01*
X75000Y-40000D02*
X75000Y-42000D01*
X75000Y-42000D02*
X66000Y-42000D01*
X66000Y-42000D02*
X66000Y-40000D01*
X42500Y-55000D02*
X42500Y-55000D01*
X42500Y-55000D02*
X43000Y-55000D01*
X43000Y-55000D02*
X43000Y-56000D01*
X43000Y-56000D02*
X42500Y-56000D01*
X42500Y-54500D02*
X51500Y-54500D01*
X51500Y-54500D02*
X51500Y-56500D01*
X51500Y-56500D02*
X42500Y-56500D01*
X42500Y-56500D02*
X42500Y-54500D01*
X40000Y-50500D02*
X41500Y-52000D01*
X41500Y-52000D02*
X49000Y-52000D01*
X49000Y-52000D02*
X49000Y-43000D01*
X49000Y-43000D02*
X40000Y-43000D01*
X40000Y-43000D02*
X40000Y-50500D01*
X76500Y-43000D02*
X77000Y-43000D01*
X77000Y-43000D02*
X77000Y-44000D01*
X77000Y-44000D02*
X76500Y-44000D01*
X76500Y-42500D02*
X87500Y-42500D01*
X87500Y-42500D02*
X87500Y-44500D01*
X87500Y-44500D02*
X76500Y-44500D01*
X76500Y-44500D02*
X76500Y-42500D01*
X76500Y-57000D02*
X77000Y-57000D01*
X77000Y-57000D02*
X77000Y-58000D01*
X77000Y-58000D02*
X76500Y-58000D01*
X76500Y-56500D02*
X87500Y-56500D01*
X87500Y-56500D02*
X87500Y-58500D01*
X87500Y-58500D02*
X76500Y-58500D01*
X76500Y-58500D02*
X76500Y-56500D01*
X76500Y-32500D02*
X77000Y-32500D01*
X77000Y-32500D02*
X77000Y-33500D01*
X77000Y-33500D02*
X76500Y-33500D01*
X76500Y-32000D02*
X87500Y-32000D01*
X87500Y-32000D02*
X87500Y-34000D01*
X87500Y-34000D02*
X76500Y-34000D01*
X76500Y-34000D02*
X76500Y-32000D01*
X76500Y-52500D02*
X77000Y-52500D01*
X77000Y-52500D02*
X77000Y-53500D01*
X77000Y-53500D02*
X76500Y-53500D01*
X76500Y-52000D02*
X87500Y-52000D01*
X87500Y-52000D02*
X87500Y-54000D01*
X87500Y-54000D02*
X76500Y-54000D01*
X76500Y-54000D02*
X76500Y-52000D01*
X76500Y-37000D02*
X77000Y-37000D01*
X77000Y-37000D02*
X77000Y-38000D01*
X77000Y-38000D02*
X76500Y-38000D01*
X76500Y-36500D02*
X87500Y-36500D01*
X87500Y-36500D02*
X87500Y-38500D01*
X87500Y-38500D02*
X76500Y-38500D01*
X76500Y-38500D02*
X76500Y-36500D01*
X76500Y-28000D02*
X77000Y-28000D01*
X77000Y-28000D02*
X77000Y-29000D01*
X77000Y-29000D02*
X76500Y-29000D01*
X76500Y-27500D02*
X87500Y-27500D01*
X87500Y-27500D02*
X87500Y-29500D01*
X87500Y-29500D02*
X76500Y-29500D01*
X76500Y-29500D02*
X76500Y-27500D01*
X76500Y-47500D02*
X77000Y-47500D01*
X77000Y-47500D02*
X77000Y-48500D01*
X77000Y-48500D02*
X76500Y-48500D01*
X76500Y-47000D02*
X87500Y-47000D01*
X87500Y-47000D02*
X87500Y-49000D01*
X87500Y-49000D02*
X76500Y-49000D01*
X76500Y-49000D02*
X76500Y-47000D01*
X76500Y-23500D02*
X77000Y-23500D01*
X77000Y-23500D02*
X77000Y-24500D01*
X77000Y-24500D02*
X76500Y-24500D01*
X76500Y-23000D02*
X87500Y-23000D01*
X87500Y-23000D02*
X87500Y-25000D01*
X87500Y-25000D02*
X76500Y-25000D01*
X76500Y-25000D02*
X76500Y-23000D01*
X40500Y-55500D02*
X41000Y-55500D01*
X41000Y-55500D02*
X41000Y-56500D01*
X41000Y-56500D02*
X40500Y-56500D01*
X40500Y-53500D02*
X53500Y-53500D01*
X53500Y-53500D02*
X53500Y-58500D01*
X53500Y-58500D02*
X40500Y-58500D01*
X40500Y-58500D02*
X40500Y-53500D01*
G54D16*
X50000Y-39000D02*
X50500Y-39000D01*
X50500Y-39000D02*
X50500Y-40000D01*
X50500Y-40000D02*
X50000Y-40000D01*
X50000Y-38500D02*
X54000Y-38500D01*
X54000Y-38500D02*
X54000Y-40500D01*
X54000Y-40500D02*
X50000Y-40500D01*
X50000Y-40500D02*
X50000Y-38500D01*
G54D12*
X91500Y-59200D02*
X94000Y-59200D01*
X94000Y-59200D02*
X94000Y-57700D01*
X94000Y-57700D02*
X95500Y-57700D01*
X95500Y-57700D02*
X95500Y-23700D01*
X95500Y-23700D02*
X94000Y-23700D01*
X94000Y-23700D02*
X94000Y-22200D01*
X94000Y-22200D02*
X91500Y-22200D01*
X91500Y-22200D02*
X91500Y-24200D01*
X91500Y-24200D02*
X92500Y-24200D01*
X92500Y-24200D02*
X92500Y-57200D01*
X92500Y-57200D02*
X91500Y-57200D01*
X91500Y-57200D02*
X91500Y-59200D01*
X91500Y-22200D02*
X88500Y-22200D01*
X88500Y-22200D02*
X88500Y-59200D01*
X88500Y-59200D02*
X91500Y-59200D01*
G54D14*
X52094Y-54693D02*
X52108Y-54707D01*
X52122Y-54750D01*
X52122Y-54779D01*
X52108Y-54822D01*
X52080Y-54850D01*
X52051Y-54865D01*
X51994Y-54879D01*
X51951Y-54879D01*
X51894Y-54865D01*
X51865Y-54850D01*
X51837Y-54822D01*
X51822Y-54779D01*
X51822Y-54750D01*
X51837Y-54707D01*
X51851Y-54693D01*
X51922Y-54436D02*
X52122Y-54436D01*
X51808Y-54507D02*
X52022Y-54579D01*
X52022Y-54393D01*
X51922Y-54150D02*
X52122Y-54150D01*
X51808Y-54221D02*
X52022Y-54293D01*
X52022Y-54107D01*
X53121Y-54827D02*
X53121Y-54969D01*
X53121Y-54898D02*
X52821Y-54898D01*
X52864Y-54922D01*
X52893Y-54946D01*
X52907Y-54969D01*
X53093Y-54719D02*
X53107Y-54708D01*
X53121Y-54719D01*
X53107Y-54731D01*
X53093Y-54719D01*
X53121Y-54719D01*
X52821Y-54553D02*
X52821Y-54529D01*
X52836Y-54505D01*
X52850Y-54493D01*
X52879Y-54481D01*
X52936Y-54470D01*
X53007Y-54470D01*
X53064Y-54481D01*
X53093Y-54493D01*
X53107Y-54505D01*
X53121Y-54529D01*
X53121Y-54553D01*
X53107Y-54577D01*
X53093Y-54589D01*
X53064Y-54600D01*
X53007Y-54612D01*
X52936Y-54612D01*
X52879Y-54600D01*
X52850Y-54589D01*
X52836Y-54577D01*
X52821Y-54553D01*
X52921Y-54255D02*
X53121Y-54255D01*
X52921Y-54362D02*
X53079Y-54362D01*
X53107Y-54351D01*
X53121Y-54327D01*
X53121Y-54291D01*
X53107Y-54267D01*
X53093Y-54255D01*
X52964Y-54053D02*
X52964Y-54136D01*
X53121Y-54136D02*
X52821Y-54136D01*
X52821Y-54017D01*
G54D17*
X52507Y-55514D02*
X52507Y-55285D01*
X52621Y-55399D02*
X52393Y-55399D01*
G54D14*
X41094Y-54693D02*
X41108Y-54707D01*
X41122Y-54750D01*
X41122Y-54779D01*
X41108Y-54822D01*
X41080Y-54850D01*
X41051Y-54865D01*
X40994Y-54879D01*
X40951Y-54879D01*
X40894Y-54865D01*
X40865Y-54850D01*
X40837Y-54822D01*
X40822Y-54779D01*
X40822Y-54750D01*
X40837Y-54707D01*
X40851Y-54693D01*
X40922Y-54436D02*
X41122Y-54436D01*
X40808Y-54507D02*
X41022Y-54579D01*
X41022Y-54393D01*
X41122Y-54121D02*
X41122Y-54293D01*
X41122Y-54207D02*
X40822Y-54207D01*
X40865Y-54236D01*
X40894Y-54264D01*
X40908Y-54293D01*
X42121Y-54827D02*
X42121Y-54969D01*
X42121Y-54898D02*
X41821Y-54898D01*
X41864Y-54922D01*
X41893Y-54946D01*
X41907Y-54969D01*
X42093Y-54719D02*
X42107Y-54708D01*
X42121Y-54719D01*
X42107Y-54731D01*
X42093Y-54719D01*
X42121Y-54719D01*
X41821Y-54553D02*
X41821Y-54529D01*
X41836Y-54505D01*
X41850Y-54493D01*
X41879Y-54481D01*
X41936Y-54470D01*
X42007Y-54470D01*
X42064Y-54481D01*
X42093Y-54493D01*
X42107Y-54505D01*
X42121Y-54529D01*
X42121Y-54553D01*
X42107Y-54577D01*
X42093Y-54589D01*
X42064Y-54600D01*
X42007Y-54612D01*
X41936Y-54612D01*
X41879Y-54600D01*
X41850Y-54589D01*
X41836Y-54577D01*
X41821Y-54553D01*
X41921Y-54255D02*
X42121Y-54255D01*
X41921Y-54362D02*
X42079Y-54362D01*
X42107Y-54351D01*
X42121Y-54327D01*
X42121Y-54291D01*
X42107Y-54267D01*
X42093Y-54255D01*
X41964Y-54053D02*
X41964Y-54136D01*
X42121Y-54136D02*
X41821Y-54136D01*
X41821Y-54017D01*
G54D17*
X41507Y-55514D02*
X41507Y-55285D01*
X41621Y-55399D02*
X41393Y-55399D01*
G54D15*
X40274Y-55757D02*
X40293Y-55776D01*
X40312Y-55833D01*
X40312Y-55871D01*
X40293Y-55929D01*
X40255Y-55967D01*
X40217Y-55986D01*
X40140Y-56005D01*
X40083Y-56005D01*
X40007Y-55986D01*
X39969Y-55967D01*
X39931Y-55929D01*
X39912Y-55871D01*
X39912Y-55833D01*
X39931Y-55776D01*
X39950Y-55757D01*
X39912Y-55624D02*
X39912Y-55376D01*
X40064Y-55510D01*
X40064Y-55452D01*
X40083Y-55414D01*
X40102Y-55395D01*
X40140Y-55376D01*
X40236Y-55376D01*
X40274Y-55395D01*
X40293Y-55414D01*
X40312Y-55452D01*
X40312Y-55567D01*
X40293Y-55605D01*
X40274Y-55624D01*
X40312Y-54995D02*
X40312Y-55224D01*
X40312Y-55110D02*
X39912Y-55110D01*
X39969Y-55148D01*
X40007Y-55186D01*
X40026Y-55224D01*
X41624Y-28757D02*
X41643Y-28776D01*
X41662Y-28833D01*
X41662Y-28871D01*
X41643Y-28929D01*
X41605Y-28967D01*
X41567Y-28986D01*
X41490Y-29005D01*
X41433Y-29005D01*
X41357Y-28986D01*
X41319Y-28967D01*
X41281Y-28929D01*
X41262Y-28871D01*
X41262Y-28833D01*
X41281Y-28776D01*
X41300Y-28757D01*
X41300Y-28605D02*
X41281Y-28586D01*
X41262Y-28548D01*
X41262Y-28452D01*
X41281Y-28414D01*
X41300Y-28395D01*
X41338Y-28376D01*
X41376Y-28376D01*
X41433Y-28395D01*
X41662Y-28624D01*
X41662Y-28376D01*
X41662Y-28186D02*
X41662Y-28110D01*
X41643Y-28071D01*
X41624Y-28052D01*
X41567Y-28014D01*
X41490Y-27995D01*
X41338Y-27995D01*
X41300Y-28014D01*
X41281Y-28033D01*
X41262Y-28071D01*
X41262Y-28148D01*
X41281Y-28186D01*
X41300Y-28205D01*
X41338Y-28224D01*
X41433Y-28224D01*
X41471Y-28205D01*
X41490Y-28186D01*
X41510Y-28148D01*
X41510Y-28071D01*
X41490Y-28033D01*
X41471Y-28014D01*
X41433Y-27995D01*
G54D14*
X41094Y-56693D02*
X41108Y-56707D01*
X41122Y-56750D01*
X41122Y-56779D01*
X41108Y-56822D01*
X41080Y-56850D01*
X41051Y-56865D01*
X40994Y-56879D01*
X40951Y-56879D01*
X40894Y-56865D01*
X40865Y-56850D01*
X40837Y-56822D01*
X40822Y-56779D01*
X40822Y-56750D01*
X40837Y-56707D01*
X40851Y-56693D01*
X40922Y-56436D02*
X41122Y-56436D01*
X40808Y-56507D02*
X41022Y-56579D01*
X41022Y-56393D01*
X40822Y-56307D02*
X40822Y-56121D01*
X40937Y-56221D01*
X40937Y-56179D01*
X40951Y-56150D01*
X40965Y-56136D01*
X40994Y-56121D01*
X41065Y-56121D01*
X41094Y-56136D01*
X41108Y-56150D01*
X41122Y-56179D01*
X41122Y-56264D01*
X41108Y-56293D01*
X41094Y-56307D01*
X42121Y-56827D02*
X42121Y-56969D01*
X42121Y-56898D02*
X41821Y-56898D01*
X41864Y-56922D01*
X41893Y-56946D01*
X41907Y-56969D01*
X42093Y-56719D02*
X42107Y-56708D01*
X42121Y-56719D01*
X42107Y-56731D01*
X42093Y-56719D01*
X42121Y-56719D01*
X41821Y-56553D02*
X41821Y-56529D01*
X41836Y-56505D01*
X41850Y-56493D01*
X41879Y-56481D01*
X41936Y-56470D01*
X42007Y-56470D01*
X42064Y-56481D01*
X42093Y-56493D01*
X42107Y-56505D01*
X42121Y-56529D01*
X42121Y-56553D01*
X42107Y-56577D01*
X42093Y-56589D01*
X42064Y-56600D01*
X42007Y-56612D01*
X41936Y-56612D01*
X41879Y-56600D01*
X41850Y-56589D01*
X41836Y-56577D01*
X41821Y-56553D01*
X41921Y-56255D02*
X42121Y-56255D01*
X41921Y-56362D02*
X42079Y-56362D01*
X42107Y-56351D01*
X42121Y-56327D01*
X42121Y-56291D01*
X42107Y-56267D01*
X42093Y-56255D01*
X41964Y-56053D02*
X41964Y-56136D01*
X42121Y-56136D02*
X41821Y-56136D01*
X41821Y-56017D01*
G54D17*
X41507Y-57514D02*
X41507Y-57285D01*
X41621Y-57399D02*
X41393Y-57399D01*
G54D14*
X52094Y-56693D02*
X52108Y-56707D01*
X52122Y-56750D01*
X52122Y-56779D01*
X52108Y-56822D01*
X52080Y-56850D01*
X52051Y-56865D01*
X51994Y-56879D01*
X51951Y-56879D01*
X51894Y-56865D01*
X51865Y-56850D01*
X51837Y-56822D01*
X51822Y-56779D01*
X51822Y-56750D01*
X51837Y-56707D01*
X51851Y-56693D01*
X51922Y-56436D02*
X52122Y-56436D01*
X51808Y-56507D02*
X52022Y-56579D01*
X52022Y-56393D01*
X51851Y-56293D02*
X51837Y-56279D01*
X51822Y-56250D01*
X51822Y-56179D01*
X51837Y-56150D01*
X51851Y-56136D01*
X51880Y-56121D01*
X51908Y-56121D01*
X51951Y-56136D01*
X52122Y-56307D01*
X52122Y-56121D01*
X53121Y-56827D02*
X53121Y-56969D01*
X53121Y-56898D02*
X52821Y-56898D01*
X52864Y-56922D01*
X52893Y-56946D01*
X52907Y-56969D01*
X53093Y-56719D02*
X53107Y-56708D01*
X53121Y-56719D01*
X53107Y-56731D01*
X53093Y-56719D01*
X53121Y-56719D01*
X52821Y-56553D02*
X52821Y-56529D01*
X52836Y-56505D01*
X52850Y-56493D01*
X52879Y-56481D01*
X52936Y-56470D01*
X53007Y-56470D01*
X53064Y-56481D01*
X53093Y-56493D01*
X53107Y-56505D01*
X53121Y-56529D01*
X53121Y-56553D01*
X53107Y-56577D01*
X53093Y-56589D01*
X53064Y-56600D01*
X53007Y-56612D01*
X52936Y-56612D01*
X52879Y-56600D01*
X52850Y-56589D01*
X52836Y-56577D01*
X52821Y-56553D01*
X52921Y-56255D02*
X53121Y-56255D01*
X52921Y-56362D02*
X53079Y-56362D01*
X53107Y-56351D01*
X53121Y-56327D01*
X53121Y-56291D01*
X53107Y-56267D01*
X53093Y-56255D01*
X52964Y-56053D02*
X52964Y-56136D01*
X53121Y-56136D02*
X52821Y-56136D01*
X52821Y-56017D01*
G54D17*
X52507Y-57514D02*
X52507Y-57285D01*
X52621Y-57399D02*
X52393Y-57399D01*
G54D14*
X54358Y-57714D02*
X54372Y-57743D01*
X54372Y-57800D01*
X54358Y-57828D01*
X54344Y-57843D01*
X54315Y-57857D01*
X54230Y-57857D01*
X54201Y-57843D01*
X54187Y-57828D01*
X54172Y-57800D01*
X54172Y-57743D01*
X54187Y-57714D01*
X54172Y-57457D02*
X54372Y-57457D01*
X54058Y-57528D02*
X54272Y-57600D01*
X54272Y-57414D01*
X54072Y-57242D02*
X54072Y-57214D01*
X54087Y-57185D01*
X54101Y-57171D01*
X54130Y-57157D01*
X54187Y-57142D01*
X54258Y-57142D01*
X54315Y-57157D01*
X54344Y-57171D01*
X54358Y-57185D01*
X54372Y-57214D01*
X54372Y-57242D01*
X54358Y-57271D01*
X54344Y-57285D01*
X54315Y-57300D01*
X54258Y-57314D01*
X54187Y-57314D01*
X54130Y-57300D01*
X54101Y-57285D01*
X54087Y-57271D01*
X54072Y-57242D01*
X55371Y-57827D02*
X55371Y-57969D01*
X55371Y-57898D02*
X55071Y-57898D01*
X55114Y-57922D01*
X55143Y-57946D01*
X55157Y-57969D01*
X55343Y-57719D02*
X55357Y-57708D01*
X55371Y-57719D01*
X55357Y-57731D01*
X55343Y-57719D01*
X55371Y-57719D01*
X55071Y-57553D02*
X55071Y-57529D01*
X55086Y-57505D01*
X55100Y-57493D01*
X55129Y-57481D01*
X55186Y-57470D01*
X55257Y-57470D01*
X55314Y-57481D01*
X55343Y-57493D01*
X55357Y-57505D01*
X55371Y-57529D01*
X55371Y-57553D01*
X55357Y-57577D01*
X55343Y-57589D01*
X55314Y-57600D01*
X55257Y-57612D01*
X55186Y-57612D01*
X55129Y-57600D01*
X55100Y-57589D01*
X55086Y-57577D01*
X55071Y-57553D01*
X55171Y-57255D02*
X55371Y-57255D01*
X55171Y-57362D02*
X55329Y-57362D01*
X55357Y-57351D01*
X55371Y-57327D01*
X55371Y-57291D01*
X55357Y-57267D01*
X55343Y-57255D01*
X55214Y-57053D02*
X55214Y-57136D01*
X55371Y-57136D02*
X55071Y-57136D01*
X55071Y-57017D01*
G54D17*
X54757Y-58514D02*
X54757Y-58285D01*
X54871Y-58399D02*
X54643Y-58399D01*
G54D15*
X32162Y-52795D02*
X31762Y-52795D01*
X31762Y-52642D01*
X31781Y-52604D01*
X31800Y-52585D01*
X31838Y-52566D01*
X31895Y-52566D01*
X31933Y-52585D01*
X31952Y-52604D01*
X31971Y-52642D01*
X31971Y-52795D01*
X32162Y-52185D02*
X32162Y-52414D01*
X32162Y-52300D02*
X31762Y-52300D01*
X31819Y-52338D01*
X31857Y-52376D01*
X31876Y-52414D01*
G54D16*
X36512Y-50045D02*
X36112Y-50045D01*
X36112Y-49892D01*
X36131Y-49854D01*
X36150Y-49835D01*
X36188Y-49816D01*
X36245Y-49816D01*
X36283Y-49835D01*
X36302Y-49854D01*
X36321Y-49892D01*
X36321Y-50045D01*
X36150Y-49664D02*
X36131Y-49645D01*
X36112Y-49607D01*
X36112Y-49511D01*
X36131Y-49473D01*
X36150Y-49454D01*
X36188Y-49435D01*
X36226Y-49435D01*
X36283Y-49454D01*
X36512Y-49683D01*
X36512Y-49435D01*
G54D15*
X36224Y-59369D02*
X36243Y-59388D01*
X36262Y-59445D01*
X36262Y-59483D01*
X36243Y-59541D01*
X36205Y-59579D01*
X36167Y-59598D01*
X36090Y-59617D01*
X36033Y-59617D01*
X35957Y-59598D01*
X35919Y-59579D01*
X35881Y-59541D01*
X35862Y-59483D01*
X35862Y-59445D01*
X35881Y-59388D01*
X35900Y-59369D01*
X35862Y-59122D02*
X35862Y-59045D01*
X35881Y-59007D01*
X35919Y-58969D01*
X35995Y-58950D01*
X36129Y-58950D01*
X36205Y-58969D01*
X36243Y-59007D01*
X36262Y-59045D01*
X36262Y-59122D01*
X36243Y-59160D01*
X36205Y-59198D01*
X36129Y-59217D01*
X35995Y-59217D01*
X35919Y-59198D01*
X35881Y-59160D01*
X35862Y-59122D01*
X36262Y-58779D02*
X35862Y-58779D01*
X36262Y-58550D01*
X35862Y-58550D01*
X36262Y-58360D02*
X35862Y-58360D01*
X36262Y-58131D01*
X35862Y-58131D01*
X36300Y-58036D02*
X36300Y-57731D01*
X36262Y-57426D02*
X36262Y-57655D01*
X36262Y-57541D02*
X35862Y-57541D01*
X35919Y-57579D01*
X35957Y-57617D01*
X35976Y-57655D01*
X35862Y-57179D02*
X35862Y-57140D01*
X35881Y-57102D01*
X35900Y-57083D01*
X35938Y-57064D01*
X36014Y-57045D01*
X36110Y-57045D01*
X36186Y-57064D01*
X36224Y-57083D01*
X36243Y-57102D01*
X36262Y-57140D01*
X36262Y-57179D01*
X36243Y-57217D01*
X36224Y-57236D01*
X36186Y-57255D01*
X36110Y-57274D01*
X36014Y-57274D01*
X35938Y-57255D01*
X35900Y-57236D01*
X35881Y-57217D01*
X35862Y-57179D01*
X35862Y-56912D02*
X36262Y-56645D01*
X35862Y-56645D02*
X36262Y-56912D01*
X35900Y-56512D02*
X35881Y-56493D01*
X35862Y-56455D01*
X35862Y-56359D01*
X35881Y-56321D01*
X35900Y-56302D01*
X35938Y-56283D01*
X35976Y-56283D01*
X36033Y-56302D01*
X36262Y-56531D01*
X36262Y-56283D01*
X49624Y-39757D02*
X49643Y-39776D01*
X49662Y-39833D01*
X49662Y-39871D01*
X49643Y-39929D01*
X49605Y-39967D01*
X49567Y-39986D01*
X49490Y-40005D01*
X49433Y-40005D01*
X49357Y-39986D01*
X49319Y-39967D01*
X49281Y-39929D01*
X49262Y-39871D01*
X49262Y-39833D01*
X49281Y-39776D01*
X49300Y-39757D01*
X49262Y-39624D02*
X49262Y-39376D01*
X49414Y-39510D01*
X49414Y-39452D01*
X49433Y-39414D01*
X49452Y-39395D01*
X49490Y-39376D01*
X49586Y-39376D01*
X49624Y-39395D01*
X49643Y-39414D01*
X49662Y-39452D01*
X49662Y-39567D01*
X49643Y-39605D01*
X49624Y-39624D01*
X49300Y-39224D02*
X49281Y-39205D01*
X49262Y-39167D01*
X49262Y-39071D01*
X49281Y-39033D01*
X49300Y-39014D01*
X49338Y-38995D01*
X49376Y-38995D01*
X49433Y-39014D01*
X49662Y-39243D01*
X49662Y-38995D01*
X63624Y-26757D02*
X63643Y-26776D01*
X63662Y-26833D01*
X63662Y-26871D01*
X63643Y-26929D01*
X63605Y-26967D01*
X63567Y-26986D01*
X63490Y-27005D01*
X63433Y-27005D01*
X63357Y-26986D01*
X63319Y-26967D01*
X63281Y-26929D01*
X63262Y-26871D01*
X63262Y-26833D01*
X63281Y-26776D01*
X63300Y-26757D01*
X63262Y-26624D02*
X63262Y-26376D01*
X63414Y-26510D01*
X63414Y-26452D01*
X63433Y-26414D01*
X63452Y-26395D01*
X63490Y-26376D01*
X63586Y-26376D01*
X63624Y-26395D01*
X63643Y-26414D01*
X63662Y-26452D01*
X63662Y-26567D01*
X63643Y-26605D01*
X63624Y-26624D01*
X63262Y-26129D02*
X63262Y-26090D01*
X63281Y-26052D01*
X63300Y-26033D01*
X63338Y-26014D01*
X63414Y-25995D01*
X63510Y-25995D01*
X63586Y-26014D01*
X63624Y-26033D01*
X63643Y-26052D01*
X63662Y-26090D01*
X63662Y-26129D01*
X63643Y-26167D01*
X63624Y-26186D01*
X63586Y-26205D01*
X63510Y-26224D01*
X63414Y-26224D01*
X63338Y-26205D01*
X63300Y-26186D01*
X63281Y-26167D01*
X63262Y-26129D01*
X54124Y-55257D02*
X54143Y-55276D01*
X54162Y-55333D01*
X54162Y-55371D01*
X54143Y-55429D01*
X54105Y-55467D01*
X54067Y-55486D01*
X53990Y-55505D01*
X53933Y-55505D01*
X53857Y-55486D01*
X53819Y-55467D01*
X53781Y-55429D01*
X53762Y-55371D01*
X53762Y-55333D01*
X53781Y-55276D01*
X53800Y-55257D01*
X53800Y-55105D02*
X53781Y-55086D01*
X53762Y-55048D01*
X53762Y-54952D01*
X53781Y-54914D01*
X53800Y-54895D01*
X53838Y-54876D01*
X53876Y-54876D01*
X53933Y-54895D01*
X54162Y-55124D01*
X54162Y-54876D01*
X53933Y-54648D02*
X53914Y-54686D01*
X53895Y-54705D01*
X53857Y-54724D01*
X53838Y-54724D01*
X53800Y-54705D01*
X53781Y-54686D01*
X53762Y-54648D01*
X53762Y-54571D01*
X53781Y-54533D01*
X53800Y-54514D01*
X53838Y-54495D01*
X53857Y-54495D01*
X53895Y-54514D01*
X53914Y-54533D01*
X53933Y-54571D01*
X53933Y-54648D01*
X53952Y-54686D01*
X53971Y-54705D01*
X54010Y-54724D01*
X54086Y-54724D01*
X54124Y-54705D01*
X54143Y-54686D01*
X54162Y-54648D01*
X54162Y-54571D01*
X54143Y-54533D01*
X54124Y-54514D01*
X54086Y-54495D01*
X54010Y-54495D01*
X53971Y-54514D01*
X53952Y-54533D01*
X53933Y-54571D01*
X51624Y-49257D02*
X51643Y-49276D01*
X51662Y-49333D01*
X51662Y-49371D01*
X51643Y-49429D01*
X51605Y-49467D01*
X51567Y-49486D01*
X51490Y-49505D01*
X51433Y-49505D01*
X51357Y-49486D01*
X51319Y-49467D01*
X51281Y-49429D01*
X51262Y-49371D01*
X51262Y-49333D01*
X51281Y-49276D01*
X51300Y-49257D01*
X51300Y-49105D02*
X51281Y-49086D01*
X51262Y-49048D01*
X51262Y-48952D01*
X51281Y-48914D01*
X51300Y-48895D01*
X51338Y-48876D01*
X51376Y-48876D01*
X51433Y-48895D01*
X51662Y-49124D01*
X51662Y-48876D01*
X51262Y-48743D02*
X51262Y-48476D01*
X51662Y-48648D01*
X73624Y-45257D02*
X73643Y-45276D01*
X73662Y-45333D01*
X73662Y-45371D01*
X73643Y-45429D01*
X73605Y-45467D01*
X73567Y-45486D01*
X73490Y-45505D01*
X73433Y-45505D01*
X73357Y-45486D01*
X73319Y-45467D01*
X73281Y-45429D01*
X73262Y-45371D01*
X73262Y-45333D01*
X73281Y-45276D01*
X73300Y-45257D01*
X73300Y-45105D02*
X73281Y-45086D01*
X73262Y-45048D01*
X73262Y-44952D01*
X73281Y-44914D01*
X73300Y-44895D01*
X73338Y-44876D01*
X73376Y-44876D01*
X73433Y-44895D01*
X73662Y-45124D01*
X73662Y-44876D01*
X73262Y-44533D02*
X73262Y-44610D01*
X73281Y-44648D01*
X73300Y-44667D01*
X73357Y-44705D01*
X73433Y-44724D01*
X73586Y-44724D01*
X73624Y-44705D01*
X73643Y-44686D01*
X73662Y-44648D01*
X73662Y-44571D01*
X73643Y-44533D01*
X73624Y-44514D01*
X73586Y-44495D01*
X73490Y-44495D01*
X73452Y-44514D01*
X73433Y-44533D01*
X73414Y-44571D01*
X73414Y-44648D01*
X73433Y-44686D01*
X73452Y-44705D01*
X73490Y-44724D01*
X65624Y-32757D02*
X65643Y-32776D01*
X65662Y-32833D01*
X65662Y-32871D01*
X65643Y-32929D01*
X65605Y-32967D01*
X65567Y-32986D01*
X65490Y-33005D01*
X65433Y-33005D01*
X65357Y-32986D01*
X65319Y-32967D01*
X65281Y-32929D01*
X65262Y-32871D01*
X65262Y-32833D01*
X65281Y-32776D01*
X65300Y-32757D01*
X65300Y-32605D02*
X65281Y-32586D01*
X65262Y-32548D01*
X65262Y-32452D01*
X65281Y-32414D01*
X65300Y-32395D01*
X65338Y-32376D01*
X65376Y-32376D01*
X65433Y-32395D01*
X65662Y-32624D01*
X65662Y-32376D01*
X65262Y-32014D02*
X65262Y-32205D01*
X65452Y-32224D01*
X65433Y-32205D01*
X65414Y-32167D01*
X65414Y-32071D01*
X65433Y-32033D01*
X65452Y-32014D01*
X65490Y-31995D01*
X65586Y-31995D01*
X65624Y-32014D01*
X65643Y-32033D01*
X65662Y-32071D01*
X65662Y-32167D01*
X65643Y-32205D01*
X65624Y-32224D01*
X65624Y-28257D02*
X65643Y-28276D01*
X65662Y-28333D01*
X65662Y-28371D01*
X65643Y-28429D01*
X65605Y-28467D01*
X65567Y-28486D01*
X65490Y-28505D01*
X65433Y-28505D01*
X65357Y-28486D01*
X65319Y-28467D01*
X65281Y-28429D01*
X65262Y-28371D01*
X65262Y-28333D01*
X65281Y-28276D01*
X65300Y-28257D01*
X65300Y-28105D02*
X65281Y-28086D01*
X65262Y-28048D01*
X65262Y-27952D01*
X65281Y-27914D01*
X65300Y-27895D01*
X65338Y-27876D01*
X65376Y-27876D01*
X65433Y-27895D01*
X65662Y-28124D01*
X65662Y-27876D01*
X65395Y-27533D02*
X65662Y-27533D01*
X65243Y-27629D02*
X65529Y-27724D01*
X65529Y-27476D01*
X56624Y-57757D02*
X56643Y-57776D01*
X56662Y-57833D01*
X56662Y-57871D01*
X56643Y-57929D01*
X56605Y-57967D01*
X56567Y-57986D01*
X56490Y-58005D01*
X56433Y-58005D01*
X56357Y-57986D01*
X56319Y-57967D01*
X56281Y-57929D01*
X56262Y-57871D01*
X56262Y-57833D01*
X56281Y-57776D01*
X56300Y-57757D01*
X56300Y-57605D02*
X56281Y-57586D01*
X56262Y-57548D01*
X56262Y-57452D01*
X56281Y-57414D01*
X56300Y-57395D01*
X56338Y-57376D01*
X56376Y-57376D01*
X56433Y-57395D01*
X56662Y-57624D01*
X56662Y-57376D01*
X56262Y-57243D02*
X56262Y-56995D01*
X56414Y-57129D01*
X56414Y-57071D01*
X56433Y-57033D01*
X56452Y-57014D01*
X56490Y-56995D01*
X56586Y-56995D01*
X56624Y-57014D01*
X56643Y-57033D01*
X56662Y-57071D01*
X56662Y-57186D01*
X56643Y-57224D01*
X56624Y-57243D01*
X39624Y-48257D02*
X39643Y-48276D01*
X39662Y-48333D01*
X39662Y-48371D01*
X39643Y-48429D01*
X39605Y-48467D01*
X39567Y-48486D01*
X39490Y-48505D01*
X39433Y-48505D01*
X39357Y-48486D01*
X39319Y-48467D01*
X39281Y-48429D01*
X39262Y-48371D01*
X39262Y-48333D01*
X39281Y-48276D01*
X39300Y-48257D01*
X39300Y-48105D02*
X39281Y-48086D01*
X39262Y-48048D01*
X39262Y-47952D01*
X39281Y-47914D01*
X39300Y-47895D01*
X39338Y-47876D01*
X39376Y-47876D01*
X39433Y-47895D01*
X39662Y-48124D01*
X39662Y-47876D01*
X39300Y-47724D02*
X39281Y-47705D01*
X39262Y-47667D01*
X39262Y-47571D01*
X39281Y-47533D01*
X39300Y-47514D01*
X39338Y-47495D01*
X39376Y-47495D01*
X39433Y-47514D01*
X39662Y-47743D01*
X39662Y-47495D01*
X39624Y-44757D02*
X39643Y-44776D01*
X39662Y-44833D01*
X39662Y-44871D01*
X39643Y-44929D01*
X39605Y-44967D01*
X39567Y-44986D01*
X39490Y-45005D01*
X39433Y-45005D01*
X39357Y-44986D01*
X39319Y-44967D01*
X39281Y-44929D01*
X39262Y-44871D01*
X39262Y-44833D01*
X39281Y-44776D01*
X39300Y-44757D01*
X39300Y-44605D02*
X39281Y-44586D01*
X39262Y-44548D01*
X39262Y-44452D01*
X39281Y-44414D01*
X39300Y-44395D01*
X39338Y-44376D01*
X39376Y-44376D01*
X39433Y-44395D01*
X39662Y-44624D01*
X39662Y-44376D01*
X39662Y-43995D02*
X39662Y-44224D01*
X39662Y-44110D02*
X39262Y-44110D01*
X39319Y-44148D01*
X39357Y-44186D01*
X39376Y-44224D01*
X41624Y-24757D02*
X41643Y-24776D01*
X41662Y-24833D01*
X41662Y-24871D01*
X41643Y-24929D01*
X41605Y-24967D01*
X41567Y-24986D01*
X41490Y-25005D01*
X41433Y-25005D01*
X41357Y-24986D01*
X41319Y-24967D01*
X41281Y-24929D01*
X41262Y-24871D01*
X41262Y-24833D01*
X41281Y-24776D01*
X41300Y-24757D01*
X41300Y-24605D02*
X41281Y-24586D01*
X41262Y-24548D01*
X41262Y-24452D01*
X41281Y-24414D01*
X41300Y-24395D01*
X41338Y-24376D01*
X41376Y-24376D01*
X41433Y-24395D01*
X41662Y-24624D01*
X41662Y-24376D01*
X41262Y-24129D02*
X41262Y-24090D01*
X41281Y-24052D01*
X41300Y-24033D01*
X41338Y-24014D01*
X41414Y-23995D01*
X41510Y-23995D01*
X41586Y-24014D01*
X41624Y-24033D01*
X41643Y-24052D01*
X41662Y-24090D01*
X41662Y-24129D01*
X41643Y-24167D01*
X41624Y-24186D01*
X41586Y-24205D01*
X41510Y-24224D01*
X41414Y-24224D01*
X41338Y-24205D01*
X41300Y-24186D01*
X41281Y-24167D01*
X41262Y-24129D01*
X65624Y-41257D02*
X65643Y-41276D01*
X65662Y-41333D01*
X65662Y-41371D01*
X65643Y-41429D01*
X65605Y-41467D01*
X65567Y-41486D01*
X65490Y-41505D01*
X65433Y-41505D01*
X65357Y-41486D01*
X65319Y-41467D01*
X65281Y-41429D01*
X65262Y-41371D01*
X65262Y-41333D01*
X65281Y-41276D01*
X65300Y-41257D01*
X65662Y-40876D02*
X65662Y-41105D01*
X65662Y-40991D02*
X65262Y-40991D01*
X65319Y-41029D01*
X65357Y-41067D01*
X65376Y-41105D01*
X65662Y-40686D02*
X65662Y-40610D01*
X65643Y-40571D01*
X65624Y-40552D01*
X65567Y-40514D01*
X65490Y-40495D01*
X65338Y-40495D01*
X65300Y-40514D01*
X65281Y-40533D01*
X65262Y-40571D01*
X65262Y-40648D01*
X65281Y-40686D01*
X65300Y-40705D01*
X65338Y-40724D01*
X65433Y-40724D01*
X65471Y-40705D01*
X65490Y-40686D01*
X65510Y-40648D01*
X65510Y-40571D01*
X65490Y-40533D01*
X65471Y-40514D01*
X65433Y-40495D01*
X55124Y-41257D02*
X55143Y-41276D01*
X55162Y-41333D01*
X55162Y-41371D01*
X55143Y-41429D01*
X55105Y-41467D01*
X55067Y-41486D01*
X54990Y-41505D01*
X54933Y-41505D01*
X54857Y-41486D01*
X54819Y-41467D01*
X54781Y-41429D01*
X54762Y-41371D01*
X54762Y-41333D01*
X54781Y-41276D01*
X54800Y-41257D01*
X55162Y-40876D02*
X55162Y-41105D01*
X55162Y-40991D02*
X54762Y-40991D01*
X54819Y-41029D01*
X54857Y-41067D01*
X54876Y-41105D01*
X54933Y-40648D02*
X54914Y-40686D01*
X54895Y-40705D01*
X54857Y-40724D01*
X54838Y-40724D01*
X54800Y-40705D01*
X54781Y-40686D01*
X54762Y-40648D01*
X54762Y-40571D01*
X54781Y-40533D01*
X54800Y-40514D01*
X54838Y-40495D01*
X54857Y-40495D01*
X54895Y-40514D01*
X54914Y-40533D01*
X54933Y-40571D01*
X54933Y-40648D01*
X54952Y-40686D01*
X54971Y-40705D01*
X55010Y-40724D01*
X55086Y-40724D01*
X55124Y-40705D01*
X55143Y-40686D01*
X55162Y-40648D01*
X55162Y-40571D01*
X55143Y-40533D01*
X55124Y-40514D01*
X55086Y-40495D01*
X55010Y-40495D01*
X54971Y-40514D01*
X54952Y-40533D01*
X54933Y-40571D01*
X38624Y-40257D02*
X38643Y-40276D01*
X38662Y-40333D01*
X38662Y-40371D01*
X38643Y-40429D01*
X38605Y-40467D01*
X38567Y-40486D01*
X38490Y-40505D01*
X38433Y-40505D01*
X38357Y-40486D01*
X38319Y-40467D01*
X38281Y-40429D01*
X38262Y-40371D01*
X38262Y-40333D01*
X38281Y-40276D01*
X38300Y-40257D01*
X38662Y-39876D02*
X38662Y-40105D01*
X38662Y-39991D02*
X38262Y-39991D01*
X38319Y-40029D01*
X38357Y-40067D01*
X38376Y-40105D01*
X38262Y-39743D02*
X38262Y-39476D01*
X38662Y-39648D01*
X51624Y-45257D02*
X51643Y-45276D01*
X51662Y-45333D01*
X51662Y-45371D01*
X51643Y-45429D01*
X51605Y-45467D01*
X51567Y-45486D01*
X51490Y-45505D01*
X51433Y-45505D01*
X51357Y-45486D01*
X51319Y-45467D01*
X51281Y-45429D01*
X51262Y-45371D01*
X51262Y-45333D01*
X51281Y-45276D01*
X51300Y-45257D01*
X51662Y-44876D02*
X51662Y-45105D01*
X51662Y-44991D02*
X51262Y-44991D01*
X51319Y-45029D01*
X51357Y-45067D01*
X51376Y-45105D01*
X51262Y-44533D02*
X51262Y-44610D01*
X51281Y-44648D01*
X51300Y-44667D01*
X51357Y-44705D01*
X51433Y-44724D01*
X51586Y-44724D01*
X51624Y-44705D01*
X51643Y-44686D01*
X51662Y-44648D01*
X51662Y-44571D01*
X51643Y-44533D01*
X51624Y-44514D01*
X51586Y-44495D01*
X51490Y-44495D01*
X51452Y-44514D01*
X51433Y-44533D01*
X51414Y-44571D01*
X51414Y-44648D01*
X51433Y-44686D01*
X51452Y-44705D01*
X51490Y-44724D01*
X65624Y-24257D02*
X65643Y-24276D01*
X65662Y-24333D01*
X65662Y-24371D01*
X65643Y-24429D01*
X65605Y-24467D01*
X65567Y-24486D01*
X65490Y-24505D01*
X65433Y-24505D01*
X65357Y-24486D01*
X65319Y-24467D01*
X65281Y-24429D01*
X65262Y-24371D01*
X65262Y-24333D01*
X65281Y-24276D01*
X65300Y-24257D01*
X65662Y-23876D02*
X65662Y-24105D01*
X65662Y-23991D02*
X65262Y-23991D01*
X65319Y-24029D01*
X65357Y-24067D01*
X65376Y-24105D01*
X65262Y-23514D02*
X65262Y-23705D01*
X65452Y-23724D01*
X65433Y-23705D01*
X65414Y-23667D01*
X65414Y-23571D01*
X65433Y-23533D01*
X65452Y-23514D01*
X65490Y-23495D01*
X65586Y-23495D01*
X65624Y-23514D01*
X65643Y-23533D01*
X65662Y-23571D01*
X65662Y-23667D01*
X65643Y-23705D01*
X65624Y-23724D01*
X66124Y-57757D02*
X66143Y-57776D01*
X66162Y-57833D01*
X66162Y-57871D01*
X66143Y-57929D01*
X66105Y-57967D01*
X66067Y-57986D01*
X65990Y-58005D01*
X65933Y-58005D01*
X65857Y-57986D01*
X65819Y-57967D01*
X65781Y-57929D01*
X65762Y-57871D01*
X65762Y-57833D01*
X65781Y-57776D01*
X65800Y-57757D01*
X66162Y-57376D02*
X66162Y-57605D01*
X66162Y-57491D02*
X65762Y-57491D01*
X65819Y-57529D01*
X65857Y-57567D01*
X65876Y-57605D01*
X65895Y-57033D02*
X66162Y-57033D01*
X65743Y-57129D02*
X66029Y-57224D01*
X66029Y-56976D01*
X66124Y-53257D02*
X66143Y-53276D01*
X66162Y-53333D01*
X66162Y-53371D01*
X66143Y-53429D01*
X66105Y-53467D01*
X66067Y-53486D01*
X65990Y-53505D01*
X65933Y-53505D01*
X65857Y-53486D01*
X65819Y-53467D01*
X65781Y-53429D01*
X65762Y-53371D01*
X65762Y-53333D01*
X65781Y-53276D01*
X65800Y-53257D01*
X66162Y-52876D02*
X66162Y-53105D01*
X66162Y-52991D02*
X65762Y-52991D01*
X65819Y-53029D01*
X65857Y-53067D01*
X65876Y-53105D01*
X65762Y-52743D02*
X65762Y-52495D01*
X65914Y-52629D01*
X65914Y-52571D01*
X65933Y-52533D01*
X65952Y-52514D01*
X65990Y-52495D01*
X66086Y-52495D01*
X66124Y-52514D01*
X66143Y-52533D01*
X66162Y-52571D01*
X66162Y-52686D01*
X66143Y-52724D01*
X66124Y-52743D01*
X76124Y-57757D02*
X76143Y-57776D01*
X76162Y-57833D01*
X76162Y-57871D01*
X76143Y-57929D01*
X76105Y-57967D01*
X76067Y-57986D01*
X75990Y-58005D01*
X75933Y-58005D01*
X75857Y-57986D01*
X75819Y-57967D01*
X75781Y-57929D01*
X75762Y-57871D01*
X75762Y-57833D01*
X75781Y-57776D01*
X75800Y-57757D01*
X76162Y-57376D02*
X76162Y-57605D01*
X76162Y-57491D02*
X75762Y-57491D01*
X75819Y-57529D01*
X75857Y-57567D01*
X75876Y-57605D01*
X75800Y-57224D02*
X75781Y-57205D01*
X75762Y-57167D01*
X75762Y-57071D01*
X75781Y-57033D01*
X75800Y-57014D01*
X75838Y-56995D01*
X75876Y-56995D01*
X75933Y-57014D01*
X76162Y-57243D01*
X76162Y-56995D01*
X76124Y-53257D02*
X76143Y-53276D01*
X76162Y-53333D01*
X76162Y-53371D01*
X76143Y-53429D01*
X76105Y-53467D01*
X76067Y-53486D01*
X75990Y-53505D01*
X75933Y-53505D01*
X75857Y-53486D01*
X75819Y-53467D01*
X75781Y-53429D01*
X75762Y-53371D01*
X75762Y-53333D01*
X75781Y-53276D01*
X75800Y-53257D01*
X76162Y-52876D02*
X76162Y-53105D01*
X76162Y-52991D02*
X75762Y-52991D01*
X75819Y-53029D01*
X75857Y-53067D01*
X75876Y-53105D01*
X76162Y-52495D02*
X76162Y-52724D01*
X76162Y-52610D02*
X75762Y-52610D01*
X75819Y-52648D01*
X75857Y-52686D01*
X75876Y-52724D01*
X76124Y-48257D02*
X76143Y-48276D01*
X76162Y-48333D01*
X76162Y-48371D01*
X76143Y-48429D01*
X76105Y-48467D01*
X76067Y-48486D01*
X75990Y-48505D01*
X75933Y-48505D01*
X75857Y-48486D01*
X75819Y-48467D01*
X75781Y-48429D01*
X75762Y-48371D01*
X75762Y-48333D01*
X75781Y-48276D01*
X75800Y-48257D01*
X76162Y-47876D02*
X76162Y-48105D01*
X76162Y-47991D02*
X75762Y-47991D01*
X75819Y-48029D01*
X75857Y-48067D01*
X75876Y-48105D01*
X75762Y-47629D02*
X75762Y-47590D01*
X75781Y-47552D01*
X75800Y-47533D01*
X75838Y-47514D01*
X75914Y-47495D01*
X76010Y-47495D01*
X76086Y-47514D01*
X76124Y-47533D01*
X76143Y-47552D01*
X76162Y-47590D01*
X76162Y-47629D01*
X76143Y-47667D01*
X76124Y-47686D01*
X76086Y-47705D01*
X76010Y-47724D01*
X75914Y-47724D01*
X75838Y-47705D01*
X75800Y-47686D01*
X75781Y-47667D01*
X75762Y-47629D01*
X76124Y-43566D02*
X76143Y-43585D01*
X76162Y-43642D01*
X76162Y-43680D01*
X76143Y-43738D01*
X76105Y-43776D01*
X76067Y-43795D01*
X75990Y-43814D01*
X75933Y-43814D01*
X75857Y-43795D01*
X75819Y-43776D01*
X75781Y-43738D01*
X75762Y-43680D01*
X75762Y-43642D01*
X75781Y-43585D01*
X75800Y-43566D01*
X76162Y-43376D02*
X76162Y-43300D01*
X76143Y-43261D01*
X76124Y-43242D01*
X76067Y-43204D01*
X75990Y-43185D01*
X75838Y-43185D01*
X75800Y-43204D01*
X75781Y-43223D01*
X75762Y-43261D01*
X75762Y-43338D01*
X75781Y-43376D01*
X75800Y-43395D01*
X75838Y-43414D01*
X75933Y-43414D01*
X75971Y-43395D01*
X75990Y-43376D01*
X76010Y-43338D01*
X76010Y-43261D01*
X75990Y-43223D01*
X75971Y-43204D01*
X75933Y-43185D01*
X76124Y-37566D02*
X76143Y-37585D01*
X76162Y-37642D01*
X76162Y-37680D01*
X76143Y-37738D01*
X76105Y-37776D01*
X76067Y-37795D01*
X75990Y-37814D01*
X75933Y-37814D01*
X75857Y-37795D01*
X75819Y-37776D01*
X75781Y-37738D01*
X75762Y-37680D01*
X75762Y-37642D01*
X75781Y-37585D01*
X75800Y-37566D01*
X75933Y-37338D02*
X75914Y-37376D01*
X75895Y-37395D01*
X75857Y-37414D01*
X75838Y-37414D01*
X75800Y-37395D01*
X75781Y-37376D01*
X75762Y-37338D01*
X75762Y-37261D01*
X75781Y-37223D01*
X75800Y-37204D01*
X75838Y-37185D01*
X75857Y-37185D01*
X75895Y-37204D01*
X75914Y-37223D01*
X75933Y-37261D01*
X75933Y-37338D01*
X75952Y-37376D01*
X75971Y-37395D01*
X76010Y-37414D01*
X76086Y-37414D01*
X76124Y-37395D01*
X76143Y-37376D01*
X76162Y-37338D01*
X76162Y-37261D01*
X76143Y-37223D01*
X76124Y-37204D01*
X76086Y-37185D01*
X76010Y-37185D01*
X75971Y-37204D01*
X75952Y-37223D01*
X75933Y-37261D01*
X76124Y-33066D02*
X76143Y-33085D01*
X76162Y-33142D01*
X76162Y-33180D01*
X76143Y-33238D01*
X76105Y-33276D01*
X76067Y-33295D01*
X75990Y-33314D01*
X75933Y-33314D01*
X75857Y-33295D01*
X75819Y-33276D01*
X75781Y-33238D01*
X75762Y-33180D01*
X75762Y-33142D01*
X75781Y-33085D01*
X75800Y-33066D01*
X75762Y-32933D02*
X75762Y-32666D01*
X76162Y-32838D01*
X76124Y-28566D02*
X76143Y-28585D01*
X76162Y-28642D01*
X76162Y-28680D01*
X76143Y-28738D01*
X76105Y-28776D01*
X76067Y-28795D01*
X75990Y-28814D01*
X75933Y-28814D01*
X75857Y-28795D01*
X75819Y-28776D01*
X75781Y-28738D01*
X75762Y-28680D01*
X75762Y-28642D01*
X75781Y-28585D01*
X75800Y-28566D01*
X75762Y-28223D02*
X75762Y-28300D01*
X75781Y-28338D01*
X75800Y-28357D01*
X75857Y-28395D01*
X75933Y-28414D01*
X76086Y-28414D01*
X76124Y-28395D01*
X76143Y-28376D01*
X76162Y-28338D01*
X76162Y-28261D01*
X76143Y-28223D01*
X76124Y-28204D01*
X76086Y-28185D01*
X75990Y-28185D01*
X75952Y-28204D01*
X75933Y-28223D01*
X75914Y-28261D01*
X75914Y-28338D01*
X75933Y-28376D01*
X75952Y-28395D01*
X75990Y-28414D01*
X76124Y-24066D02*
X76143Y-24085D01*
X76162Y-24142D01*
X76162Y-24180D01*
X76143Y-24238D01*
X76105Y-24276D01*
X76067Y-24295D01*
X75990Y-24314D01*
X75933Y-24314D01*
X75857Y-24295D01*
X75819Y-24276D01*
X75781Y-24238D01*
X75762Y-24180D01*
X75762Y-24142D01*
X75781Y-24085D01*
X75800Y-24066D01*
X75762Y-23704D02*
X75762Y-23895D01*
X75952Y-23914D01*
X75933Y-23895D01*
X75914Y-23857D01*
X75914Y-23761D01*
X75933Y-23723D01*
X75952Y-23704D01*
X75990Y-23685D01*
X76086Y-23685D01*
X76124Y-23704D01*
X76143Y-23723D01*
X76162Y-23761D01*
X76162Y-23857D01*
X76143Y-23895D01*
X76124Y-23914D01*
X55624Y-34566D02*
X55643Y-34585D01*
X55662Y-34642D01*
X55662Y-34680D01*
X55643Y-34738D01*
X55605Y-34776D01*
X55567Y-34795D01*
X55490Y-34814D01*
X55433Y-34814D01*
X55357Y-34795D01*
X55319Y-34776D01*
X55281Y-34738D01*
X55262Y-34680D01*
X55262Y-34642D01*
X55281Y-34585D01*
X55300Y-34566D01*
X55395Y-34223D02*
X55662Y-34223D01*
X55243Y-34319D02*
X55529Y-34414D01*
X55529Y-34166D01*
X45124Y-34566D02*
X45143Y-34585D01*
X45162Y-34642D01*
X45162Y-34680D01*
X45143Y-34738D01*
X45105Y-34776D01*
X45067Y-34795D01*
X44990Y-34814D01*
X44933Y-34814D01*
X44857Y-34795D01*
X44819Y-34776D01*
X44781Y-34738D01*
X44762Y-34680D01*
X44762Y-34642D01*
X44781Y-34585D01*
X44800Y-34566D01*
X44762Y-34433D02*
X44762Y-34185D01*
X44914Y-34319D01*
X44914Y-34261D01*
X44933Y-34223D01*
X44952Y-34204D01*
X44990Y-34185D01*
X45086Y-34185D01*
X45124Y-34204D01*
X45143Y-34223D01*
X45162Y-34261D01*
X45162Y-34376D01*
X45143Y-34414D01*
X45124Y-34433D01*
X65624Y-36566D02*
X65643Y-36585D01*
X65662Y-36642D01*
X65662Y-36680D01*
X65643Y-36738D01*
X65605Y-36776D01*
X65567Y-36795D01*
X65490Y-36814D01*
X65433Y-36814D01*
X65357Y-36795D01*
X65319Y-36776D01*
X65281Y-36738D01*
X65262Y-36680D01*
X65262Y-36642D01*
X65281Y-36585D01*
X65300Y-36566D01*
X65300Y-36414D02*
X65281Y-36395D01*
X65262Y-36357D01*
X65262Y-36261D01*
X65281Y-36223D01*
X65300Y-36204D01*
X65338Y-36185D01*
X65376Y-36185D01*
X65433Y-36204D01*
X65662Y-36433D01*
X65662Y-36185D01*
X55624Y-53066D02*
X55643Y-53085D01*
X55662Y-53142D01*
X55662Y-53180D01*
X55643Y-53238D01*
X55605Y-53276D01*
X55567Y-53295D01*
X55490Y-53314D01*
X55433Y-53314D01*
X55357Y-53295D01*
X55319Y-53276D01*
X55281Y-53238D01*
X55262Y-53180D01*
X55262Y-53142D01*
X55281Y-53085D01*
X55300Y-53066D01*
X55662Y-52685D02*
X55662Y-52914D01*
X55662Y-52800D02*
X55262Y-52800D01*
X55319Y-52838D01*
X55357Y-52876D01*
X55376Y-52914D01*
G54D10*
X73071Y-48600D02*
X73286Y-48600D01*
X73329Y-48614D01*
X73357Y-48643D01*
X73371Y-48686D01*
X73371Y-48714D01*
X73371Y-48299D02*
X73371Y-48471D01*
X73371Y-48385D02*
X73071Y-48385D01*
X73114Y-48414D01*
X73143Y-48442D01*
X73157Y-48471D01*
G54D15*
X39662Y-27295D02*
X39262Y-27295D01*
X39262Y-27142D01*
X39281Y-27104D01*
X39300Y-27085D01*
X39338Y-27066D01*
X39395Y-27066D01*
X39433Y-27085D01*
X39452Y-27104D01*
X39471Y-27142D01*
X39471Y-27295D01*
X39262Y-26933D02*
X39262Y-26685D01*
X39414Y-26819D01*
X39414Y-26761D01*
X39433Y-26723D01*
X39452Y-26704D01*
X39490Y-26685D01*
X39586Y-26685D01*
X39624Y-26704D01*
X39643Y-26723D01*
X39662Y-26761D01*
X39662Y-26876D01*
X39643Y-26914D01*
X39624Y-26933D01*
X39624Y-34419D02*
X39643Y-34438D01*
X39662Y-34495D01*
X39662Y-34533D01*
X39643Y-34591D01*
X39605Y-34629D01*
X39567Y-34648D01*
X39490Y-34667D01*
X39433Y-34667D01*
X39357Y-34648D01*
X39319Y-34629D01*
X39281Y-34591D01*
X39262Y-34533D01*
X39262Y-34495D01*
X39281Y-34438D01*
X39300Y-34419D01*
X39262Y-34172D02*
X39262Y-34095D01*
X39281Y-34057D01*
X39319Y-34019D01*
X39395Y-34000D01*
X39529Y-34000D01*
X39605Y-34019D01*
X39643Y-34057D01*
X39662Y-34095D01*
X39662Y-34172D01*
X39643Y-34210D01*
X39605Y-34248D01*
X39529Y-34267D01*
X39395Y-34267D01*
X39319Y-34248D01*
X39281Y-34210D01*
X39262Y-34172D01*
X39662Y-33829D02*
X39262Y-33829D01*
X39662Y-33600D01*
X39262Y-33600D01*
X39662Y-33410D02*
X39262Y-33410D01*
X39662Y-33181D01*
X39262Y-33181D01*
X39700Y-33086D02*
X39700Y-32781D01*
X39662Y-32476D02*
X39662Y-32705D01*
X39662Y-32591D02*
X39262Y-32591D01*
X39319Y-32629D01*
X39357Y-32667D01*
X39376Y-32705D01*
X39262Y-32343D02*
X39262Y-32095D01*
X39414Y-32229D01*
X39414Y-32171D01*
X39433Y-32133D01*
X39452Y-32114D01*
X39490Y-32095D01*
X39586Y-32095D01*
X39624Y-32114D01*
X39643Y-32133D01*
X39662Y-32171D01*
X39662Y-32286D01*
X39643Y-32324D01*
X39624Y-32343D01*
X39262Y-31962D02*
X39662Y-31695D01*
X39262Y-31695D02*
X39662Y-31962D01*
X39300Y-31562D02*
X39281Y-31543D01*
X39262Y-31505D01*
X39262Y-31409D01*
X39281Y-31371D01*
X39300Y-31352D01*
X39338Y-31333D01*
X39376Y-31333D01*
X39433Y-31352D01*
X39662Y-31581D01*
X39662Y-31333D01*
G54D16*
X34212Y-33295D02*
X33812Y-33295D01*
X33812Y-33142D01*
X33831Y-33104D01*
X33850Y-33085D01*
X33888Y-33066D01*
X33945Y-33066D01*
X33983Y-33085D01*
X34002Y-33104D01*
X34021Y-33142D01*
X34021Y-33295D01*
X33945Y-32723D02*
X34212Y-32723D01*
X33793Y-32819D02*
X34079Y-32914D01*
X34079Y-32666D01*
G54D15*
X31174Y-34419D02*
X31193Y-34438D01*
X31212Y-34495D01*
X31212Y-34533D01*
X31193Y-34591D01*
X31155Y-34629D01*
X31117Y-34648D01*
X31040Y-34667D01*
X30983Y-34667D01*
X30907Y-34648D01*
X30869Y-34629D01*
X30831Y-34591D01*
X30812Y-34533D01*
X30812Y-34495D01*
X30831Y-34438D01*
X30850Y-34419D01*
X30812Y-34172D02*
X30812Y-34095D01*
X30831Y-34057D01*
X30869Y-34019D01*
X30945Y-34000D01*
X31079Y-34000D01*
X31155Y-34019D01*
X31193Y-34057D01*
X31212Y-34095D01*
X31212Y-34172D01*
X31193Y-34210D01*
X31155Y-34248D01*
X31079Y-34267D01*
X30945Y-34267D01*
X30869Y-34248D01*
X30831Y-34210D01*
X30812Y-34172D01*
X31212Y-33829D02*
X30812Y-33829D01*
X31212Y-33600D01*
X30812Y-33600D01*
X31212Y-33410D02*
X30812Y-33410D01*
X31212Y-33181D01*
X30812Y-33181D01*
X31250Y-33086D02*
X31250Y-32781D01*
X30850Y-32705D02*
X30831Y-32686D01*
X30812Y-32648D01*
X30812Y-32552D01*
X30831Y-32514D01*
X30850Y-32495D01*
X30888Y-32476D01*
X30926Y-32476D01*
X30983Y-32495D01*
X31212Y-32724D01*
X31212Y-32476D01*
X30812Y-32229D02*
X30812Y-32190D01*
X30831Y-32152D01*
X30850Y-32133D01*
X30888Y-32114D01*
X30964Y-32095D01*
X31060Y-32095D01*
X31136Y-32114D01*
X31174Y-32133D01*
X31193Y-32152D01*
X31212Y-32190D01*
X31212Y-32229D01*
X31193Y-32267D01*
X31174Y-32286D01*
X31136Y-32305D01*
X31060Y-32324D01*
X30964Y-32324D01*
X30888Y-32305D01*
X30850Y-32286D01*
X30831Y-32267D01*
X30812Y-32229D01*
X30812Y-31962D02*
X31212Y-31695D01*
X30812Y-31695D02*
X31212Y-31962D01*
X30850Y-31562D02*
X30831Y-31543D01*
X30812Y-31505D01*
X30812Y-31409D01*
X30831Y-31371D01*
X30850Y-31352D01*
X30888Y-31333D01*
X30926Y-31333D01*
X30983Y-31352D01*
X31212Y-31581D01*
X31212Y-31333D01*
G54D10*
X36262Y-40633D02*
X36548Y-40633D01*
X36605Y-40653D01*
X36643Y-40691D01*
X36662Y-40748D01*
X36662Y-40786D01*
X36262Y-40481D02*
X36262Y-40233D01*
X36414Y-40367D01*
X36414Y-40309D01*
X36433Y-40271D01*
X36452Y-40252D01*
X36490Y-40233D01*
X36586Y-40233D01*
X36624Y-40252D01*
X36643Y-40271D01*
X36662Y-40309D01*
X36662Y-40424D01*
X36643Y-40462D01*
X36624Y-40481D01*
G54D15*
X51776Y-41362D02*
X52043Y-41762D01*
X52043Y-41362D02*
X51776Y-41762D01*
X52405Y-41762D02*
X52176Y-41762D01*
X52290Y-41762D02*
X52290Y-41362D01*
X52252Y-41419D01*
X52214Y-41457D01*
X52176Y-41476D01*
G54D10*
X35400Y-56321D02*
X35400Y-56536D01*
X35386Y-56579D01*
X35357Y-56607D01*
X35314Y-56621D01*
X35286Y-56621D01*
X35672Y-56421D02*
X35672Y-56621D01*
X35601Y-56307D02*
X35529Y-56521D01*
X35715Y-56521D01*
G54D15*
X44162Y-34795D02*
X43762Y-34795D01*
X43762Y-34642D01*
X43781Y-34604D01*
X43800Y-34585D01*
X43838Y-34566D01*
X43895Y-34566D01*
X43933Y-34585D01*
X43952Y-34604D01*
X43971Y-34642D01*
X43971Y-34795D01*
X43762Y-34204D02*
X43762Y-34395D01*
X43952Y-34414D01*
X43933Y-34395D01*
X43914Y-34357D01*
X43914Y-34261D01*
X43933Y-34223D01*
X43952Y-34204D01*
X43990Y-34185D01*
X44086Y-34185D01*
X44124Y-34204D01*
X44143Y-34223D01*
X44162Y-34261D01*
X44162Y-34357D01*
X44143Y-34395D01*
X44124Y-34414D01*
G54D12*
X34464Y-57157D02*
X34493Y-57071D01*
X34493Y-56928D01*
X34464Y-56871D01*
X34436Y-56842D01*
X34379Y-56814D01*
X34321Y-56814D01*
X34264Y-56842D01*
X34236Y-56871D01*
X34207Y-56928D01*
X34179Y-57042D01*
X34150Y-57100D01*
X34121Y-57128D01*
X34064Y-57157D01*
X34007Y-57157D01*
X33950Y-57128D01*
X33921Y-57100D01*
X33893Y-57042D01*
X33893Y-56900D01*
X33921Y-56814D01*
X34436Y-56214D02*
X34464Y-56243D01*
X34493Y-56329D01*
X34493Y-56386D01*
X34464Y-56471D01*
X34407Y-56529D01*
X34350Y-56557D01*
X34236Y-56586D01*
X34150Y-56586D01*
X34036Y-56557D01*
X33979Y-56529D01*
X33921Y-56471D01*
X33893Y-56386D01*
X33893Y-56329D01*
X33921Y-56243D01*
X33950Y-56214D01*
X34493Y-55643D02*
X34493Y-55986D01*
X34493Y-55814D02*
X33893Y-55814D01*
X33979Y-55871D01*
X34036Y-55929D01*
X34064Y-55986D01*
X32543Y-57499D02*
X32543Y-57442D01*
X32571Y-57385D01*
X32600Y-57356D01*
X32657Y-57327D01*
X32771Y-57299D01*
X32914Y-57299D01*
X33029Y-57327D01*
X33086Y-57356D01*
X33114Y-57385D01*
X33143Y-57442D01*
X33143Y-57499D01*
X33114Y-57556D01*
X33086Y-57585D01*
X33029Y-57613D01*
X32914Y-57642D01*
X32771Y-57642D01*
X32657Y-57613D01*
X32600Y-57585D01*
X32571Y-57556D01*
X32543Y-57499D01*
X33086Y-57042D02*
X33114Y-57014D01*
X33143Y-57042D01*
X33114Y-57071D01*
X33086Y-57042D01*
X33143Y-57042D01*
X32600Y-56785D02*
X32571Y-56756D01*
X32543Y-56699D01*
X32543Y-56556D01*
X32571Y-56499D01*
X32600Y-56470D01*
X32657Y-56442D01*
X32714Y-56442D01*
X32800Y-56470D01*
X33143Y-56813D01*
X33143Y-56442D01*
X32600Y-56214D02*
X32571Y-56185D01*
X32543Y-56128D01*
X32543Y-55985D01*
X32571Y-55928D01*
X32600Y-55899D01*
X32657Y-55871D01*
X32714Y-55871D01*
X32800Y-55899D01*
X33143Y-56242D01*
X33143Y-55871D01*
X32829Y-55414D02*
X32829Y-55614D01*
X33143Y-55614D02*
X32543Y-55614D01*
X32543Y-55328D01*
X33514Y-58728D02*
X33514Y-58271D01*
X33743Y-58500D02*
X33286Y-58500D01*
G54D14*
X63594Y-30550D02*
X63608Y-30564D01*
X63622Y-30607D01*
X63622Y-30636D01*
X63608Y-30679D01*
X63580Y-30707D01*
X63551Y-30722D01*
X63494Y-30736D01*
X63451Y-30736D01*
X63394Y-30722D01*
X63365Y-30707D01*
X63337Y-30679D01*
X63322Y-30636D01*
X63322Y-30607D01*
X63337Y-30564D01*
X63351Y-30550D01*
X63322Y-30364D02*
X63322Y-30336D01*
X63337Y-30307D01*
X63351Y-30293D01*
X63380Y-30279D01*
X63437Y-30264D01*
X63508Y-30264D01*
X63565Y-30279D01*
X63594Y-30293D01*
X63608Y-30307D01*
X63622Y-30336D01*
X63622Y-30364D01*
X63608Y-30393D01*
X63594Y-30407D01*
X63565Y-30422D01*
X63508Y-30436D01*
X63437Y-30436D01*
X63380Y-30422D01*
X63351Y-30407D01*
X63337Y-30393D01*
X63322Y-30364D01*
X64350Y-30910D02*
X64336Y-30898D01*
X64321Y-30875D01*
X64321Y-30815D01*
X64336Y-30791D01*
X64350Y-30779D01*
X64379Y-30768D01*
X64407Y-30768D01*
X64450Y-30779D01*
X64621Y-30922D01*
X64621Y-30768D01*
X64350Y-30672D02*
X64336Y-30660D01*
X64321Y-30637D01*
X64321Y-30577D01*
X64336Y-30553D01*
X64350Y-30541D01*
X64379Y-30530D01*
X64407Y-30530D01*
X64450Y-30541D01*
X64621Y-30684D01*
X64621Y-30530D01*
X64421Y-30315D02*
X64621Y-30315D01*
X64421Y-30422D02*
X64579Y-30422D01*
X64607Y-30411D01*
X64621Y-30387D01*
X64621Y-30351D01*
X64607Y-30327D01*
X64593Y-30315D01*
X64464Y-30113D02*
X64464Y-30196D01*
X64621Y-30196D02*
X64321Y-30196D01*
X64321Y-30077D01*
G54D17*
X64007Y-31514D02*
X64007Y-31285D01*
X64121Y-31399D02*
X63893Y-31399D01*
G54D15*
X37662Y-48795D02*
X37262Y-48795D01*
X37262Y-48642D01*
X37281Y-48604D01*
X37300Y-48585D01*
X37338Y-48566D01*
X37395Y-48566D01*
X37433Y-48585D01*
X37452Y-48604D01*
X37471Y-48642D01*
X37471Y-48795D01*
X37262Y-48223D02*
X37262Y-48300D01*
X37281Y-48338D01*
X37300Y-48357D01*
X37357Y-48395D01*
X37433Y-48414D01*
X37586Y-48414D01*
X37624Y-48395D01*
X37643Y-48376D01*
X37662Y-48338D01*
X37662Y-48261D01*
X37643Y-48223D01*
X37624Y-48204D01*
X37586Y-48185D01*
X37490Y-48185D01*
X37452Y-48204D01*
X37433Y-48223D01*
X37414Y-48261D01*
X37414Y-48338D01*
X37433Y-48376D01*
X37452Y-48395D01*
X37490Y-48414D01*
X42917Y-58673D02*
X42750Y-58411D01*
X42631Y-58673D02*
X42631Y-58123D01*
X42822Y-58123D01*
X42869Y-58149D01*
X42893Y-58175D01*
X42917Y-58227D01*
X42917Y-58306D01*
X42893Y-58358D01*
X42869Y-58385D01*
X42822Y-58411D01*
X42631Y-58411D01*
X43393Y-58673D02*
X43107Y-58673D01*
X43250Y-58673D02*
X43250Y-58123D01*
X43202Y-58201D01*
X43155Y-58254D01*
X43107Y-58280D01*
X42381Y-57856D02*
X42381Y-58223D01*
X42262Y-57646D02*
X42143Y-58039D01*
X42453Y-58039D01*
X42595Y-57673D02*
X42929Y-57673D01*
X42714Y-58223D01*
X43214Y-57673D02*
X43262Y-57673D01*
X43310Y-57699D01*
X43333Y-57725D01*
X43357Y-57777D01*
X43381Y-57882D01*
X43381Y-58013D01*
X43357Y-58118D01*
X43333Y-58170D01*
X43310Y-58196D01*
X43262Y-58223D01*
X43214Y-58223D01*
X43167Y-58196D01*
X43143Y-58170D01*
X43119Y-58118D01*
X43095Y-58013D01*
X43095Y-57882D01*
X43119Y-57777D01*
X43143Y-57725D01*
X43167Y-57699D01*
X43214Y-57673D01*
X43690Y-57673D02*
X43738Y-57673D01*
X43786Y-57699D01*
X43809Y-57725D01*
X43833Y-57777D01*
X43857Y-57882D01*
X43857Y-58013D01*
X43833Y-58118D01*
X43809Y-58170D01*
X43786Y-58196D01*
X43738Y-58223D01*
X43690Y-58223D01*
X43643Y-58196D01*
X43619Y-58170D01*
X43595Y-58118D01*
X43571Y-58013D01*
X43571Y-57882D01*
X43595Y-57777D01*
X43619Y-57725D01*
X43643Y-57699D01*
X43690Y-57673D01*
X50567Y-57623D02*
X50400Y-57361D01*
X50281Y-57623D02*
X50281Y-57073D01*
X50472Y-57073D01*
X50519Y-57099D01*
X50543Y-57125D01*
X50567Y-57177D01*
X50567Y-57256D01*
X50543Y-57308D01*
X50519Y-57335D01*
X50472Y-57361D01*
X50281Y-57361D01*
X50757Y-57125D02*
X50781Y-57099D01*
X50829Y-57073D01*
X50948Y-57073D01*
X50995Y-57099D01*
X51019Y-57125D01*
X51043Y-57177D01*
X51043Y-57230D01*
X51019Y-57308D01*
X50733Y-57623D01*
X51043Y-57623D01*
X50381Y-57856D02*
X50381Y-58223D01*
X50262Y-57646D02*
X50143Y-58039D01*
X50453Y-58039D01*
X50595Y-57673D02*
X50929Y-57673D01*
X50714Y-58223D01*
X51214Y-57673D02*
X51262Y-57673D01*
X51310Y-57699D01*
X51333Y-57725D01*
X51357Y-57777D01*
X51381Y-57882D01*
X51381Y-58013D01*
X51357Y-58118D01*
X51333Y-58170D01*
X51310Y-58196D01*
X51262Y-58223D01*
X51214Y-58223D01*
X51167Y-58196D01*
X51143Y-58170D01*
X51119Y-58118D01*
X51095Y-58013D01*
X51095Y-57882D01*
X51119Y-57777D01*
X51143Y-57725D01*
X51167Y-57699D01*
X51214Y-57673D01*
X51690Y-57673D02*
X51738Y-57673D01*
X51786Y-57699D01*
X51809Y-57725D01*
X51833Y-57777D01*
X51857Y-57882D01*
X51857Y-58013D01*
X51833Y-58118D01*
X51809Y-58170D01*
X51786Y-58196D01*
X51738Y-58223D01*
X51690Y-58223D01*
X51643Y-58196D01*
X51619Y-58170D01*
X51595Y-58118D01*
X51571Y-58013D01*
X51571Y-57882D01*
X51595Y-57777D01*
X51619Y-57725D01*
X51643Y-57699D01*
X51690Y-57673D01*
X47367Y-57573D02*
X47200Y-57311D01*
X47081Y-57573D02*
X47081Y-57023D01*
X47272Y-57023D01*
X47319Y-57049D01*
X47343Y-57075D01*
X47367Y-57127D01*
X47367Y-57206D01*
X47343Y-57258D01*
X47319Y-57285D01*
X47272Y-57311D01*
X47081Y-57311D01*
X47533Y-57023D02*
X47843Y-57023D01*
X47676Y-57232D01*
X47748Y-57232D01*
X47795Y-57258D01*
X47819Y-57285D01*
X47843Y-57337D01*
X47843Y-57468D01*
X47819Y-57520D01*
X47795Y-57546D01*
X47748Y-57573D01*
X47605Y-57573D01*
X47557Y-57546D01*
X47533Y-57520D01*
X46381Y-57856D02*
X46381Y-58223D01*
X46262Y-57646D02*
X46143Y-58039D01*
X46453Y-58039D01*
X46595Y-57673D02*
X46929Y-57673D01*
X46714Y-58223D01*
X47214Y-57673D02*
X47262Y-57673D01*
X47310Y-57699D01*
X47333Y-57725D01*
X47357Y-57777D01*
X47381Y-57882D01*
X47381Y-58013D01*
X47357Y-58118D01*
X47333Y-58170D01*
X47310Y-58196D01*
X47262Y-58223D01*
X47214Y-58223D01*
X47167Y-58196D01*
X47143Y-58170D01*
X47119Y-58118D01*
X47095Y-58013D01*
X47095Y-57882D01*
X47119Y-57777D01*
X47143Y-57725D01*
X47167Y-57699D01*
X47214Y-57673D01*
X47690Y-57673D02*
X47738Y-57673D01*
X47786Y-57699D01*
X47809Y-57725D01*
X47833Y-57777D01*
X47857Y-57882D01*
X47857Y-58013D01*
X47833Y-58118D01*
X47809Y-58170D01*
X47786Y-58196D01*
X47738Y-58223D01*
X47690Y-58223D01*
X47643Y-58196D01*
X47619Y-58170D01*
X47595Y-58118D01*
X47571Y-58013D01*
X47571Y-57882D01*
X47595Y-57777D01*
X47619Y-57725D01*
X47643Y-57699D01*
X47690Y-57673D01*
G54D10*
X89217Y-57162D02*
X89217Y-57448D01*
X89197Y-57505D01*
X89159Y-57543D01*
X89102Y-57562D01*
X89064Y-57562D01*
X89388Y-57200D02*
X89407Y-57181D01*
X89445Y-57162D01*
X89541Y-57162D01*
X89579Y-57181D01*
X89598Y-57200D01*
X89617Y-57238D01*
X89617Y-57276D01*
X89598Y-57333D01*
X89369Y-57562D01*
X89617Y-57562D01*
G54D18*
X44443Y-24583D02*
X44443Y-25150D01*
X44465Y-25217D01*
X44486Y-25250D01*
X44529Y-25283D01*
X44615Y-25283D01*
X44657Y-25250D01*
X44679Y-25217D01*
X44700Y-25150D01*
X44700Y-24583D01*
X44893Y-24650D02*
X44914Y-24617D01*
X44957Y-24583D01*
X45064Y-24583D01*
X45107Y-24617D01*
X45128Y-24650D01*
X45150Y-24717D01*
X45150Y-24783D01*
X45128Y-24883D01*
X44871Y-25283D01*
X45150Y-25283D01*
X45322Y-24650D02*
X45343Y-24617D01*
X45386Y-24583D01*
X45493Y-24583D01*
X45536Y-24617D01*
X45557Y-24650D01*
X45579Y-24717D01*
X45579Y-24783D01*
X45557Y-24883D01*
X45300Y-25283D01*
X45579Y-25283D01*
G54D12*
X56583Y-27383D02*
X56516Y-27350D01*
X56483Y-27317D01*
X56449Y-27250D01*
X56449Y-27217D01*
X56483Y-27150D01*
X56516Y-27117D01*
X56583Y-27083D01*
X56716Y-27083D01*
X56783Y-27117D01*
X56816Y-27150D01*
X56849Y-27217D01*
X56849Y-27250D01*
X56816Y-27317D01*
X56783Y-27350D01*
X56716Y-27383D01*
X56583Y-27383D01*
X56516Y-27417D01*
X56483Y-27450D01*
X56449Y-27517D01*
X56449Y-27650D01*
X56483Y-27717D01*
X56516Y-27750D01*
X56583Y-27783D01*
X56716Y-27783D01*
X56783Y-27750D01*
X56816Y-27717D01*
X56849Y-27650D01*
X56849Y-27517D01*
X56816Y-27450D01*
X56783Y-27417D01*
X56716Y-27383D01*
X57116Y-27150D02*
X57150Y-27117D01*
X57216Y-27083D01*
X57383Y-27083D01*
X57450Y-27117D01*
X57483Y-27150D01*
X57516Y-27217D01*
X57516Y-27283D01*
X57483Y-27383D01*
X57083Y-27783D01*
X57516Y-27783D01*
X58217Y-27717D02*
X58183Y-27750D01*
X58083Y-27783D01*
X58017Y-27783D01*
X57917Y-27750D01*
X57850Y-27683D01*
X57817Y-27617D01*
X57783Y-27483D01*
X57783Y-27383D01*
X57817Y-27250D01*
X57850Y-27183D01*
X57917Y-27117D01*
X58017Y-27083D01*
X58083Y-27083D01*
X58183Y-27117D01*
X58217Y-27150D01*
X58850Y-27083D02*
X58517Y-27083D01*
X58483Y-27417D01*
X58517Y-27383D01*
X58583Y-27350D01*
X58750Y-27350D01*
X58817Y-27383D01*
X58850Y-27417D01*
X58883Y-27483D01*
X58883Y-27650D01*
X58850Y-27717D01*
X58817Y-27750D01*
X58750Y-27783D01*
X58583Y-27783D01*
X58517Y-27750D01*
X58483Y-27717D01*
X59517Y-27083D02*
X59184Y-27083D01*
X59150Y-27417D01*
X59184Y-27383D01*
X59250Y-27350D01*
X59417Y-27350D01*
X59484Y-27383D01*
X59517Y-27417D01*
X59550Y-27483D01*
X59550Y-27650D01*
X59517Y-27717D01*
X59484Y-27750D01*
X59417Y-27783D01*
X59250Y-27783D01*
X59184Y-27750D01*
X59150Y-27717D01*
G54D18*
X54657Y-45083D02*
X54657Y-45650D01*
X54679Y-45717D01*
X54700Y-45750D01*
X54743Y-45783D01*
X54829Y-45783D01*
X54871Y-45750D01*
X54893Y-45717D01*
X54914Y-45650D01*
X54914Y-45083D01*
X55085Y-45083D02*
X55364Y-45083D01*
X55214Y-45350D01*
X55278Y-45350D01*
X55321Y-45383D01*
X55342Y-45417D01*
X55364Y-45483D01*
X55364Y-45650D01*
X55342Y-45717D01*
X55321Y-45750D01*
X55278Y-45783D01*
X55150Y-45783D01*
X55107Y-45750D01*
X55085Y-45717D01*
G54D12*
X65800Y-48283D02*
X65800Y-47583D01*
X66200Y-48283D01*
X66200Y-47583D01*
X66499Y-48250D02*
X66599Y-48283D01*
X66766Y-48283D01*
X66833Y-48250D01*
X66866Y-48217D01*
X66899Y-48150D01*
X66899Y-48083D01*
X66866Y-48017D01*
X66833Y-47983D01*
X66766Y-47950D01*
X66633Y-47917D01*
X66566Y-47883D01*
X66533Y-47850D01*
X66499Y-47783D01*
X66499Y-47717D01*
X66533Y-47650D01*
X66566Y-47617D01*
X66633Y-47583D01*
X66799Y-47583D01*
X66899Y-47617D01*
X67133Y-47583D02*
X67566Y-47583D01*
X67333Y-47850D01*
X67433Y-47850D01*
X67500Y-47883D01*
X67533Y-47917D01*
X67566Y-47983D01*
X67566Y-48150D01*
X67533Y-48217D01*
X67500Y-48250D01*
X67433Y-48283D01*
X67233Y-48283D01*
X67166Y-48250D01*
X67133Y-48217D01*
X67833Y-47650D02*
X67867Y-47617D01*
X67933Y-47583D01*
X68100Y-47583D01*
X68167Y-47617D01*
X68200Y-47650D01*
X68233Y-47717D01*
X68233Y-47783D01*
X68200Y-47883D01*
X67800Y-48283D01*
X68233Y-48283D01*
X68500Y-47650D02*
X68534Y-47617D01*
X68600Y-47583D01*
X68767Y-47583D01*
X68834Y-47617D01*
X68867Y-47650D01*
X68900Y-47717D01*
X68900Y-47783D01*
X68867Y-47883D01*
X68467Y-48283D01*
X68900Y-48283D01*
X69334Y-47583D02*
X69401Y-47583D01*
X69467Y-47617D01*
X69501Y-47650D01*
X69534Y-47717D01*
X69567Y-47850D01*
X69567Y-48017D01*
X69534Y-48150D01*
X69501Y-48217D01*
X69467Y-48250D01*
X69401Y-48283D01*
X69334Y-48283D01*
X69267Y-48250D01*
X69234Y-48217D01*
X69201Y-48150D01*
X69167Y-48017D01*
X69167Y-47850D01*
X69201Y-47717D01*
X69234Y-47650D01*
X69267Y-47617D01*
X69334Y-47583D01*
X69834Y-47650D02*
X69868Y-47617D01*
X69934Y-47583D01*
X70101Y-47583D01*
X70168Y-47617D01*
X70201Y-47650D01*
X70234Y-47717D01*
X70234Y-47783D01*
X70201Y-47883D01*
X69801Y-48283D01*
X70234Y-48283D01*
G54D19*
X79214Y-39775D02*
X79072Y-39451D01*
X78970Y-39775D02*
X78970Y-39094D01*
X79133Y-39094D01*
X79174Y-39127D01*
X79194Y-39159D01*
X79214Y-39224D01*
X79214Y-39321D01*
X79194Y-39386D01*
X79174Y-39418D01*
X79133Y-39451D01*
X78970Y-39451D01*
X79398Y-39775D02*
X79398Y-39094D01*
X79561Y-39094D01*
X79602Y-39127D01*
X79622Y-39159D01*
X79642Y-39224D01*
X79642Y-39321D01*
X79622Y-39386D01*
X79602Y-39418D01*
X79561Y-39451D01*
X79398Y-39451D01*
X80050Y-39775D02*
X79806Y-39775D01*
X79928Y-39775D02*
X79928Y-39094D01*
X79887Y-39191D01*
X79846Y-39256D01*
X79806Y-39289D01*
G54D16*
X83814Y-39200D02*
X83833Y-39171D01*
X83871Y-39143D01*
X83967Y-39143D01*
X84005Y-39171D01*
X84024Y-39200D01*
X84043Y-39257D01*
X84043Y-39314D01*
X84024Y-39400D01*
X83795Y-39743D01*
X84043Y-39743D01*
X84195Y-39200D02*
X84214Y-39171D01*
X84252Y-39143D01*
X84348Y-39143D01*
X84386Y-39171D01*
X84405Y-39200D01*
X84424Y-39257D01*
X84424Y-39314D01*
X84405Y-39400D01*
X84176Y-39743D01*
X84424Y-39743D01*
X84671Y-39143D02*
X84710Y-39143D01*
X84748Y-39171D01*
X84767Y-39200D01*
X84786Y-39257D01*
X84805Y-39371D01*
X84805Y-39514D01*
X84786Y-39629D01*
X84767Y-39686D01*
X84748Y-39714D01*
X84710Y-39743D01*
X84671Y-39743D01*
X84633Y-39714D01*
X84614Y-39686D01*
X84595Y-39629D01*
X84576Y-39514D01*
X84576Y-39371D01*
X84595Y-39257D01*
X84614Y-39200D01*
X84633Y-39171D01*
X84671Y-39143D01*
X85052Y-39143D02*
X85091Y-39143D01*
X85129Y-39171D01*
X85148Y-39200D01*
X85167Y-39257D01*
X85186Y-39371D01*
X85186Y-39514D01*
X85167Y-39629D01*
X85148Y-39686D01*
X85129Y-39714D01*
X85091Y-39743D01*
X85052Y-39743D01*
X85014Y-39714D01*
X84995Y-39686D01*
X84976Y-39629D01*
X84957Y-39514D01*
X84957Y-39371D01*
X84976Y-39257D01*
X84995Y-39200D01*
X85014Y-39171D01*
X85052Y-39143D01*
G54D19*
X56714Y-36775D02*
X56572Y-36451D01*
X56470Y-36775D02*
X56470Y-36094D01*
X56633Y-36094D01*
X56674Y-36127D01*
X56694Y-36159D01*
X56714Y-36224D01*
X56714Y-36321D01*
X56694Y-36386D01*
X56674Y-36418D01*
X56633Y-36451D01*
X56470Y-36451D01*
X56898Y-36775D02*
X56898Y-36094D01*
X57061Y-36094D01*
X57102Y-36127D01*
X57122Y-36159D01*
X57142Y-36224D01*
X57142Y-36321D01*
X57122Y-36386D01*
X57102Y-36418D01*
X57061Y-36451D01*
X56898Y-36451D01*
X57306Y-36159D02*
X57326Y-36127D01*
X57367Y-36094D01*
X57469Y-36094D01*
X57509Y-36127D01*
X57530Y-36159D01*
X57550Y-36224D01*
X57550Y-36289D01*
X57530Y-36386D01*
X57285Y-36775D01*
X57550Y-36775D01*
G54D16*
X61686Y-36343D02*
X61686Y-36743D01*
X61590Y-36114D02*
X61495Y-36543D01*
X61743Y-36543D01*
X61857Y-36143D02*
X62124Y-36143D01*
X61952Y-36743D01*
X62276Y-36743D02*
X62276Y-36143D01*
X62505Y-36743D02*
X62333Y-36400D01*
X62505Y-36143D02*
X62276Y-36486D01*
G54D18*
X67443Y-23143D02*
X67443Y-23629D01*
X67465Y-23686D01*
X67486Y-23714D01*
X67529Y-23743D01*
X67615Y-23743D01*
X67657Y-23714D01*
X67679Y-23686D01*
X67700Y-23629D01*
X67700Y-23143D01*
X68150Y-23743D02*
X67893Y-23743D01*
X68021Y-23743D02*
X68021Y-23143D01*
X67978Y-23229D01*
X67936Y-23286D01*
X67893Y-23314D01*
X68322Y-23200D02*
X68343Y-23171D01*
X68386Y-23143D01*
X68493Y-23143D01*
X68536Y-23171D01*
X68557Y-23200D01*
X68579Y-23257D01*
X68579Y-23314D01*
X68557Y-23400D01*
X68300Y-23743D01*
X68579Y-23743D01*
X69095Y-24143D02*
X69395Y-24143D01*
X69202Y-24743D01*
X69760Y-24343D02*
X69760Y-24743D01*
X69653Y-24114D02*
X69546Y-24543D01*
X69824Y-24543D01*
X70210Y-24743D02*
X69996Y-24743D01*
X69996Y-24143D01*
X70339Y-24714D02*
X70403Y-24743D01*
X70510Y-24743D01*
X70553Y-24714D01*
X70574Y-24686D01*
X70596Y-24629D01*
X70596Y-24571D01*
X70574Y-24514D01*
X70553Y-24486D01*
X70510Y-24457D01*
X70424Y-24429D01*
X70382Y-24400D01*
X70360Y-24371D01*
X70339Y-24314D01*
X70339Y-24257D01*
X70360Y-24200D01*
X70382Y-24171D01*
X70424Y-24143D01*
X70532Y-24143D01*
X70596Y-24171D01*
X71025Y-24743D02*
X70768Y-24743D01*
X70896Y-24743D02*
X70896Y-24143D01*
X70853Y-24229D01*
X70811Y-24286D01*
X70768Y-24314D01*
X71197Y-24200D02*
X71218Y-24171D01*
X71261Y-24143D01*
X71368Y-24143D01*
X71411Y-24171D01*
X71432Y-24200D01*
X71454Y-24257D01*
X71454Y-24314D01*
X71432Y-24400D01*
X71175Y-24743D01*
X71454Y-24743D01*
X71861Y-24143D02*
X71647Y-24143D01*
X71626Y-24429D01*
X71647Y-24400D01*
X71690Y-24371D01*
X71797Y-24371D01*
X71840Y-24400D01*
X71861Y-24429D01*
X71883Y-24486D01*
X71883Y-24629D01*
X71861Y-24686D01*
X71840Y-24714D01*
X71797Y-24743D01*
X71690Y-24743D01*
X71647Y-24714D01*
X71626Y-24686D01*
X58657Y-56643D02*
X58657Y-57129D01*
X58679Y-57186D01*
X58700Y-57214D01*
X58743Y-57243D01*
X58829Y-57243D01*
X58871Y-57214D01*
X58893Y-57186D01*
X58914Y-57129D01*
X58914Y-56643D01*
X59107Y-56700D02*
X59128Y-56671D01*
X59171Y-56643D01*
X59278Y-56643D01*
X59321Y-56671D01*
X59342Y-56700D01*
X59364Y-56757D01*
X59364Y-56814D01*
X59342Y-56900D01*
X59085Y-57243D01*
X59364Y-57243D01*
X60310Y-57643D02*
X60610Y-57643D01*
X60417Y-58243D01*
X60975Y-57843D02*
X60975Y-58243D01*
X60868Y-57614D02*
X60761Y-58043D01*
X61039Y-58043D01*
X61425Y-58243D02*
X61211Y-58243D01*
X61211Y-57643D01*
X61554Y-58214D02*
X61618Y-58243D01*
X61725Y-58243D01*
X61768Y-58214D01*
X61789Y-58186D01*
X61811Y-58129D01*
X61811Y-58071D01*
X61789Y-58014D01*
X61768Y-57986D01*
X61725Y-57957D01*
X61639Y-57929D01*
X61597Y-57900D01*
X61575Y-57871D01*
X61554Y-57814D01*
X61554Y-57757D01*
X61575Y-57700D01*
X61597Y-57671D01*
X61639Y-57643D01*
X61747Y-57643D01*
X61811Y-57671D01*
X62090Y-57643D02*
X62133Y-57643D01*
X62176Y-57671D01*
X62197Y-57700D01*
X62218Y-57757D01*
X62240Y-57871D01*
X62240Y-58014D01*
X62218Y-58129D01*
X62197Y-58186D01*
X62176Y-58214D01*
X62133Y-58243D01*
X62090Y-58243D01*
X62047Y-58214D01*
X62026Y-58186D01*
X62004Y-58129D01*
X61983Y-58014D01*
X61983Y-57871D01*
X62004Y-57757D01*
X62026Y-57700D01*
X62047Y-57671D01*
X62090Y-57643D01*
X62497Y-57900D02*
X62455Y-57871D01*
X62433Y-57843D01*
X62412Y-57786D01*
X62412Y-57757D01*
X62433Y-57700D01*
X62455Y-57671D01*
X62497Y-57643D01*
X62583Y-57643D01*
X62626Y-57671D01*
X62647Y-57700D01*
X62669Y-57757D01*
X62669Y-57786D01*
X62647Y-57843D01*
X62626Y-57871D01*
X62583Y-57900D01*
X62497Y-57900D01*
X62455Y-57929D01*
X62433Y-57957D01*
X62412Y-58014D01*
X62412Y-58129D01*
X62433Y-58186D01*
X62455Y-58214D01*
X62497Y-58243D01*
X62583Y-58243D01*
X62626Y-58214D01*
X62647Y-58186D01*
X62669Y-58129D01*
X62669Y-58014D01*
X62647Y-57957D01*
X62626Y-57929D01*
X62583Y-57900D01*
X68157Y-52143D02*
X68157Y-52629D01*
X68179Y-52686D01*
X68200Y-52714D01*
X68243Y-52743D01*
X68329Y-52743D01*
X68371Y-52714D01*
X68393Y-52686D01*
X68414Y-52629D01*
X68414Y-52143D01*
X68821Y-52343D02*
X68821Y-52743D01*
X68714Y-52114D02*
X68607Y-52543D01*
X68885Y-52543D01*
X69810Y-53143D02*
X70110Y-53143D01*
X69917Y-53743D01*
X70475Y-53343D02*
X70475Y-53743D01*
X70368Y-53114D02*
X70261Y-53543D01*
X70539Y-53543D01*
X70925Y-53743D02*
X70711Y-53743D01*
X70711Y-53143D01*
X71054Y-53714D02*
X71118Y-53743D01*
X71225Y-53743D01*
X71268Y-53714D01*
X71289Y-53686D01*
X71311Y-53629D01*
X71311Y-53571D01*
X71289Y-53514D01*
X71268Y-53486D01*
X71225Y-53457D01*
X71139Y-53429D01*
X71097Y-53400D01*
X71075Y-53371D01*
X71054Y-53314D01*
X71054Y-53257D01*
X71075Y-53200D01*
X71097Y-53171D01*
X71139Y-53143D01*
X71247Y-53143D01*
X71311Y-53171D01*
X71590Y-53143D02*
X71633Y-53143D01*
X71676Y-53171D01*
X71697Y-53200D01*
X71718Y-53257D01*
X71740Y-53371D01*
X71740Y-53514D01*
X71718Y-53629D01*
X71697Y-53686D01*
X71676Y-53714D01*
X71633Y-53743D01*
X71590Y-53743D01*
X71547Y-53714D01*
X71526Y-53686D01*
X71504Y-53629D01*
X71483Y-53514D01*
X71483Y-53371D01*
X71504Y-53257D01*
X71526Y-53200D01*
X71547Y-53171D01*
X71590Y-53143D01*
X71997Y-53400D02*
X71955Y-53371D01*
X71933Y-53343D01*
X71912Y-53286D01*
X71912Y-53257D01*
X71933Y-53200D01*
X71955Y-53171D01*
X71997Y-53143D01*
X72083Y-53143D01*
X72126Y-53171D01*
X72147Y-53200D01*
X72169Y-53257D01*
X72169Y-53286D01*
X72147Y-53343D01*
X72126Y-53371D01*
X72083Y-53400D01*
X71997Y-53400D01*
X71955Y-53429D01*
X71933Y-53457D01*
X71912Y-53514D01*
X71912Y-53629D01*
X71933Y-53686D01*
X71955Y-53714D01*
X71997Y-53743D01*
X72083Y-53743D01*
X72126Y-53714D01*
X72147Y-53686D01*
X72169Y-53629D01*
X72169Y-53514D01*
X72147Y-53457D01*
X72126Y-53429D01*
X72083Y-53400D01*
X57443Y-33643D02*
X57443Y-34129D01*
X57465Y-34186D01*
X57486Y-34214D01*
X57529Y-34243D01*
X57615Y-34243D01*
X57657Y-34214D01*
X57679Y-34186D01*
X57700Y-34129D01*
X57700Y-33643D01*
X58150Y-34243D02*
X57893Y-34243D01*
X58021Y-34243D02*
X58021Y-33643D01*
X57978Y-33729D01*
X57936Y-33786D01*
X57893Y-33814D01*
X58429Y-33643D02*
X58472Y-33643D01*
X58515Y-33671D01*
X58536Y-33700D01*
X58557Y-33757D01*
X58579Y-33871D01*
X58579Y-34014D01*
X58557Y-34129D01*
X58536Y-34186D01*
X58515Y-34214D01*
X58472Y-34243D01*
X58429Y-34243D01*
X58386Y-34214D01*
X58365Y-34186D01*
X58343Y-34129D01*
X58322Y-34014D01*
X58322Y-33871D01*
X58343Y-33757D01*
X58365Y-33700D01*
X58386Y-33671D01*
X58429Y-33643D01*
X59310Y-34643D02*
X59610Y-34643D01*
X59417Y-35243D01*
X59975Y-34843D02*
X59975Y-35243D01*
X59868Y-34614D02*
X59761Y-35043D01*
X60039Y-35043D01*
X60425Y-35243D02*
X60211Y-35243D01*
X60211Y-34643D01*
X60554Y-35214D02*
X60618Y-35243D01*
X60725Y-35243D01*
X60768Y-35214D01*
X60789Y-35186D01*
X60811Y-35129D01*
X60811Y-35071D01*
X60789Y-35014D01*
X60768Y-34986D01*
X60725Y-34957D01*
X60639Y-34929D01*
X60597Y-34900D01*
X60575Y-34871D01*
X60554Y-34814D01*
X60554Y-34757D01*
X60575Y-34700D01*
X60597Y-34671D01*
X60639Y-34643D01*
X60747Y-34643D01*
X60811Y-34671D01*
X61090Y-34643D02*
X61133Y-34643D01*
X61176Y-34671D01*
X61197Y-34700D01*
X61218Y-34757D01*
X61240Y-34871D01*
X61240Y-35014D01*
X61218Y-35129D01*
X61197Y-35186D01*
X61176Y-35214D01*
X61133Y-35243D01*
X61090Y-35243D01*
X61047Y-35214D01*
X61026Y-35186D01*
X61004Y-35129D01*
X60983Y-35014D01*
X60983Y-34871D01*
X61004Y-34757D01*
X61026Y-34700D01*
X61047Y-34671D01*
X61090Y-34643D01*
X61412Y-34700D02*
X61433Y-34671D01*
X61476Y-34643D01*
X61583Y-34643D01*
X61626Y-34671D01*
X61647Y-34700D01*
X61669Y-34757D01*
X61669Y-34814D01*
X61647Y-34900D01*
X61390Y-35243D01*
X61669Y-35243D01*
X46943Y-33643D02*
X46943Y-34129D01*
X46965Y-34186D01*
X46986Y-34214D01*
X47029Y-34243D01*
X47115Y-34243D01*
X47157Y-34214D01*
X47179Y-34186D01*
X47200Y-34129D01*
X47200Y-33643D01*
X47650Y-34243D02*
X47393Y-34243D01*
X47521Y-34243D02*
X47521Y-33643D01*
X47478Y-33729D01*
X47436Y-33786D01*
X47393Y-33814D01*
X48079Y-34243D02*
X47822Y-34243D01*
X47950Y-34243D02*
X47950Y-33643D01*
X47907Y-33729D01*
X47865Y-33786D01*
X47822Y-33814D01*
X48810Y-34643D02*
X49110Y-34643D01*
X48917Y-35243D01*
X49475Y-34843D02*
X49475Y-35243D01*
X49368Y-34614D02*
X49261Y-35043D01*
X49539Y-35043D01*
X49925Y-35243D02*
X49711Y-35243D01*
X49711Y-34643D01*
X50054Y-35214D02*
X50118Y-35243D01*
X50225Y-35243D01*
X50268Y-35214D01*
X50289Y-35186D01*
X50311Y-35129D01*
X50311Y-35071D01*
X50289Y-35014D01*
X50268Y-34986D01*
X50225Y-34957D01*
X50139Y-34929D01*
X50097Y-34900D01*
X50075Y-34871D01*
X50054Y-34814D01*
X50054Y-34757D01*
X50075Y-34700D01*
X50097Y-34671D01*
X50139Y-34643D01*
X50247Y-34643D01*
X50311Y-34671D01*
X50590Y-34643D02*
X50633Y-34643D01*
X50676Y-34671D01*
X50697Y-34700D01*
X50718Y-34757D01*
X50740Y-34871D01*
X50740Y-35014D01*
X50718Y-35129D01*
X50697Y-35186D01*
X50676Y-35214D01*
X50633Y-35243D01*
X50590Y-35243D01*
X50547Y-35214D01*
X50526Y-35186D01*
X50504Y-35129D01*
X50483Y-35014D01*
X50483Y-34871D01*
X50504Y-34757D01*
X50526Y-34700D01*
X50547Y-34671D01*
X50590Y-34643D01*
X51126Y-34843D02*
X51126Y-35243D01*
X51019Y-34614D02*
X50912Y-35043D01*
X51190Y-35043D01*
X67943Y-56643D02*
X67943Y-57129D01*
X67965Y-57186D01*
X67986Y-57214D01*
X68029Y-57243D01*
X68115Y-57243D01*
X68157Y-57214D01*
X68179Y-57186D01*
X68200Y-57129D01*
X68200Y-56643D01*
X68393Y-56700D02*
X68414Y-56671D01*
X68457Y-56643D01*
X68564Y-56643D01*
X68607Y-56671D01*
X68628Y-56700D01*
X68650Y-56757D01*
X68650Y-56814D01*
X68628Y-56900D01*
X68371Y-57243D01*
X68650Y-57243D01*
X68800Y-56643D02*
X69100Y-56643D01*
X68907Y-57243D01*
X69810Y-57643D02*
X70110Y-57643D01*
X69917Y-58243D01*
X70475Y-57843D02*
X70475Y-58243D01*
X70368Y-57614D02*
X70261Y-58043D01*
X70539Y-58043D01*
X70925Y-58243D02*
X70711Y-58243D01*
X70711Y-57643D01*
X71054Y-58214D02*
X71118Y-58243D01*
X71225Y-58243D01*
X71268Y-58214D01*
X71289Y-58186D01*
X71311Y-58129D01*
X71311Y-58071D01*
X71289Y-58014D01*
X71268Y-57986D01*
X71225Y-57957D01*
X71139Y-57929D01*
X71097Y-57900D01*
X71075Y-57871D01*
X71054Y-57814D01*
X71054Y-57757D01*
X71075Y-57700D01*
X71097Y-57671D01*
X71139Y-57643D01*
X71247Y-57643D01*
X71311Y-57671D01*
X71461Y-57643D02*
X71740Y-57643D01*
X71590Y-57871D01*
X71654Y-57871D01*
X71697Y-57900D01*
X71718Y-57929D01*
X71740Y-57986D01*
X71740Y-58129D01*
X71718Y-58186D01*
X71697Y-58214D01*
X71654Y-58243D01*
X71526Y-58243D01*
X71483Y-58214D01*
X71461Y-58186D01*
X71912Y-57700D02*
X71933Y-57671D01*
X71976Y-57643D01*
X72083Y-57643D01*
X72126Y-57671D01*
X72147Y-57700D01*
X72169Y-57757D01*
X72169Y-57814D01*
X72147Y-57900D01*
X71890Y-58243D01*
X72169Y-58243D01*
X40943Y-39143D02*
X40943Y-39629D01*
X40965Y-39686D01*
X40986Y-39714D01*
X41029Y-39743D01*
X41115Y-39743D01*
X41157Y-39714D01*
X41179Y-39686D01*
X41200Y-39629D01*
X41200Y-39143D01*
X41371Y-39143D02*
X41650Y-39143D01*
X41500Y-39371D01*
X41564Y-39371D01*
X41607Y-39400D01*
X41628Y-39429D01*
X41650Y-39486D01*
X41650Y-39629D01*
X41628Y-39686D01*
X41607Y-39714D01*
X41564Y-39743D01*
X41436Y-39743D01*
X41393Y-39714D01*
X41371Y-39686D01*
X42079Y-39743D02*
X41822Y-39743D01*
X41950Y-39743D02*
X41950Y-39143D01*
X41907Y-39229D01*
X41865Y-39286D01*
X41822Y-39314D01*
X43164Y-40743D02*
X43164Y-40143D01*
X43271Y-40143D01*
X43336Y-40171D01*
X43378Y-40229D01*
X43400Y-40286D01*
X43421Y-40400D01*
X43421Y-40486D01*
X43400Y-40600D01*
X43378Y-40657D01*
X43336Y-40714D01*
X43271Y-40743D01*
X43164Y-40743D01*
X43614Y-40743D02*
X43614Y-40143D01*
X44042Y-40743D02*
X43828Y-40743D01*
X43828Y-40143D01*
X44428Y-40743D02*
X44171Y-40743D01*
X44299Y-40743D02*
X44299Y-40143D01*
X44256Y-40229D01*
X44214Y-40286D01*
X44171Y-40314D01*
X44814Y-40343D02*
X44814Y-40743D01*
X44707Y-40114D02*
X44600Y-40543D01*
X44878Y-40543D01*
X56943Y-40143D02*
X56943Y-40629D01*
X56965Y-40686D01*
X56986Y-40714D01*
X57029Y-40743D01*
X57115Y-40743D01*
X57157Y-40714D01*
X57179Y-40686D01*
X57200Y-40629D01*
X57200Y-40143D01*
X57393Y-40200D02*
X57414Y-40171D01*
X57457Y-40143D01*
X57564Y-40143D01*
X57607Y-40171D01*
X57628Y-40200D01*
X57650Y-40257D01*
X57650Y-40314D01*
X57628Y-40400D01*
X57371Y-40743D01*
X57650Y-40743D01*
X58079Y-40743D02*
X57822Y-40743D01*
X57950Y-40743D02*
X57950Y-40143D01*
X57907Y-40229D01*
X57865Y-40286D01*
X57822Y-40314D01*
X59595Y-41143D02*
X59895Y-41143D01*
X59702Y-41743D01*
X60260Y-41343D02*
X60260Y-41743D01*
X60153Y-41114D02*
X60046Y-41543D01*
X60324Y-41543D01*
X60710Y-41743D02*
X60496Y-41743D01*
X60496Y-41143D01*
X60839Y-41714D02*
X60903Y-41743D01*
X61010Y-41743D01*
X61053Y-41714D01*
X61074Y-41686D01*
X61096Y-41629D01*
X61096Y-41571D01*
X61074Y-41514D01*
X61053Y-41486D01*
X61010Y-41457D01*
X60924Y-41429D01*
X60882Y-41400D01*
X60860Y-41371D01*
X60839Y-41314D01*
X60839Y-41257D01*
X60860Y-41200D01*
X60882Y-41171D01*
X60924Y-41143D01*
X61032Y-41143D01*
X61096Y-41171D01*
X61525Y-41743D02*
X61268Y-41743D01*
X61396Y-41743D02*
X61396Y-41143D01*
X61353Y-41229D01*
X61311Y-41286D01*
X61268Y-41314D01*
X61675Y-41143D02*
X61975Y-41143D01*
X61782Y-41743D01*
X62361Y-41143D02*
X62147Y-41143D01*
X62126Y-41429D01*
X62147Y-41400D01*
X62190Y-41371D01*
X62297Y-41371D01*
X62340Y-41400D01*
X62361Y-41429D01*
X62383Y-41486D01*
X62383Y-41629D01*
X62361Y-41686D01*
X62340Y-41714D01*
X62297Y-41743D01*
X62190Y-41743D01*
X62147Y-41714D01*
X62126Y-41686D01*
X57443Y-52143D02*
X57443Y-52629D01*
X57465Y-52686D01*
X57486Y-52714D01*
X57529Y-52743D01*
X57615Y-52743D01*
X57657Y-52714D01*
X57679Y-52686D01*
X57700Y-52629D01*
X57700Y-52143D01*
X58150Y-52743D02*
X57893Y-52743D01*
X58021Y-52743D02*
X58021Y-52143D01*
X57978Y-52229D01*
X57936Y-52286D01*
X57893Y-52314D01*
X58300Y-52143D02*
X58579Y-52143D01*
X58429Y-52371D01*
X58493Y-52371D01*
X58536Y-52400D01*
X58557Y-52429D01*
X58579Y-52486D01*
X58579Y-52629D01*
X58557Y-52686D01*
X58536Y-52714D01*
X58493Y-52743D01*
X58365Y-52743D01*
X58322Y-52714D01*
X58300Y-52686D01*
X60095Y-53143D02*
X60395Y-53143D01*
X60202Y-53743D01*
X60760Y-53343D02*
X60760Y-53743D01*
X60653Y-53114D02*
X60546Y-53543D01*
X60824Y-53543D01*
X61210Y-53743D02*
X60996Y-53743D01*
X60996Y-53143D01*
X61339Y-53714D02*
X61403Y-53743D01*
X61510Y-53743D01*
X61553Y-53714D01*
X61574Y-53686D01*
X61596Y-53629D01*
X61596Y-53571D01*
X61574Y-53514D01*
X61553Y-53486D01*
X61510Y-53457D01*
X61424Y-53429D01*
X61382Y-53400D01*
X61360Y-53371D01*
X61339Y-53314D01*
X61339Y-53257D01*
X61360Y-53200D01*
X61382Y-53171D01*
X61424Y-53143D01*
X61532Y-53143D01*
X61596Y-53171D01*
X62025Y-53743D02*
X61768Y-53743D01*
X61896Y-53743D02*
X61896Y-53143D01*
X61853Y-53229D01*
X61811Y-53286D01*
X61768Y-53314D01*
X62175Y-53143D02*
X62454Y-53143D01*
X62304Y-53371D01*
X62368Y-53371D01*
X62411Y-53400D01*
X62432Y-53429D01*
X62454Y-53486D01*
X62454Y-53629D01*
X62432Y-53686D01*
X62411Y-53714D01*
X62368Y-53743D01*
X62240Y-53743D01*
X62197Y-53714D01*
X62175Y-53686D01*
X62669Y-53743D02*
X62754Y-53743D01*
X62797Y-53714D01*
X62819Y-53686D01*
X62861Y-53600D01*
X62883Y-53486D01*
X62883Y-53257D01*
X62861Y-53200D01*
X62840Y-53171D01*
X62797Y-53143D01*
X62711Y-53143D01*
X62669Y-53171D01*
X62647Y-53200D01*
X62626Y-53257D01*
X62626Y-53400D01*
X62647Y-53457D01*
X62669Y-53486D01*
X62711Y-53514D01*
X62797Y-53514D01*
X62840Y-53486D01*
X62861Y-53457D01*
X62883Y-53400D01*
X67443Y-27143D02*
X67443Y-27629D01*
X67465Y-27686D01*
X67486Y-27714D01*
X67529Y-27743D01*
X67615Y-27743D01*
X67657Y-27714D01*
X67679Y-27686D01*
X67700Y-27629D01*
X67700Y-27143D01*
X68150Y-27743D02*
X67893Y-27743D01*
X68021Y-27743D02*
X68021Y-27143D01*
X67978Y-27229D01*
X67936Y-27286D01*
X67893Y-27314D01*
X68557Y-27143D02*
X68343Y-27143D01*
X68322Y-27429D01*
X68343Y-27400D01*
X68386Y-27371D01*
X68493Y-27371D01*
X68536Y-27400D01*
X68557Y-27429D01*
X68579Y-27486D01*
X68579Y-27629D01*
X68557Y-27686D01*
X68536Y-27714D01*
X68493Y-27743D01*
X68386Y-27743D01*
X68343Y-27714D01*
X68322Y-27686D01*
X70095Y-28143D02*
X70395Y-28143D01*
X70202Y-28743D01*
X70760Y-28343D02*
X70760Y-28743D01*
X70653Y-28114D02*
X70546Y-28543D01*
X70824Y-28543D01*
X71210Y-28743D02*
X70996Y-28743D01*
X70996Y-28143D01*
X71339Y-28714D02*
X71403Y-28743D01*
X71510Y-28743D01*
X71553Y-28714D01*
X71574Y-28686D01*
X71596Y-28629D01*
X71596Y-28571D01*
X71574Y-28514D01*
X71553Y-28486D01*
X71510Y-28457D01*
X71424Y-28429D01*
X71382Y-28400D01*
X71360Y-28371D01*
X71339Y-28314D01*
X71339Y-28257D01*
X71360Y-28200D01*
X71382Y-28171D01*
X71424Y-28143D01*
X71532Y-28143D01*
X71596Y-28171D01*
X72025Y-28743D02*
X71768Y-28743D01*
X71896Y-28743D02*
X71896Y-28143D01*
X71853Y-28229D01*
X71811Y-28286D01*
X71768Y-28314D01*
X72432Y-28143D02*
X72218Y-28143D01*
X72197Y-28429D01*
X72218Y-28400D01*
X72261Y-28371D01*
X72368Y-28371D01*
X72411Y-28400D01*
X72432Y-28429D01*
X72454Y-28486D01*
X72454Y-28629D01*
X72432Y-28686D01*
X72411Y-28714D01*
X72368Y-28743D01*
X72261Y-28743D01*
X72218Y-28714D01*
X72197Y-28686D01*
X72604Y-28143D02*
X72904Y-28143D01*
X72711Y-28743D01*
X67443Y-35643D02*
X67443Y-36129D01*
X67465Y-36186D01*
X67486Y-36214D01*
X67529Y-36243D01*
X67615Y-36243D01*
X67657Y-36214D01*
X67679Y-36186D01*
X67700Y-36129D01*
X67700Y-35643D01*
X68150Y-36243D02*
X67893Y-36243D01*
X68021Y-36243D02*
X68021Y-35643D01*
X67978Y-35729D01*
X67936Y-35786D01*
X67893Y-35814D01*
X68300Y-35643D02*
X68600Y-35643D01*
X68407Y-36243D01*
X70095Y-36643D02*
X70395Y-36643D01*
X70202Y-37243D01*
X70760Y-36843D02*
X70760Y-37243D01*
X70653Y-36614D02*
X70546Y-37043D01*
X70824Y-37043D01*
X71210Y-37243D02*
X70996Y-37243D01*
X70996Y-36643D01*
X71339Y-37214D02*
X71403Y-37243D01*
X71510Y-37243D01*
X71553Y-37214D01*
X71574Y-37186D01*
X71596Y-37129D01*
X71596Y-37071D01*
X71574Y-37014D01*
X71553Y-36986D01*
X71510Y-36957D01*
X71424Y-36929D01*
X71382Y-36900D01*
X71360Y-36871D01*
X71339Y-36814D01*
X71339Y-36757D01*
X71360Y-36700D01*
X71382Y-36671D01*
X71424Y-36643D01*
X71532Y-36643D01*
X71596Y-36671D01*
X72025Y-37243D02*
X71768Y-37243D01*
X71896Y-37243D02*
X71896Y-36643D01*
X71853Y-36729D01*
X71811Y-36786D01*
X71768Y-36814D01*
X72432Y-36643D02*
X72218Y-36643D01*
X72197Y-36929D01*
X72218Y-36900D01*
X72261Y-36871D01*
X72368Y-36871D01*
X72411Y-36900D01*
X72432Y-36929D01*
X72454Y-36986D01*
X72454Y-37129D01*
X72432Y-37186D01*
X72411Y-37214D01*
X72368Y-37243D01*
X72261Y-37243D01*
X72218Y-37214D01*
X72197Y-37186D01*
X72604Y-36643D02*
X72883Y-36643D01*
X72733Y-36871D01*
X72797Y-36871D01*
X72840Y-36900D01*
X72861Y-36929D01*
X72883Y-36986D01*
X72883Y-37129D01*
X72861Y-37186D01*
X72840Y-37214D01*
X72797Y-37243D01*
X72669Y-37243D01*
X72626Y-37214D01*
X72604Y-37186D01*
X67443Y-31643D02*
X67443Y-32129D01*
X67465Y-32186D01*
X67486Y-32214D01*
X67529Y-32243D01*
X67615Y-32243D01*
X67657Y-32214D01*
X67679Y-32186D01*
X67700Y-32129D01*
X67700Y-31643D01*
X68150Y-32243D02*
X67893Y-32243D01*
X68021Y-32243D02*
X68021Y-31643D01*
X67978Y-31729D01*
X67936Y-31786D01*
X67893Y-31814D01*
X68407Y-31900D02*
X68365Y-31871D01*
X68343Y-31843D01*
X68322Y-31786D01*
X68322Y-31757D01*
X68343Y-31700D01*
X68365Y-31671D01*
X68407Y-31643D01*
X68493Y-31643D01*
X68536Y-31671D01*
X68557Y-31700D01*
X68579Y-31757D01*
X68579Y-31786D01*
X68557Y-31843D01*
X68536Y-31871D01*
X68493Y-31900D01*
X68407Y-31900D01*
X68365Y-31929D01*
X68343Y-31957D01*
X68322Y-32014D01*
X68322Y-32129D01*
X68343Y-32186D01*
X68365Y-32214D01*
X68407Y-32243D01*
X68493Y-32243D01*
X68536Y-32214D01*
X68557Y-32186D01*
X68579Y-32129D01*
X68579Y-32014D01*
X68557Y-31957D01*
X68536Y-31929D01*
X68493Y-31900D01*
X70095Y-32643D02*
X70395Y-32643D01*
X70202Y-33243D01*
X70760Y-32843D02*
X70760Y-33243D01*
X70653Y-32614D02*
X70546Y-33043D01*
X70824Y-33043D01*
X71210Y-33243D02*
X70996Y-33243D01*
X70996Y-32643D01*
X71339Y-33214D02*
X71403Y-33243D01*
X71510Y-33243D01*
X71553Y-33214D01*
X71574Y-33186D01*
X71596Y-33129D01*
X71596Y-33071D01*
X71574Y-33014D01*
X71553Y-32986D01*
X71510Y-32957D01*
X71424Y-32929D01*
X71382Y-32900D01*
X71360Y-32871D01*
X71339Y-32814D01*
X71339Y-32757D01*
X71360Y-32700D01*
X71382Y-32671D01*
X71424Y-32643D01*
X71532Y-32643D01*
X71596Y-32671D01*
X72025Y-33243D02*
X71768Y-33243D01*
X71896Y-33243D02*
X71896Y-32643D01*
X71853Y-32729D01*
X71811Y-32786D01*
X71768Y-32814D01*
X72432Y-32643D02*
X72218Y-32643D01*
X72197Y-32929D01*
X72218Y-32900D01*
X72261Y-32871D01*
X72368Y-32871D01*
X72411Y-32900D01*
X72432Y-32929D01*
X72454Y-32986D01*
X72454Y-33129D01*
X72432Y-33186D01*
X72411Y-33214D01*
X72368Y-33243D01*
X72261Y-33243D01*
X72218Y-33214D01*
X72197Y-33186D01*
X72604Y-32643D02*
X72883Y-32643D01*
X72733Y-32871D01*
X72797Y-32871D01*
X72840Y-32900D01*
X72861Y-32929D01*
X72883Y-32986D01*
X72883Y-33129D01*
X72861Y-33186D01*
X72840Y-33214D01*
X72797Y-33243D01*
X72669Y-33243D01*
X72626Y-33214D01*
X72604Y-33186D01*
X67443Y-40143D02*
X67443Y-40629D01*
X67465Y-40686D01*
X67486Y-40714D01*
X67529Y-40743D01*
X67615Y-40743D01*
X67657Y-40714D01*
X67679Y-40686D01*
X67700Y-40629D01*
X67700Y-40143D01*
X68150Y-40743D02*
X67893Y-40743D01*
X68021Y-40743D02*
X68021Y-40143D01*
X67978Y-40229D01*
X67936Y-40286D01*
X67893Y-40314D01*
X68365Y-40743D02*
X68450Y-40743D01*
X68493Y-40714D01*
X68515Y-40686D01*
X68557Y-40600D01*
X68579Y-40486D01*
X68579Y-40257D01*
X68557Y-40200D01*
X68536Y-40171D01*
X68493Y-40143D01*
X68407Y-40143D01*
X68365Y-40171D01*
X68343Y-40200D01*
X68322Y-40257D01*
X68322Y-40400D01*
X68343Y-40457D01*
X68365Y-40486D01*
X68407Y-40514D01*
X68493Y-40514D01*
X68536Y-40486D01*
X68557Y-40457D01*
X68579Y-40400D01*
X70095Y-41143D02*
X70395Y-41143D01*
X70202Y-41743D01*
X70760Y-41343D02*
X70760Y-41743D01*
X70653Y-41114D02*
X70546Y-41543D01*
X70824Y-41543D01*
X71210Y-41743D02*
X70996Y-41743D01*
X70996Y-41143D01*
X71339Y-41714D02*
X71403Y-41743D01*
X71510Y-41743D01*
X71553Y-41714D01*
X71574Y-41686D01*
X71596Y-41629D01*
X71596Y-41571D01*
X71574Y-41514D01*
X71553Y-41486D01*
X71510Y-41457D01*
X71424Y-41429D01*
X71382Y-41400D01*
X71360Y-41371D01*
X71339Y-41314D01*
X71339Y-41257D01*
X71360Y-41200D01*
X71382Y-41171D01*
X71424Y-41143D01*
X71532Y-41143D01*
X71596Y-41171D01*
X72025Y-41743D02*
X71768Y-41743D01*
X71896Y-41743D02*
X71896Y-41143D01*
X71853Y-41229D01*
X71811Y-41286D01*
X71768Y-41314D01*
X72432Y-41143D02*
X72218Y-41143D01*
X72197Y-41429D01*
X72218Y-41400D01*
X72261Y-41371D01*
X72368Y-41371D01*
X72411Y-41400D01*
X72432Y-41429D01*
X72454Y-41486D01*
X72454Y-41629D01*
X72432Y-41686D01*
X72411Y-41714D01*
X72368Y-41743D01*
X72261Y-41743D01*
X72218Y-41714D01*
X72197Y-41686D01*
X72604Y-41143D02*
X72883Y-41143D01*
X72733Y-41371D01*
X72797Y-41371D01*
X72840Y-41400D01*
X72861Y-41429D01*
X72883Y-41486D01*
X72883Y-41629D01*
X72861Y-41686D01*
X72840Y-41714D01*
X72797Y-41743D01*
X72669Y-41743D01*
X72626Y-41714D01*
X72604Y-41686D01*
X43943Y-54643D02*
X43943Y-55129D01*
X43965Y-55186D01*
X43986Y-55214D01*
X44029Y-55243D01*
X44115Y-55243D01*
X44157Y-55214D01*
X44179Y-55186D01*
X44200Y-55129D01*
X44200Y-54643D01*
X44371Y-54643D02*
X44650Y-54643D01*
X44500Y-54871D01*
X44564Y-54871D01*
X44607Y-54900D01*
X44628Y-54929D01*
X44650Y-54986D01*
X44650Y-55129D01*
X44628Y-55186D01*
X44607Y-55214D01*
X44564Y-55243D01*
X44436Y-55243D01*
X44393Y-55214D01*
X44371Y-55186D01*
X44822Y-54700D02*
X44843Y-54671D01*
X44886Y-54643D01*
X44993Y-54643D01*
X45036Y-54671D01*
X45057Y-54700D01*
X45079Y-54757D01*
X45079Y-54814D01*
X45057Y-54900D01*
X44800Y-55243D01*
X45079Y-55243D01*
X46799Y-56243D02*
X46799Y-55643D01*
X46949Y-56071D01*
X47099Y-55643D01*
X47099Y-56243D01*
X47292Y-56071D02*
X47506Y-56071D01*
X47249Y-56243D02*
X47399Y-55643D01*
X47549Y-56243D01*
X47656Y-55643D02*
X47956Y-56243D01*
X47956Y-55643D02*
X47656Y-56243D01*
X48107Y-55700D02*
X48128Y-55671D01*
X48171Y-55643D01*
X48278Y-55643D01*
X48321Y-55671D01*
X48342Y-55700D01*
X48364Y-55757D01*
X48364Y-55814D01*
X48342Y-55900D01*
X48085Y-56243D01*
X48364Y-56243D01*
X48514Y-55643D02*
X48793Y-55643D01*
X48643Y-55871D01*
X48707Y-55871D01*
X48750Y-55900D01*
X48771Y-55929D01*
X48793Y-55986D01*
X48793Y-56129D01*
X48771Y-56186D01*
X48750Y-56214D01*
X48707Y-56243D01*
X48579Y-56243D01*
X48536Y-56214D01*
X48514Y-56186D01*
X48965Y-55700D02*
X48986Y-55671D01*
X49029Y-55643D01*
X49136Y-55643D01*
X49179Y-55671D01*
X49200Y-55700D01*
X49222Y-55757D01*
X49222Y-55814D01*
X49200Y-55900D01*
X48943Y-56243D01*
X49222Y-56243D01*
G54D12*
X49583Y-47866D02*
X50150Y-47866D01*
X50217Y-47833D01*
X50250Y-47800D01*
X50283Y-47733D01*
X50283Y-47600D01*
X50250Y-47533D01*
X50217Y-47500D01*
X50150Y-47466D01*
X49583Y-47466D01*
X49583Y-47200D02*
X49583Y-46767D01*
X49850Y-47000D01*
X49850Y-46900D01*
X49883Y-46833D01*
X49917Y-46800D01*
X49983Y-46767D01*
X50150Y-46767D01*
X50217Y-46800D01*
X50250Y-46833D01*
X50283Y-46900D01*
X50283Y-47100D01*
X50250Y-47167D01*
X50217Y-47200D01*
X49583Y-46333D02*
X49583Y-46266D01*
X49617Y-46200D01*
X49650Y-46166D01*
X49717Y-46133D01*
X49850Y-46100D01*
X50017Y-46100D01*
X50150Y-46133D01*
X50217Y-46166D01*
X50250Y-46200D01*
X50283Y-46266D01*
X50283Y-46333D01*
X50250Y-46400D01*
X50217Y-46433D01*
X50150Y-46466D01*
X50017Y-46500D01*
X49850Y-46500D01*
X49717Y-46466D01*
X49650Y-46433D01*
X49617Y-46400D01*
X49583Y-46333D01*
X43749Y-49187D02*
X43749Y-49500D01*
X43749Y-49344D02*
X43135Y-49344D01*
X43222Y-49396D01*
X43281Y-49448D01*
X43310Y-49500D01*
X43135Y-48716D02*
X43135Y-48821D01*
X43164Y-48873D01*
X43193Y-48899D01*
X43281Y-48951D01*
X43398Y-48977D01*
X43632Y-48977D01*
X43690Y-48951D01*
X43719Y-48925D01*
X43749Y-48873D01*
X43749Y-48768D01*
X43719Y-48716D01*
X43690Y-48690D01*
X43632Y-48664D01*
X43485Y-48664D01*
X43427Y-48690D01*
X43398Y-48716D01*
X43368Y-48768D01*
X43368Y-48873D01*
X43398Y-48925D01*
X43427Y-48951D01*
X43485Y-48977D01*
X43690Y-48115D02*
X43719Y-48141D01*
X43749Y-48219D01*
X43749Y-48271D01*
X43719Y-48350D01*
X43661Y-48402D01*
X43602Y-48428D01*
X43485Y-48454D01*
X43398Y-48454D01*
X43281Y-48428D01*
X43222Y-48402D01*
X43164Y-48350D01*
X43135Y-48271D01*
X43135Y-48219D01*
X43164Y-48141D01*
X43193Y-48115D01*
X43135Y-47618D02*
X43135Y-47879D01*
X43427Y-47905D01*
X43398Y-47879D01*
X43368Y-47827D01*
X43368Y-47696D01*
X43398Y-47644D01*
X43427Y-47618D01*
X43485Y-47592D01*
X43632Y-47592D01*
X43690Y-47618D01*
X43719Y-47644D01*
X43749Y-47696D01*
X43749Y-47827D01*
X43719Y-47879D01*
X43690Y-47905D01*
X43135Y-47095D02*
X43135Y-47356D01*
X43427Y-47382D01*
X43398Y-47356D01*
X43368Y-47304D01*
X43368Y-47173D01*
X43398Y-47121D01*
X43427Y-47095D01*
X43485Y-47069D01*
X43632Y-47069D01*
X43690Y-47095D01*
X43719Y-47121D01*
X43749Y-47173D01*
X43749Y-47304D01*
X43719Y-47356D01*
X43690Y-47382D01*
X43135Y-46729D02*
X43135Y-46676D01*
X43164Y-46624D01*
X43193Y-46598D01*
X43251Y-46572D01*
X43368Y-46546D01*
X43515Y-46546D01*
X43632Y-46572D01*
X43690Y-46598D01*
X43719Y-46624D01*
X43749Y-46676D01*
X43749Y-46729D01*
X43719Y-46781D01*
X43690Y-46807D01*
X43632Y-46833D01*
X43515Y-46859D01*
X43368Y-46859D01*
X43251Y-46833D01*
X43193Y-46807D01*
X43164Y-46781D01*
X43135Y-46729D01*
X43427Y-46127D02*
X43427Y-46310D01*
X43749Y-46310D02*
X43135Y-46310D01*
X43135Y-46049D01*
X43749Y-45839D02*
X43135Y-45839D01*
X43749Y-45526D01*
X43135Y-45526D01*
G54D18*
X78157Y-42583D02*
X78157Y-43150D01*
X78179Y-43217D01*
X78200Y-43250D01*
X78243Y-43283D01*
X78329Y-43283D01*
X78371Y-43250D01*
X78393Y-43217D01*
X78414Y-43150D01*
X78414Y-42583D01*
X78864Y-43283D02*
X78607Y-43283D01*
X78735Y-43283D02*
X78735Y-42583D01*
X78692Y-42683D01*
X78650Y-42750D01*
X78607Y-42783D01*
X83095Y-43583D02*
X83395Y-43583D01*
X83202Y-44283D01*
X83760Y-43817D02*
X83760Y-44283D01*
X83653Y-43550D02*
X83546Y-44050D01*
X83824Y-44050D01*
X84210Y-44283D02*
X83996Y-44283D01*
X83996Y-43583D01*
X84339Y-44250D02*
X84403Y-44283D01*
X84510Y-44283D01*
X84553Y-44250D01*
X84574Y-44217D01*
X84596Y-44150D01*
X84596Y-44083D01*
X84574Y-44017D01*
X84553Y-43983D01*
X84510Y-43950D01*
X84424Y-43917D01*
X84382Y-43883D01*
X84360Y-43850D01*
X84339Y-43783D01*
X84339Y-43717D01*
X84360Y-43650D01*
X84382Y-43617D01*
X84424Y-43583D01*
X84532Y-43583D01*
X84596Y-43617D01*
X84768Y-43650D02*
X84789Y-43617D01*
X84832Y-43583D01*
X84939Y-43583D01*
X84982Y-43617D01*
X85003Y-43650D01*
X85025Y-43717D01*
X85025Y-43783D01*
X85003Y-43883D01*
X84746Y-44283D01*
X85025Y-44283D01*
X85411Y-43817D02*
X85411Y-44283D01*
X85304Y-43550D02*
X85197Y-44050D01*
X85475Y-44050D01*
X85733Y-43583D02*
X85776Y-43583D01*
X85819Y-43617D01*
X85840Y-43650D01*
X85861Y-43717D01*
X85883Y-43850D01*
X85883Y-44017D01*
X85861Y-44150D01*
X85840Y-44217D01*
X85819Y-44250D01*
X85776Y-44283D01*
X85733Y-44283D01*
X85690Y-44250D01*
X85669Y-44217D01*
X85647Y-44150D01*
X85626Y-44017D01*
X85626Y-43850D01*
X85647Y-43717D01*
X85669Y-43650D01*
X85690Y-43617D01*
X85733Y-43583D01*
X78157Y-56583D02*
X78157Y-57150D01*
X78179Y-57217D01*
X78200Y-57250D01*
X78243Y-57283D01*
X78329Y-57283D01*
X78371Y-57250D01*
X78393Y-57217D01*
X78414Y-57150D01*
X78414Y-56583D01*
X78842Y-56583D02*
X78628Y-56583D01*
X78607Y-56917D01*
X78628Y-56883D01*
X78671Y-56850D01*
X78778Y-56850D01*
X78821Y-56883D01*
X78842Y-56917D01*
X78864Y-56983D01*
X78864Y-57150D01*
X78842Y-57217D01*
X78821Y-57250D01*
X78778Y-57283D01*
X78671Y-57283D01*
X78628Y-57250D01*
X78607Y-57217D01*
X83095Y-57583D02*
X83395Y-57583D01*
X83202Y-58283D01*
X83760Y-57817D02*
X83760Y-58283D01*
X83653Y-57550D02*
X83546Y-58050D01*
X83824Y-58050D01*
X84210Y-58283D02*
X83996Y-58283D01*
X83996Y-57583D01*
X84339Y-58250D02*
X84403Y-58283D01*
X84510Y-58283D01*
X84553Y-58250D01*
X84574Y-58217D01*
X84596Y-58150D01*
X84596Y-58083D01*
X84574Y-58017D01*
X84553Y-57983D01*
X84510Y-57950D01*
X84424Y-57917D01*
X84382Y-57883D01*
X84360Y-57850D01*
X84339Y-57783D01*
X84339Y-57717D01*
X84360Y-57650D01*
X84382Y-57617D01*
X84424Y-57583D01*
X84532Y-57583D01*
X84596Y-57617D01*
X84768Y-57650D02*
X84789Y-57617D01*
X84832Y-57583D01*
X84939Y-57583D01*
X84982Y-57617D01*
X85003Y-57650D01*
X85025Y-57717D01*
X85025Y-57783D01*
X85003Y-57883D01*
X84746Y-58283D01*
X85025Y-58283D01*
X85411Y-57817D02*
X85411Y-58283D01*
X85304Y-57550D02*
X85197Y-58050D01*
X85475Y-58050D01*
X85840Y-57817D02*
X85840Y-58283D01*
X85733Y-57550D02*
X85626Y-58050D01*
X85904Y-58050D01*
X78157Y-32083D02*
X78157Y-32650D01*
X78179Y-32717D01*
X78200Y-32750D01*
X78243Y-32783D01*
X78329Y-32783D01*
X78371Y-32750D01*
X78393Y-32717D01*
X78414Y-32650D01*
X78414Y-32083D01*
X78821Y-32083D02*
X78735Y-32083D01*
X78692Y-32117D01*
X78671Y-32150D01*
X78628Y-32250D01*
X78607Y-32383D01*
X78607Y-32650D01*
X78628Y-32717D01*
X78650Y-32750D01*
X78692Y-32783D01*
X78778Y-32783D01*
X78821Y-32750D01*
X78842Y-32717D01*
X78864Y-32650D01*
X78864Y-32483D01*
X78842Y-32417D01*
X78821Y-32383D01*
X78778Y-32350D01*
X78692Y-32350D01*
X78650Y-32383D01*
X78628Y-32417D01*
X78607Y-32483D01*
X83095Y-33083D02*
X83395Y-33083D01*
X83202Y-33783D01*
X83760Y-33317D02*
X83760Y-33783D01*
X83653Y-33050D02*
X83546Y-33550D01*
X83824Y-33550D01*
X84210Y-33783D02*
X83996Y-33783D01*
X83996Y-33083D01*
X84339Y-33750D02*
X84403Y-33783D01*
X84510Y-33783D01*
X84553Y-33750D01*
X84574Y-33717D01*
X84596Y-33650D01*
X84596Y-33583D01*
X84574Y-33517D01*
X84553Y-33483D01*
X84510Y-33450D01*
X84424Y-33417D01*
X84382Y-33383D01*
X84360Y-33350D01*
X84339Y-33283D01*
X84339Y-33217D01*
X84360Y-33150D01*
X84382Y-33117D01*
X84424Y-33083D01*
X84532Y-33083D01*
X84596Y-33117D01*
X84768Y-33150D02*
X84789Y-33117D01*
X84832Y-33083D01*
X84939Y-33083D01*
X84982Y-33117D01*
X85003Y-33150D01*
X85025Y-33217D01*
X85025Y-33283D01*
X85003Y-33383D01*
X84746Y-33783D01*
X85025Y-33783D01*
X85411Y-33317D02*
X85411Y-33783D01*
X85304Y-33050D02*
X85197Y-33550D01*
X85475Y-33550D01*
X85840Y-33317D02*
X85840Y-33783D01*
X85733Y-33050D02*
X85626Y-33550D01*
X85904Y-33550D01*
X78157Y-52083D02*
X78157Y-52650D01*
X78179Y-52717D01*
X78200Y-52750D01*
X78243Y-52783D01*
X78329Y-52783D01*
X78371Y-52750D01*
X78393Y-52717D01*
X78414Y-52650D01*
X78414Y-52083D01*
X78692Y-52383D02*
X78650Y-52350D01*
X78628Y-52317D01*
X78607Y-52250D01*
X78607Y-52217D01*
X78628Y-52150D01*
X78650Y-52117D01*
X78692Y-52083D01*
X78778Y-52083D01*
X78821Y-52117D01*
X78842Y-52150D01*
X78864Y-52217D01*
X78864Y-52250D01*
X78842Y-52317D01*
X78821Y-52350D01*
X78778Y-52383D01*
X78692Y-52383D01*
X78650Y-52417D01*
X78628Y-52450D01*
X78607Y-52517D01*
X78607Y-52650D01*
X78628Y-52717D01*
X78650Y-52750D01*
X78692Y-52783D01*
X78778Y-52783D01*
X78821Y-52750D01*
X78842Y-52717D01*
X78864Y-52650D01*
X78864Y-52517D01*
X78842Y-52450D01*
X78821Y-52417D01*
X78778Y-52383D01*
X83095Y-53083D02*
X83395Y-53083D01*
X83202Y-53783D01*
X83760Y-53317D02*
X83760Y-53783D01*
X83653Y-53050D02*
X83546Y-53550D01*
X83824Y-53550D01*
X84210Y-53783D02*
X83996Y-53783D01*
X83996Y-53083D01*
X84339Y-53750D02*
X84403Y-53783D01*
X84510Y-53783D01*
X84553Y-53750D01*
X84574Y-53717D01*
X84596Y-53650D01*
X84596Y-53583D01*
X84574Y-53517D01*
X84553Y-53483D01*
X84510Y-53450D01*
X84424Y-53417D01*
X84382Y-53383D01*
X84360Y-53350D01*
X84339Y-53283D01*
X84339Y-53217D01*
X84360Y-53150D01*
X84382Y-53117D01*
X84424Y-53083D01*
X84532Y-53083D01*
X84596Y-53117D01*
X84768Y-53150D02*
X84789Y-53117D01*
X84832Y-53083D01*
X84939Y-53083D01*
X84982Y-53117D01*
X85003Y-53150D01*
X85025Y-53217D01*
X85025Y-53283D01*
X85003Y-53383D01*
X84746Y-53783D01*
X85025Y-53783D01*
X85411Y-53317D02*
X85411Y-53783D01*
X85304Y-53050D02*
X85197Y-53550D01*
X85475Y-53550D01*
X85840Y-53317D02*
X85840Y-53783D01*
X85733Y-53050D02*
X85626Y-53550D01*
X85904Y-53550D01*
X78157Y-36583D02*
X78157Y-37150D01*
X78179Y-37217D01*
X78200Y-37250D01*
X78243Y-37283D01*
X78329Y-37283D01*
X78371Y-37250D01*
X78393Y-37217D01*
X78414Y-37150D01*
X78414Y-36583D01*
X78650Y-37283D02*
X78735Y-37283D01*
X78778Y-37250D01*
X78800Y-37217D01*
X78842Y-37117D01*
X78864Y-36983D01*
X78864Y-36717D01*
X78842Y-36650D01*
X78821Y-36617D01*
X78778Y-36583D01*
X78692Y-36583D01*
X78650Y-36617D01*
X78628Y-36650D01*
X78607Y-36717D01*
X78607Y-36883D01*
X78628Y-36950D01*
X78650Y-36983D01*
X78692Y-37017D01*
X78778Y-37017D01*
X78821Y-36983D01*
X78842Y-36950D01*
X78864Y-36883D01*
X83095Y-37583D02*
X83395Y-37583D01*
X83202Y-38283D01*
X83760Y-37817D02*
X83760Y-38283D01*
X83653Y-37550D02*
X83546Y-38050D01*
X83824Y-38050D01*
X84210Y-38283D02*
X83996Y-38283D01*
X83996Y-37583D01*
X84339Y-38250D02*
X84403Y-38283D01*
X84510Y-38283D01*
X84553Y-38250D01*
X84574Y-38217D01*
X84596Y-38150D01*
X84596Y-38083D01*
X84574Y-38017D01*
X84553Y-37983D01*
X84510Y-37950D01*
X84424Y-37917D01*
X84382Y-37883D01*
X84360Y-37850D01*
X84339Y-37783D01*
X84339Y-37717D01*
X84360Y-37650D01*
X84382Y-37617D01*
X84424Y-37583D01*
X84532Y-37583D01*
X84596Y-37617D01*
X84982Y-37583D02*
X84896Y-37583D01*
X84853Y-37617D01*
X84832Y-37650D01*
X84789Y-37750D01*
X84768Y-37883D01*
X84768Y-38150D01*
X84789Y-38217D01*
X84811Y-38250D01*
X84853Y-38283D01*
X84939Y-38283D01*
X84982Y-38250D01*
X85003Y-38217D01*
X85025Y-38150D01*
X85025Y-37983D01*
X85003Y-37917D01*
X84982Y-37883D01*
X84939Y-37850D01*
X84853Y-37850D01*
X84811Y-37883D01*
X84789Y-37917D01*
X84768Y-37983D01*
X85282Y-37883D02*
X85240Y-37850D01*
X85218Y-37817D01*
X85197Y-37750D01*
X85197Y-37717D01*
X85218Y-37650D01*
X85240Y-37617D01*
X85282Y-37583D01*
X85368Y-37583D01*
X85411Y-37617D01*
X85432Y-37650D01*
X85454Y-37717D01*
X85454Y-37750D01*
X85432Y-37817D01*
X85411Y-37850D01*
X85368Y-37883D01*
X85282Y-37883D01*
X85240Y-37917D01*
X85218Y-37950D01*
X85197Y-38017D01*
X85197Y-38150D01*
X85218Y-38217D01*
X85240Y-38250D01*
X85282Y-38283D01*
X85368Y-38283D01*
X85411Y-38250D01*
X85432Y-38217D01*
X85454Y-38150D01*
X85454Y-38017D01*
X85432Y-37950D01*
X85411Y-37917D01*
X85368Y-37883D01*
X85711Y-37883D02*
X85669Y-37850D01*
X85647Y-37817D01*
X85626Y-37750D01*
X85626Y-37717D01*
X85647Y-37650D01*
X85669Y-37617D01*
X85711Y-37583D01*
X85797Y-37583D01*
X85840Y-37617D01*
X85861Y-37650D01*
X85883Y-37717D01*
X85883Y-37750D01*
X85861Y-37817D01*
X85840Y-37850D01*
X85797Y-37883D01*
X85711Y-37883D01*
X85669Y-37917D01*
X85647Y-37950D01*
X85626Y-38017D01*
X85626Y-38150D01*
X85647Y-38217D01*
X85669Y-38250D01*
X85711Y-38283D01*
X85797Y-38283D01*
X85840Y-38250D01*
X85861Y-38217D01*
X85883Y-38150D01*
X85883Y-38017D01*
X85861Y-37950D01*
X85840Y-37917D01*
X85797Y-37883D01*
X77943Y-27583D02*
X77943Y-28150D01*
X77965Y-28217D01*
X77986Y-28250D01*
X78029Y-28283D01*
X78115Y-28283D01*
X78157Y-28250D01*
X78179Y-28217D01*
X78200Y-28150D01*
X78200Y-27583D01*
X78650Y-28283D02*
X78393Y-28283D01*
X78521Y-28283D02*
X78521Y-27583D01*
X78478Y-27683D01*
X78436Y-27750D01*
X78393Y-27783D01*
X79036Y-27817D02*
X79036Y-28283D01*
X78929Y-27550D02*
X78822Y-28050D01*
X79100Y-28050D01*
X83095Y-28583D02*
X83395Y-28583D01*
X83202Y-29283D01*
X83760Y-28817D02*
X83760Y-29283D01*
X83653Y-28550D02*
X83546Y-29050D01*
X83824Y-29050D01*
X84210Y-29283D02*
X83996Y-29283D01*
X83996Y-28583D01*
X84339Y-29250D02*
X84403Y-29283D01*
X84510Y-29283D01*
X84553Y-29250D01*
X84574Y-29217D01*
X84596Y-29150D01*
X84596Y-29083D01*
X84574Y-29017D01*
X84553Y-28983D01*
X84510Y-28950D01*
X84424Y-28917D01*
X84382Y-28883D01*
X84360Y-28850D01*
X84339Y-28783D01*
X84339Y-28717D01*
X84360Y-28650D01*
X84382Y-28617D01*
X84424Y-28583D01*
X84532Y-28583D01*
X84596Y-28617D01*
X84768Y-28650D02*
X84789Y-28617D01*
X84832Y-28583D01*
X84939Y-28583D01*
X84982Y-28617D01*
X85003Y-28650D01*
X85025Y-28717D01*
X85025Y-28783D01*
X85003Y-28883D01*
X84746Y-29283D01*
X85025Y-29283D01*
X85411Y-28817D02*
X85411Y-29283D01*
X85304Y-28550D02*
X85197Y-29050D01*
X85475Y-29050D01*
X85861Y-28583D02*
X85647Y-28583D01*
X85626Y-28917D01*
X85647Y-28883D01*
X85690Y-28850D01*
X85797Y-28850D01*
X85840Y-28883D01*
X85861Y-28917D01*
X85883Y-28983D01*
X85883Y-29150D01*
X85861Y-29217D01*
X85840Y-29250D01*
X85797Y-29283D01*
X85690Y-29283D01*
X85647Y-29250D01*
X85626Y-29217D01*
X77943Y-47083D02*
X77943Y-47650D01*
X77965Y-47717D01*
X77986Y-47750D01*
X78029Y-47783D01*
X78115Y-47783D01*
X78157Y-47750D01*
X78179Y-47717D01*
X78200Y-47650D01*
X78200Y-47083D01*
X78650Y-47783D02*
X78393Y-47783D01*
X78521Y-47783D02*
X78521Y-47083D01*
X78478Y-47183D01*
X78436Y-47250D01*
X78393Y-47283D01*
X79036Y-47083D02*
X78950Y-47083D01*
X78907Y-47117D01*
X78886Y-47150D01*
X78843Y-47250D01*
X78822Y-47383D01*
X78822Y-47650D01*
X78843Y-47717D01*
X78865Y-47750D01*
X78907Y-47783D01*
X78993Y-47783D01*
X79036Y-47750D01*
X79057Y-47717D01*
X79079Y-47650D01*
X79079Y-47483D01*
X79057Y-47417D01*
X79036Y-47383D01*
X78993Y-47350D01*
X78907Y-47350D01*
X78865Y-47383D01*
X78843Y-47417D01*
X78822Y-47483D01*
X83095Y-48083D02*
X83395Y-48083D01*
X83202Y-48783D01*
X83760Y-48317D02*
X83760Y-48783D01*
X83653Y-48050D02*
X83546Y-48550D01*
X83824Y-48550D01*
X84210Y-48783D02*
X83996Y-48783D01*
X83996Y-48083D01*
X84339Y-48750D02*
X84403Y-48783D01*
X84510Y-48783D01*
X84553Y-48750D01*
X84574Y-48717D01*
X84596Y-48650D01*
X84596Y-48583D01*
X84574Y-48517D01*
X84553Y-48483D01*
X84510Y-48450D01*
X84424Y-48417D01*
X84382Y-48383D01*
X84360Y-48350D01*
X84339Y-48283D01*
X84339Y-48217D01*
X84360Y-48150D01*
X84382Y-48117D01*
X84424Y-48083D01*
X84532Y-48083D01*
X84596Y-48117D01*
X84768Y-48150D02*
X84789Y-48117D01*
X84832Y-48083D01*
X84939Y-48083D01*
X84982Y-48117D01*
X85003Y-48150D01*
X85025Y-48217D01*
X85025Y-48283D01*
X85003Y-48383D01*
X84746Y-48783D01*
X85025Y-48783D01*
X85175Y-48083D02*
X85475Y-48083D01*
X85282Y-48783D01*
X85604Y-48083D02*
X85883Y-48083D01*
X85733Y-48350D01*
X85797Y-48350D01*
X85840Y-48383D01*
X85861Y-48417D01*
X85883Y-48483D01*
X85883Y-48650D01*
X85861Y-48717D01*
X85840Y-48750D01*
X85797Y-48783D01*
X85669Y-48783D01*
X85626Y-48750D01*
X85604Y-48717D01*
X77943Y-23083D02*
X77943Y-23650D01*
X77965Y-23717D01*
X77986Y-23750D01*
X78029Y-23783D01*
X78115Y-23783D01*
X78157Y-23750D01*
X78179Y-23717D01*
X78200Y-23650D01*
X78200Y-23083D01*
X78393Y-23150D02*
X78414Y-23117D01*
X78457Y-23083D01*
X78564Y-23083D01*
X78607Y-23117D01*
X78628Y-23150D01*
X78650Y-23217D01*
X78650Y-23283D01*
X78628Y-23383D01*
X78371Y-23783D01*
X78650Y-23783D01*
X78929Y-23083D02*
X78972Y-23083D01*
X79015Y-23117D01*
X79036Y-23150D01*
X79057Y-23217D01*
X79079Y-23350D01*
X79079Y-23517D01*
X79057Y-23650D01*
X79036Y-23717D01*
X79015Y-23750D01*
X78972Y-23783D01*
X78929Y-23783D01*
X78886Y-23750D01*
X78865Y-23717D01*
X78843Y-23650D01*
X78822Y-23517D01*
X78822Y-23350D01*
X78843Y-23217D01*
X78865Y-23150D01*
X78886Y-23117D01*
X78929Y-23083D01*
X83095Y-24083D02*
X83395Y-24083D01*
X83202Y-24783D01*
X83760Y-24317D02*
X83760Y-24783D01*
X83653Y-24050D02*
X83546Y-24550D01*
X83824Y-24550D01*
X84210Y-24783D02*
X83996Y-24783D01*
X83996Y-24083D01*
X84339Y-24750D02*
X84403Y-24783D01*
X84510Y-24783D01*
X84553Y-24750D01*
X84574Y-24717D01*
X84596Y-24650D01*
X84596Y-24583D01*
X84574Y-24517D01*
X84553Y-24483D01*
X84510Y-24450D01*
X84424Y-24417D01*
X84382Y-24383D01*
X84360Y-24350D01*
X84339Y-24283D01*
X84339Y-24217D01*
X84360Y-24150D01*
X84382Y-24117D01*
X84424Y-24083D01*
X84532Y-24083D01*
X84596Y-24117D01*
X84768Y-24150D02*
X84789Y-24117D01*
X84832Y-24083D01*
X84939Y-24083D01*
X84982Y-24117D01*
X85003Y-24150D01*
X85025Y-24217D01*
X85025Y-24283D01*
X85003Y-24383D01*
X84746Y-24783D01*
X85025Y-24783D01*
X85411Y-24317D02*
X85411Y-24783D01*
X85304Y-24050D02*
X85197Y-24550D01*
X85475Y-24550D01*
X85840Y-24317D02*
X85840Y-24783D01*
X85733Y-24050D02*
X85626Y-24550D01*
X85904Y-24550D01*
X41943Y-54083D02*
X41943Y-54650D01*
X41965Y-54717D01*
X41986Y-54750D01*
X42029Y-54783D01*
X42115Y-54783D01*
X42157Y-54750D01*
X42179Y-54717D01*
X42200Y-54650D01*
X42200Y-54083D01*
X42371Y-54083D02*
X42650Y-54083D01*
X42500Y-54350D01*
X42564Y-54350D01*
X42607Y-54383D01*
X42628Y-54417D01*
X42650Y-54483D01*
X42650Y-54650D01*
X42628Y-54717D01*
X42607Y-54750D01*
X42564Y-54783D01*
X42436Y-54783D01*
X42393Y-54750D01*
X42371Y-54717D01*
X42800Y-54083D02*
X43079Y-54083D01*
X42929Y-54350D01*
X42993Y-54350D01*
X43036Y-54383D01*
X43057Y-54417D01*
X43079Y-54483D01*
X43079Y-54650D01*
X43057Y-54717D01*
X43036Y-54750D01*
X42993Y-54783D01*
X42865Y-54783D01*
X42822Y-54750D01*
X42800Y-54717D01*
G54D12*
X47267Y-57283D02*
X47267Y-56583D01*
X47483Y-57083D01*
X47700Y-56583D01*
X47700Y-57283D01*
X47979Y-57083D02*
X48288Y-57083D01*
X47917Y-57283D02*
X48134Y-56583D01*
X48350Y-57283D01*
X48505Y-56583D02*
X48938Y-57283D01*
X48938Y-56583D02*
X48505Y-57283D01*
X49155Y-56650D02*
X49186Y-56617D01*
X49248Y-56583D01*
X49402Y-56583D01*
X49464Y-56617D01*
X49495Y-56650D01*
X49526Y-56717D01*
X49526Y-56783D01*
X49495Y-56883D01*
X49124Y-57283D01*
X49526Y-57283D01*
X49743Y-56583D02*
X50145Y-56583D01*
X49929Y-56850D01*
X50021Y-56850D01*
X50083Y-56883D01*
X50114Y-56917D01*
X50145Y-56983D01*
X50145Y-57150D01*
X50114Y-57217D01*
X50083Y-57250D01*
X50021Y-57283D01*
X49836Y-57283D01*
X49774Y-57250D01*
X49743Y-57217D01*
X50733Y-56583D02*
X50424Y-56583D01*
X50393Y-56917D01*
X50424Y-56883D01*
X50486Y-56850D01*
X50640Y-56850D01*
X50702Y-56883D01*
X50733Y-56917D01*
X50764Y-56983D01*
X50764Y-57150D01*
X50733Y-57217D01*
X50702Y-57250D01*
X50640Y-57283D01*
X50486Y-57283D01*
X50424Y-57250D01*
X50393Y-57217D01*
G54D15*
X49202Y-39843D02*
X49607Y-39843D01*
X49655Y-39821D01*
X49679Y-39800D01*
X49702Y-39757D01*
X49702Y-39671D01*
X49679Y-39629D01*
X49655Y-39607D01*
X49607Y-39586D01*
X49202Y-39586D01*
X49202Y-39415D02*
X49202Y-39115D01*
X49702Y-39308D01*
X50943Y-39702D02*
X50943Y-39202D01*
X51038Y-39202D01*
X51096Y-39226D01*
X51134Y-39274D01*
X51153Y-39321D01*
X51172Y-39417D01*
X51172Y-39488D01*
X51153Y-39583D01*
X51134Y-39631D01*
X51096Y-39679D01*
X51038Y-39702D01*
X50943Y-39702D01*
X51324Y-39679D02*
X51381Y-39702D01*
X51477Y-39702D01*
X51515Y-39679D01*
X51534Y-39655D01*
X51553Y-39607D01*
X51553Y-39560D01*
X51534Y-39512D01*
X51515Y-39488D01*
X51477Y-39464D01*
X51400Y-39440D01*
X51362Y-39417D01*
X51343Y-39393D01*
X51324Y-39345D01*
X51324Y-39298D01*
X51343Y-39250D01*
X51362Y-39226D01*
X51400Y-39202D01*
X51496Y-39202D01*
X51553Y-39226D01*
X51934Y-39702D02*
X51705Y-39702D01*
X51819Y-39702D02*
X51819Y-39202D01*
X51781Y-39274D01*
X51743Y-39321D01*
X51705Y-39345D01*
X52067Y-39202D02*
X52315Y-39202D01*
X52181Y-39393D01*
X52239Y-39393D01*
X52277Y-39417D01*
X52296Y-39440D01*
X52315Y-39488D01*
X52315Y-39607D01*
X52296Y-39655D01*
X52277Y-39679D01*
X52239Y-39702D01*
X52124Y-39702D01*
X52086Y-39679D01*
X52067Y-39655D01*
X52562Y-39202D02*
X52601Y-39202D01*
X52639Y-39226D01*
X52658Y-39250D01*
X52677Y-39298D01*
X52696Y-39393D01*
X52696Y-39512D01*
X52677Y-39607D01*
X52658Y-39655D01*
X52639Y-39679D01*
X52601Y-39702D01*
X52562Y-39702D01*
X52524Y-39679D01*
X52505Y-39655D01*
X52486Y-39607D01*
X52467Y-39512D01*
X52467Y-39393D01*
X52486Y-39298D01*
X52505Y-39250D01*
X52524Y-39226D01*
X52562Y-39202D01*
X52848Y-39250D02*
X52867Y-39226D01*
X52905Y-39202D01*
X53001Y-39202D01*
X53039Y-39226D01*
X53058Y-39250D01*
X53077Y-39298D01*
X53077Y-39345D01*
X53058Y-39417D01*
X52829Y-39702D01*
X53077Y-39702D01*
G54D12*
X94283Y-32800D02*
X93583Y-32800D01*
X93583Y-32534D01*
X93617Y-32467D01*
X93650Y-32434D01*
X93717Y-32400D01*
X93817Y-32400D01*
X93883Y-32434D01*
X93917Y-32467D01*
X93950Y-32534D01*
X93950Y-32800D01*
X93650Y-32134D02*
X93617Y-32100D01*
X93583Y-32034D01*
X93583Y-31867D01*
X93617Y-31800D01*
X93650Y-31767D01*
X93717Y-31734D01*
X93783Y-31734D01*
X93883Y-31767D01*
X94283Y-32167D01*
X94283Y-31734D01*
X93583Y-31300D02*
X93583Y-31233D01*
X93617Y-31167D01*
X93650Y-31133D01*
X93717Y-31100D01*
X93850Y-31067D01*
X94017Y-31067D01*
X94150Y-31100D01*
X94217Y-31133D01*
X94250Y-31167D01*
X94283Y-31233D01*
X94283Y-31300D01*
X94250Y-31367D01*
X94217Y-31400D01*
X94150Y-31433D01*
X94017Y-31467D01*
X93850Y-31467D01*
X93717Y-31433D01*
X93650Y-31400D01*
X93617Y-31367D01*
X93583Y-31300D01*
X94217Y-51900D02*
X94250Y-51934D01*
X94283Y-52034D01*
X94283Y-52100D01*
X94250Y-52200D01*
X94183Y-52267D01*
X94117Y-52300D01*
X93983Y-52334D01*
X93883Y-52334D01*
X93750Y-52300D01*
X93683Y-52267D01*
X93617Y-52200D01*
X93583Y-52100D01*
X93583Y-52034D01*
X93617Y-51934D01*
X93650Y-51900D01*
X94283Y-51567D02*
X94283Y-51434D01*
X94250Y-51367D01*
X94217Y-51334D01*
X94117Y-51267D01*
X93983Y-51234D01*
X93717Y-51234D01*
X93650Y-51267D01*
X93617Y-51300D01*
X93583Y-51367D01*
X93583Y-51500D01*
X93617Y-51567D01*
X93650Y-51600D01*
X93717Y-51634D01*
X93883Y-51634D01*
X93950Y-51600D01*
X93983Y-51567D01*
X94017Y-51500D01*
X94017Y-51367D01*
X93983Y-51300D01*
X93950Y-51267D01*
X93883Y-51234D01*
X93583Y-50633D02*
X93583Y-50767D01*
X93617Y-50833D01*
X93650Y-50867D01*
X93750Y-50933D01*
X93883Y-50967D01*
X94150Y-50967D01*
X94217Y-50933D01*
X94250Y-50900D01*
X94283Y-50833D01*
X94283Y-50700D01*
X94250Y-50633D01*
X94217Y-50600D01*
X94150Y-50567D01*
X93983Y-50567D01*
X93917Y-50600D01*
X93883Y-50633D01*
X93850Y-50700D01*
X93850Y-50833D01*
X93883Y-50900D01*
X93917Y-50933D01*
X93983Y-50967D01*
X94083Y-50300D02*
X94083Y-49966D01*
X94283Y-50366D02*
X93583Y-50133D01*
X94283Y-49900D01*
X93917Y-49433D02*
X93950Y-49333D01*
X93983Y-49300D01*
X94050Y-49266D01*
X94150Y-49266D01*
X94217Y-49300D01*
X94250Y-49333D01*
X94283Y-49400D01*
X94283Y-49666D01*
X93583Y-49666D01*
X93583Y-49433D01*
X93617Y-49366D01*
X93650Y-49333D01*
X93717Y-49300D01*
X93783Y-49300D01*
X93850Y-49333D01*
X93883Y-49366D01*
X93917Y-49433D01*
X93917Y-49666D01*
X94217Y-48566D02*
X94250Y-48600D01*
X94283Y-48700D01*
X94283Y-48766D01*
X94250Y-48866D01*
X94183Y-48933D01*
X94117Y-48966D01*
X93983Y-49000D01*
X93883Y-49000D01*
X93750Y-48966D01*
X93683Y-48933D01*
X93617Y-48866D01*
X93583Y-48766D01*
X93583Y-48700D01*
X93617Y-48600D01*
X93650Y-48566D01*
M02*
