G04 (created by PCBNEW-RS274X (2011-03-30 BZR 2932)-stable) date 5/27/2014 12:52:24 AM*
G01*
G70*
G90*
%MOIN*%
G04 Gerber Fmt 3.4, Leading zero omitted, Abs format*
%FSLAX34Y34*%
G04 APERTURE LIST*
%ADD10C,0.006000*%
%ADD11R,0.075000X0.075000*%
%ADD12C,0.075000*%
%ADD13R,0.080000X0.080000*%
%ADD14C,0.080000*%
%ADD15C,0.094000*%
%ADD16R,0.094000X0.094000*%
%ADD17C,0.170000*%
G04 APERTURE END LIST*
G54D10*
G54D11*
X52500Y-55000D03*
G54D12*
X52500Y-54000D03*
G54D11*
X41500Y-55000D03*
G54D12*
X41500Y-54000D03*
X40150Y-54500D03*
X40150Y-56500D03*
X41500Y-27500D03*
X41500Y-29500D03*
G54D11*
X41500Y-57000D03*
G54D12*
X41500Y-56000D03*
G54D11*
X52500Y-57000D03*
G54D12*
X52500Y-56000D03*
G54D11*
X54750Y-58000D03*
G54D12*
X54750Y-57000D03*
G54D13*
X32000Y-47000D03*
G54D14*
X33000Y-47000D03*
X32000Y-48000D03*
X33000Y-48000D03*
X32000Y-49000D03*
X33000Y-49000D03*
X32000Y-50000D03*
X33000Y-50000D03*
X32000Y-51000D03*
X33000Y-51000D03*
G54D13*
X37250Y-49750D03*
G54D14*
X38250Y-49750D03*
X37250Y-50750D03*
X38250Y-50750D03*
X37250Y-51750D03*
X38250Y-51750D03*
X37250Y-52750D03*
X38250Y-52750D03*
X37250Y-53750D03*
X38250Y-53750D03*
X37250Y-54750D03*
X38250Y-54750D03*
X37250Y-55750D03*
X38250Y-55750D03*
X37250Y-56750D03*
X38250Y-56750D03*
X37250Y-57750D03*
X38250Y-57750D03*
X37250Y-58750D03*
X38250Y-58750D03*
G54D12*
X49500Y-40500D03*
X49500Y-38500D03*
X63500Y-27500D03*
X63500Y-25500D03*
X54000Y-54000D03*
X54000Y-56000D03*
X51500Y-48000D03*
X51500Y-50000D03*
X73500Y-46000D03*
X73500Y-44000D03*
X65500Y-31500D03*
X65500Y-33500D03*
X65500Y-27000D03*
X65500Y-29000D03*
X56500Y-56500D03*
X56500Y-58500D03*
X39500Y-47000D03*
X39500Y-49000D03*
X39500Y-45500D03*
X39500Y-43500D03*
X41500Y-25500D03*
X41500Y-23500D03*
X65500Y-40000D03*
X65500Y-42000D03*
X55000Y-40000D03*
X55000Y-42000D03*
X38500Y-39000D03*
X38500Y-41000D03*
X51500Y-44000D03*
X51500Y-46000D03*
X65500Y-23000D03*
X65500Y-25000D03*
X66000Y-56500D03*
X66000Y-58500D03*
X66000Y-52000D03*
X66000Y-54000D03*
X76000Y-56500D03*
X76000Y-58500D03*
X76000Y-52000D03*
X76000Y-54000D03*
X76000Y-47000D03*
X76000Y-49000D03*
X76000Y-42500D03*
X76000Y-44500D03*
X76000Y-36500D03*
X76000Y-38500D03*
X76000Y-32000D03*
X76000Y-34000D03*
X76000Y-27500D03*
X76000Y-29500D03*
X76000Y-23000D03*
X76000Y-25000D03*
X55500Y-33500D03*
X55500Y-35500D03*
X45000Y-33500D03*
X45000Y-35500D03*
X65500Y-35500D03*
X65500Y-37500D03*
X55500Y-52000D03*
X55500Y-54000D03*
G54D13*
X74000Y-49000D03*
G54D14*
X74000Y-48000D03*
G54D13*
X37500Y-24000D03*
G54D14*
X38500Y-24000D03*
X37500Y-25000D03*
X38500Y-25000D03*
X37500Y-26000D03*
X38500Y-26000D03*
X37500Y-27000D03*
X38500Y-27000D03*
X37500Y-28000D03*
X38500Y-28000D03*
X37500Y-29000D03*
X38500Y-29000D03*
X37500Y-30000D03*
X38500Y-30000D03*
X37500Y-31000D03*
X38500Y-31000D03*
X37500Y-32000D03*
X38500Y-32000D03*
X37500Y-33000D03*
X38500Y-33000D03*
X37500Y-34000D03*
X38500Y-34000D03*
X37500Y-35000D03*
X38500Y-35000D03*
X37500Y-36000D03*
X38500Y-36000D03*
G54D13*
X32050Y-23500D03*
G54D14*
X33050Y-23500D03*
X32050Y-28500D03*
X33050Y-24500D03*
X32050Y-29500D03*
X33050Y-25500D03*
X32050Y-30500D03*
X33050Y-26500D03*
X32050Y-31500D03*
X33050Y-27500D03*
X32050Y-32500D03*
X33050Y-28500D03*
X32050Y-33500D03*
X33050Y-29500D03*
X32050Y-34500D03*
X33050Y-30500D03*
X32050Y-35500D03*
X33050Y-31500D03*
X32050Y-36500D03*
X33050Y-32500D03*
X32050Y-37500D03*
X33050Y-33500D03*
X32050Y-38500D03*
X33050Y-34500D03*
X33050Y-35500D03*
X32050Y-39500D03*
X33050Y-36500D03*
X33050Y-38500D03*
X33050Y-39500D03*
X33050Y-40500D03*
X33050Y-41500D03*
X32050Y-40500D03*
X32050Y-41500D03*
X32050Y-24500D03*
X32050Y-25500D03*
X32050Y-26500D03*
X32050Y-27500D03*
X32050Y-42500D03*
X33050Y-42500D03*
X33050Y-37500D03*
G54D13*
X35500Y-42000D03*
G54D14*
X35500Y-41000D03*
X35500Y-40000D03*
G54D12*
X51500Y-42500D03*
X52500Y-42500D03*
G54D13*
X33500Y-56500D03*
G54D14*
X34500Y-56500D03*
G54D13*
X42000Y-33000D03*
G54D14*
X43000Y-33000D03*
X42000Y-34000D03*
X43000Y-34000D03*
X42000Y-35000D03*
X43000Y-35000D03*
X42000Y-36000D03*
X43000Y-36000D03*
G54D15*
X33500Y-55500D03*
G54D16*
X33500Y-57500D03*
G54D11*
X64000Y-31000D03*
G54D12*
X64000Y-30000D03*
G54D13*
X37000Y-44500D03*
G54D14*
X38000Y-44500D03*
X37000Y-45500D03*
X38000Y-45500D03*
X37000Y-46500D03*
X38000Y-46500D03*
X37000Y-47500D03*
X38000Y-47500D03*
G54D12*
X41500Y-58000D03*
X44500Y-58000D03*
X49500Y-58000D03*
X52500Y-58000D03*
X45500Y-58000D03*
X48500Y-58000D03*
G54D13*
X88250Y-58250D03*
G54D14*
X89250Y-58250D03*
X90250Y-58250D03*
G54D11*
X43000Y-29500D03*
G54D12*
X44000Y-29500D03*
X45000Y-29500D03*
X46000Y-29500D03*
X47000Y-29500D03*
X48000Y-29500D03*
X49000Y-29500D03*
X50000Y-29500D03*
X51000Y-29500D03*
X52000Y-29500D03*
X53000Y-29500D03*
X54000Y-29500D03*
X55000Y-29500D03*
X56000Y-29500D03*
X57000Y-29500D03*
X58000Y-29500D03*
X59000Y-29500D03*
X60000Y-29500D03*
X61000Y-29500D03*
X62000Y-29500D03*
X62000Y-23500D03*
X61000Y-23500D03*
X60000Y-23500D03*
X59000Y-23500D03*
X58000Y-23500D03*
X57000Y-23500D03*
X56000Y-23500D03*
X55000Y-23500D03*
X54000Y-23500D03*
X53000Y-23500D03*
X52000Y-23500D03*
X51000Y-23500D03*
X50000Y-23500D03*
X49000Y-23500D03*
X48000Y-23500D03*
X47000Y-23500D03*
X46000Y-23500D03*
X45000Y-23500D03*
X44000Y-23500D03*
X43000Y-23500D03*
G54D11*
X53000Y-50000D03*
G54D12*
X54000Y-50000D03*
X55000Y-50000D03*
X56000Y-50000D03*
X57000Y-50000D03*
X58000Y-50000D03*
X59000Y-50000D03*
X60000Y-50000D03*
X61000Y-50000D03*
X62000Y-50000D03*
X63000Y-50000D03*
X64000Y-50000D03*
X65000Y-50000D03*
X66000Y-50000D03*
X67000Y-50000D03*
X68000Y-50000D03*
X69000Y-50000D03*
X70000Y-50000D03*
X71000Y-50000D03*
X72000Y-50000D03*
X72000Y-44000D03*
X71000Y-44000D03*
X70000Y-44000D03*
X69000Y-44000D03*
X68000Y-44000D03*
X67000Y-44000D03*
X66000Y-44000D03*
X65000Y-44000D03*
X64000Y-44000D03*
X63000Y-44000D03*
X62000Y-44000D03*
X61000Y-44000D03*
X60000Y-44000D03*
X59000Y-44000D03*
X58000Y-44000D03*
X57000Y-44000D03*
X56000Y-44000D03*
X55000Y-44000D03*
X54000Y-44000D03*
X53000Y-44000D03*
G54D11*
X77500Y-40500D03*
G54D12*
X78500Y-40500D03*
X79500Y-40500D03*
X80500Y-40500D03*
X81500Y-40500D03*
X82500Y-40500D03*
X83500Y-40500D03*
X84500Y-40500D03*
X85500Y-40500D03*
X86500Y-40500D03*
G54D11*
X55000Y-37500D03*
G54D12*
X56000Y-37500D03*
X57000Y-37500D03*
X58000Y-37500D03*
X59000Y-37500D03*
X60000Y-37500D03*
X61000Y-37500D03*
X62000Y-37500D03*
X63000Y-37500D03*
X64000Y-37500D03*
G54D11*
X67000Y-25500D03*
G54D12*
X68000Y-25500D03*
X69000Y-25500D03*
X70000Y-25500D03*
X71000Y-25500D03*
X72000Y-25500D03*
X73000Y-25500D03*
X73000Y-22500D03*
X72000Y-22500D03*
X71000Y-22500D03*
X70000Y-22500D03*
X69000Y-22500D03*
X68000Y-22500D03*
X67000Y-22500D03*
G54D11*
X58000Y-59000D03*
G54D12*
X59000Y-59000D03*
X60000Y-59000D03*
X61000Y-59000D03*
X62000Y-59000D03*
X63000Y-59000D03*
X64000Y-59000D03*
X64000Y-56000D03*
X63000Y-56000D03*
X62000Y-56000D03*
X61000Y-56000D03*
X60000Y-56000D03*
X59000Y-56000D03*
X58000Y-56000D03*
G54D11*
X67500Y-54500D03*
G54D12*
X68500Y-54500D03*
X69500Y-54500D03*
X70500Y-54500D03*
X71500Y-54500D03*
X72500Y-54500D03*
X73500Y-54500D03*
X73500Y-51500D03*
X72500Y-51500D03*
X71500Y-51500D03*
X70500Y-51500D03*
X69500Y-51500D03*
X68500Y-51500D03*
X67500Y-51500D03*
G54D11*
X57000Y-36000D03*
G54D12*
X58000Y-36000D03*
X59000Y-36000D03*
X60000Y-36000D03*
X61000Y-36000D03*
X62000Y-36000D03*
X63000Y-36000D03*
X63000Y-33000D03*
X62000Y-33000D03*
X61000Y-33000D03*
X60000Y-33000D03*
X59000Y-33000D03*
X58000Y-33000D03*
X57000Y-33000D03*
G54D11*
X46500Y-36000D03*
G54D12*
X47500Y-36000D03*
X48500Y-36000D03*
X49500Y-36000D03*
X50500Y-36000D03*
X51500Y-36000D03*
X52500Y-36000D03*
X52500Y-33000D03*
X51500Y-33000D03*
X50500Y-33000D03*
X49500Y-33000D03*
X48500Y-33000D03*
X47500Y-33000D03*
X46500Y-33000D03*
G54D11*
X67500Y-59000D03*
G54D12*
X68500Y-59000D03*
X69500Y-59000D03*
X70500Y-59000D03*
X71500Y-59000D03*
X72500Y-59000D03*
X73500Y-59000D03*
X73500Y-56000D03*
X72500Y-56000D03*
X71500Y-56000D03*
X70500Y-56000D03*
X69500Y-56000D03*
X68500Y-56000D03*
X67500Y-56000D03*
G54D11*
X40500Y-41500D03*
G54D12*
X41500Y-41500D03*
X42500Y-41500D03*
X43500Y-41500D03*
X44500Y-41500D03*
X45500Y-41500D03*
X46500Y-41500D03*
X46500Y-38500D03*
X45500Y-38500D03*
X44500Y-38500D03*
X43500Y-38500D03*
X42500Y-38500D03*
X41500Y-38500D03*
X40500Y-38500D03*
G54D11*
X56500Y-42500D03*
G54D12*
X57500Y-42500D03*
X58500Y-42500D03*
X59500Y-42500D03*
X60500Y-42500D03*
X61500Y-42500D03*
X62500Y-42500D03*
X63500Y-42500D03*
X63500Y-39500D03*
X62500Y-39500D03*
X61500Y-39500D03*
X60500Y-39500D03*
X59500Y-39500D03*
X58500Y-39500D03*
X57500Y-39500D03*
X56500Y-39500D03*
G54D11*
X57000Y-54500D03*
G54D12*
X58000Y-54500D03*
X59000Y-54500D03*
X60000Y-54500D03*
X61000Y-54500D03*
X62000Y-54500D03*
X63000Y-54500D03*
X64000Y-54500D03*
X64000Y-51500D03*
X63000Y-51500D03*
X62000Y-51500D03*
X61000Y-51500D03*
X60000Y-51500D03*
X59000Y-51500D03*
X58000Y-51500D03*
X57000Y-51500D03*
G54D11*
X67000Y-29500D03*
G54D12*
X68000Y-29500D03*
X69000Y-29500D03*
X70000Y-29500D03*
X71000Y-29500D03*
X72000Y-29500D03*
X73000Y-29500D03*
X74000Y-29500D03*
X74000Y-26500D03*
X73000Y-26500D03*
X72000Y-26500D03*
X71000Y-26500D03*
X70000Y-26500D03*
X69000Y-26500D03*
X68000Y-26500D03*
X67000Y-26500D03*
G54D11*
X67000Y-38000D03*
G54D12*
X68000Y-38000D03*
X69000Y-38000D03*
X70000Y-38000D03*
X71000Y-38000D03*
X72000Y-38000D03*
X73000Y-38000D03*
X74000Y-38000D03*
X74000Y-35000D03*
X73000Y-35000D03*
X72000Y-35000D03*
X71000Y-35000D03*
X70000Y-35000D03*
X69000Y-35000D03*
X68000Y-35000D03*
X67000Y-35000D03*
G54D11*
X67000Y-34000D03*
G54D12*
X68000Y-34000D03*
X69000Y-34000D03*
X70000Y-34000D03*
X71000Y-34000D03*
X72000Y-34000D03*
X73000Y-34000D03*
X74000Y-34000D03*
X74000Y-31000D03*
X73000Y-31000D03*
X72000Y-31000D03*
X71000Y-31000D03*
X70000Y-31000D03*
X69000Y-31000D03*
X68000Y-31000D03*
X67000Y-31000D03*
G54D11*
X67000Y-42500D03*
G54D12*
X68000Y-42500D03*
X69000Y-42500D03*
X70000Y-42500D03*
X71000Y-42500D03*
X72000Y-42500D03*
X73000Y-42500D03*
X74000Y-42500D03*
X74000Y-39500D03*
X73000Y-39500D03*
X72000Y-39500D03*
X71000Y-39500D03*
X70000Y-39500D03*
X69000Y-39500D03*
X68000Y-39500D03*
X67000Y-39500D03*
G54D11*
X43500Y-57000D03*
G54D12*
X44500Y-57000D03*
X45500Y-57000D03*
X46500Y-57000D03*
X47500Y-57000D03*
X48500Y-57000D03*
X49500Y-57000D03*
X50500Y-57000D03*
X50500Y-54000D03*
X49500Y-54000D03*
X48500Y-54000D03*
X47500Y-54000D03*
X46500Y-54000D03*
X45500Y-54000D03*
X44500Y-54000D03*
X43500Y-54000D03*
G54D11*
X42000Y-47000D03*
G54D12*
X41000Y-48000D03*
X42000Y-48000D03*
X41000Y-49000D03*
X42000Y-49000D03*
X41000Y-50000D03*
X42000Y-51000D03*
X42000Y-50000D03*
X43000Y-51000D03*
X43000Y-50000D03*
X44000Y-51000D03*
X44000Y-50000D03*
X45000Y-51000D03*
X45000Y-50000D03*
X46000Y-51000D03*
X46000Y-50000D03*
X47000Y-51000D03*
X48000Y-50000D03*
X47000Y-50000D03*
X48000Y-49000D03*
X47000Y-49000D03*
X48000Y-48000D03*
X47000Y-48000D03*
X48000Y-47000D03*
X47000Y-47000D03*
X48000Y-46000D03*
X47000Y-46000D03*
X48000Y-45000D03*
X47000Y-44000D03*
X47000Y-45000D03*
X46000Y-44000D03*
X46000Y-45000D03*
X45000Y-44000D03*
X45000Y-45000D03*
X44000Y-44000D03*
X44000Y-45000D03*
X43000Y-44000D03*
X43000Y-45000D03*
X42000Y-44000D03*
X41000Y-45000D03*
X42000Y-45000D03*
X41000Y-46000D03*
X42000Y-46000D03*
X41000Y-47000D03*
G54D11*
X77500Y-45000D03*
G54D12*
X78500Y-45000D03*
X79500Y-45000D03*
X80500Y-45000D03*
X81500Y-45000D03*
X82500Y-45000D03*
X83500Y-45000D03*
X84500Y-45000D03*
X85500Y-45000D03*
X86500Y-45000D03*
X86500Y-42000D03*
X85500Y-42000D03*
X84500Y-42000D03*
X83500Y-42000D03*
X82500Y-42000D03*
X81500Y-42000D03*
X80500Y-42000D03*
X79500Y-42000D03*
X78500Y-42000D03*
X77500Y-42000D03*
G54D11*
X77500Y-59000D03*
G54D12*
X78500Y-59000D03*
X79500Y-59000D03*
X80500Y-59000D03*
X81500Y-59000D03*
X82500Y-59000D03*
X83500Y-59000D03*
X84500Y-59000D03*
X85500Y-59000D03*
X86500Y-59000D03*
X86500Y-56000D03*
X85500Y-56000D03*
X84500Y-56000D03*
X83500Y-56000D03*
X82500Y-56000D03*
X81500Y-56000D03*
X80500Y-56000D03*
X79500Y-56000D03*
X78500Y-56000D03*
X77500Y-56000D03*
G54D11*
X77500Y-34500D03*
G54D12*
X78500Y-34500D03*
X79500Y-34500D03*
X80500Y-34500D03*
X81500Y-34500D03*
X82500Y-34500D03*
X83500Y-34500D03*
X84500Y-34500D03*
X85500Y-34500D03*
X86500Y-34500D03*
X86500Y-31500D03*
X85500Y-31500D03*
X84500Y-31500D03*
X83500Y-31500D03*
X82500Y-31500D03*
X81500Y-31500D03*
X80500Y-31500D03*
X79500Y-31500D03*
X78500Y-31500D03*
X77500Y-31500D03*
G54D11*
X77500Y-54500D03*
G54D12*
X78500Y-54500D03*
X79500Y-54500D03*
X80500Y-54500D03*
X81500Y-54500D03*
X82500Y-54500D03*
X83500Y-54500D03*
X84500Y-54500D03*
X85500Y-54500D03*
X86500Y-54500D03*
X86500Y-51500D03*
X85500Y-51500D03*
X84500Y-51500D03*
X83500Y-51500D03*
X82500Y-51500D03*
X81500Y-51500D03*
X80500Y-51500D03*
X79500Y-51500D03*
X78500Y-51500D03*
X77500Y-51500D03*
G54D11*
X77500Y-39000D03*
G54D12*
X78500Y-39000D03*
X79500Y-39000D03*
X80500Y-39000D03*
X81500Y-39000D03*
X82500Y-39000D03*
X83500Y-39000D03*
X84500Y-39000D03*
X85500Y-39000D03*
X86500Y-39000D03*
X86500Y-36000D03*
X85500Y-36000D03*
X84500Y-36000D03*
X83500Y-36000D03*
X82500Y-36000D03*
X81500Y-36000D03*
X80500Y-36000D03*
X79500Y-36000D03*
X78500Y-36000D03*
X77500Y-36000D03*
G54D11*
X77500Y-30000D03*
G54D12*
X78500Y-30000D03*
X79500Y-30000D03*
X80500Y-30000D03*
X81500Y-30000D03*
X82500Y-30000D03*
X83500Y-30000D03*
X84500Y-30000D03*
X85500Y-30000D03*
X86500Y-30000D03*
X86500Y-27000D03*
X85500Y-27000D03*
X84500Y-27000D03*
X83500Y-27000D03*
X82500Y-27000D03*
X81500Y-27000D03*
X80500Y-27000D03*
X79500Y-27000D03*
X78500Y-27000D03*
X77500Y-27000D03*
G54D11*
X77500Y-49500D03*
G54D12*
X78500Y-49500D03*
X79500Y-49500D03*
X80500Y-49500D03*
X81500Y-49500D03*
X82500Y-49500D03*
X83500Y-49500D03*
X84500Y-49500D03*
X85500Y-49500D03*
X86500Y-49500D03*
X86500Y-46500D03*
X85500Y-46500D03*
X84500Y-46500D03*
X83500Y-46500D03*
X82500Y-46500D03*
X81500Y-46500D03*
X80500Y-46500D03*
X79500Y-46500D03*
X78500Y-46500D03*
X77500Y-46500D03*
G54D11*
X77500Y-25500D03*
G54D12*
X78500Y-25500D03*
X79500Y-25500D03*
X80500Y-25500D03*
X81500Y-25500D03*
X82500Y-25500D03*
X83500Y-25500D03*
X84500Y-25500D03*
X85500Y-25500D03*
X86500Y-25500D03*
X86500Y-22500D03*
X85500Y-22500D03*
X84500Y-22500D03*
X83500Y-22500D03*
X82500Y-22500D03*
X81500Y-22500D03*
X80500Y-22500D03*
X79500Y-22500D03*
X78500Y-22500D03*
X77500Y-22500D03*
G54D11*
X41500Y-59000D03*
G54D12*
X42500Y-59000D03*
X43500Y-59000D03*
X44500Y-59000D03*
X45500Y-59000D03*
X46500Y-59000D03*
X47500Y-59000D03*
X48500Y-59000D03*
X49500Y-59000D03*
X50500Y-59000D03*
X51500Y-59000D03*
X52500Y-59000D03*
X52500Y-53000D03*
X51500Y-53000D03*
X50500Y-53000D03*
X49500Y-53000D03*
X48500Y-53000D03*
X47500Y-53000D03*
X46500Y-53000D03*
X45500Y-53000D03*
X44500Y-53000D03*
X43500Y-53000D03*
X42500Y-53000D03*
X41500Y-53000D03*
G54D11*
X50500Y-41000D03*
G54D12*
X51500Y-41000D03*
X52500Y-41000D03*
X53500Y-41000D03*
X53500Y-38000D03*
X52500Y-38000D03*
X51500Y-38000D03*
X50500Y-38000D03*
G54D11*
X91500Y-25200D03*
G54D12*
X91500Y-26200D03*
X91500Y-27200D03*
X91500Y-28200D03*
X91500Y-29200D03*
X91500Y-30200D03*
X91500Y-31200D03*
X91500Y-32200D03*
X91500Y-33200D03*
X91500Y-34200D03*
X91500Y-35200D03*
X91500Y-36200D03*
X91500Y-37200D03*
X91500Y-38200D03*
X91500Y-39200D03*
X91500Y-40200D03*
X91500Y-41200D03*
X91500Y-42200D03*
X91500Y-43200D03*
X91500Y-44200D03*
X91500Y-45200D03*
X91500Y-46200D03*
X91500Y-47200D03*
X91500Y-48200D03*
X91500Y-49200D03*
X91500Y-50200D03*
X91500Y-51200D03*
X91500Y-52200D03*
X91500Y-53200D03*
X91500Y-54200D03*
X91500Y-55200D03*
X91500Y-56200D03*
X90500Y-25200D03*
X90500Y-26200D03*
X90500Y-27200D03*
X90500Y-28200D03*
X90500Y-29200D03*
X90500Y-30200D03*
X90500Y-31200D03*
X90500Y-32200D03*
X90500Y-33200D03*
X90500Y-34200D03*
X90500Y-35200D03*
X90500Y-36200D03*
X90500Y-37200D03*
X90500Y-38200D03*
X90500Y-39200D03*
X90500Y-40200D03*
X90500Y-41200D03*
X90500Y-42200D03*
X90500Y-43200D03*
X90500Y-44200D03*
X90500Y-45200D03*
X90500Y-46200D03*
X90500Y-47200D03*
X90500Y-48200D03*
X90500Y-49200D03*
X90500Y-50200D03*
X90500Y-51200D03*
X90500Y-52200D03*
X90500Y-53200D03*
X90500Y-54200D03*
X90500Y-55200D03*
X90500Y-56200D03*
X89500Y-25200D03*
X89500Y-26200D03*
X89500Y-27200D03*
X89500Y-28200D03*
X89500Y-29200D03*
X89500Y-30200D03*
X89500Y-31200D03*
X89500Y-32200D03*
X89500Y-33200D03*
X89500Y-34200D03*
X89500Y-35200D03*
X89500Y-36200D03*
X89500Y-37200D03*
X89500Y-38200D03*
X89500Y-39200D03*
X89500Y-40200D03*
X89500Y-41200D03*
X89500Y-42200D03*
X89500Y-43200D03*
X89500Y-44200D03*
X89500Y-45200D03*
X89500Y-46200D03*
X89500Y-47200D03*
X89500Y-48200D03*
X89500Y-49200D03*
X89500Y-50200D03*
X89500Y-51200D03*
X89500Y-52200D03*
X89500Y-53200D03*
X89500Y-54200D03*
X89500Y-55200D03*
X89500Y-56200D03*
G54D17*
X92500Y-58200D03*
X92500Y-23200D03*
M02*
