M48
;DRILL file {PCBnew (2011-03-30 BZR 2932)-stable} date 5/27/2014 12:52:21 AM
;FORMAT={-:-/ absolute / inch / decimal}
FMAT,2
INCH,TZ
T1C0.023
T2C0.032
T3C0.040
T4C0.044
T5C0.120
%
G90
G05
M72
T1
X3.496Y-2.651
X3.667Y-2.402
X3.906Y-2.721
X4.067Y-2.824
X4.190Y-2.793
X4.318Y-2.565
X4.454Y-3.509
X4.521Y-4.234
X4.562Y-3.616
X4.765Y-3.476
X4.812Y-2.284
X4.830Y-3.446
X4.841Y-4.413
X4.865Y-4.231
X4.936Y-4.184
X4.966Y-4.456
X4.967Y-3.740
X5.007Y-3.439
X5.110Y-3.709
X5.179Y-5.046
X5.223Y-3.854
X5.227Y-5.188
X5.260Y-5.225
X5.271Y-2.579
X5.304Y-2.609
X5.407Y-4.321
X5.541Y-3.409
X5.591Y-4.157
X5.683Y-4.810
X5.713Y-3.858
X5.859Y-4.041
X5.886Y-4.114
X5.956Y-5.564
X6.153Y-3.842
X6.245Y-4.889
X6.264Y-2.722
X6.304Y-2.790
X6.420Y-4.833
X6.553Y-4.834
X6.641Y-4.038
X6.641Y-5.317
X6.646Y-4.337
X6.698Y-5.410
X6.810Y-3.157
X6.839Y-4.613
X6.910Y-4.640
X7.047Y-4.473
X7.114Y-4.114
X7.154Y-5.654
X7.164Y-3.596
X7.233Y-5.665
X7.331Y-5.246
X7.360Y-2.769
X7.367Y-3.615
X7.419Y-4.529
X7.447Y-4.395
X7.474Y-3.069
X7.529Y-2.878
X7.559Y-2.350
X7.584Y-3.481
X7.623Y-3.133
X7.736Y-2.802
X7.745Y-3.692
X7.785Y-2.355
X7.806Y-3.966
X7.914Y-4.263
X7.938Y-4.421
X8.039Y-2.906
X8.094Y-2.438
X8.098Y-2.760
X8.120Y-4.356
X8.145Y-3.059
X8.223Y-3.242
X8.240Y-3.837
X8.303Y-3.869
X8.405Y-2.416
X8.461Y-5.096
X8.489Y-2.294
X8.506Y-5.729
X8.540Y-4.344
X8.560Y-2.323
X8.711Y-4.513
X8.718Y-2.385
X8.731Y-3.308
X8.768Y-2.376
X9.100Y-4.570
X9.178Y-4.369
X9.208Y-4.292
T2
X3.205Y-2.350
X3.725Y-4.975
X3.750Y-2.400
X3.850Y-3.900
X3.850Y-4.100
X3.950Y-4.350
X3.950Y-4.550
X3.950Y-4.700
X3.950Y-4.900
X4.015Y-5.450
X4.015Y-5.650
X4.050Y-3.850
X4.050Y-4.150
X4.100Y-4.500
X4.100Y-4.600
X4.100Y-4.700
X4.100Y-4.800
X4.100Y-4.900
X4.100Y-5.000
X4.150Y-2.350
X4.150Y-2.550
X4.150Y-2.750
X4.150Y-2.950
X4.150Y-3.850
X4.150Y-4.150
X4.150Y-5.300
X4.150Y-5.400
X4.150Y-5.500
X4.150Y-5.600
X4.150Y-5.700
X4.150Y-5.800
X4.150Y-5.900
X4.200Y-4.400
X4.200Y-4.500
X4.200Y-4.600
X4.200Y-4.700
X4.200Y-4.800
X4.200Y-4.900
X4.200Y-5.000
X4.200Y-5.100
X4.250Y-3.850
X4.250Y-4.150
X4.250Y-5.300
X4.250Y-5.900
X4.300Y-2.350
X4.300Y-2.950
X4.300Y-4.400
X4.300Y-4.500
X4.300Y-5.000
X4.300Y-5.100
X4.350Y-3.850
X4.350Y-4.150
X4.350Y-5.300
X4.350Y-5.400
X4.350Y-5.700
X4.350Y-5.900
X4.400Y-2.350
X4.400Y-2.950
X4.400Y-4.400
X4.400Y-4.500
X4.400Y-5.000
X4.400Y-5.100
X4.450Y-3.850
X4.450Y-4.150
X4.450Y-5.300
X4.450Y-5.400
X4.450Y-5.700
X4.450Y-5.800
X4.450Y-5.900
X4.500Y-2.350
X4.500Y-2.950
X4.500Y-3.350
X4.500Y-3.550
X4.500Y-4.400
X4.500Y-4.500
X4.500Y-5.000
X4.500Y-5.100
X4.550Y-3.850
X4.550Y-4.150
X4.550Y-5.300
X4.550Y-5.400
X4.550Y-5.700
X4.550Y-5.800
X4.550Y-5.900
X4.600Y-2.350
X4.600Y-2.950
X4.600Y-4.400
X4.600Y-4.500
X4.600Y-5.000
X4.600Y-5.100
X4.650Y-3.300
X4.650Y-3.600
X4.650Y-3.850
X4.650Y-4.150
X4.650Y-5.300
X4.650Y-5.400
X4.650Y-5.700
X4.650Y-5.900
X4.700Y-2.350
X4.700Y-2.950
X4.700Y-4.400
X4.700Y-4.500
X4.700Y-4.600
X4.700Y-4.700
X4.700Y-4.800
X4.700Y-4.900
X4.700Y-5.000
X4.700Y-5.100
X4.750Y-3.300
X4.750Y-3.600
X4.750Y-5.300
X4.750Y-5.400
X4.750Y-5.700
X4.750Y-5.900
X4.800Y-2.350
X4.800Y-2.950
X4.800Y-4.500
X4.800Y-4.600
X4.800Y-4.700
X4.800Y-4.800
X4.800Y-4.900
X4.800Y-5.000
X4.850Y-3.300
X4.850Y-3.600
X4.850Y-5.300
X4.850Y-5.400
X4.850Y-5.700
X4.850Y-5.800
X4.850Y-5.900
X4.900Y-2.350
X4.900Y-2.950
X4.950Y-3.300
X4.950Y-3.600
X4.950Y-3.850
X4.950Y-4.050
X4.950Y-5.300
X4.950Y-5.400
X4.950Y-5.700
X4.950Y-5.800
X4.950Y-5.900
X5.000Y-2.350
X5.000Y-2.950
X5.050Y-3.300
X5.050Y-3.600
X5.050Y-3.800
X5.050Y-4.100
X5.050Y-5.300
X5.050Y-5.400
X5.050Y-5.700
X5.050Y-5.900
X5.100Y-2.350
X5.100Y-2.950
X5.150Y-3.300
X5.150Y-3.600
X5.150Y-3.800
X5.150Y-4.100
X5.150Y-4.250
X5.150Y-4.400
X5.150Y-4.600
X5.150Y-4.800
X5.150Y-5.000
X5.150Y-5.300
X5.150Y-5.900
X5.200Y-2.350
X5.200Y-2.950
X5.250Y-3.300
X5.250Y-3.600
X5.250Y-3.800
X5.250Y-4.100
X5.250Y-4.250
X5.250Y-5.300
X5.250Y-5.400
X5.250Y-5.500
X5.250Y-5.600
X5.250Y-5.700
X5.250Y-5.800
X5.250Y-5.900
X5.300Y-2.350
X5.300Y-2.950
X5.300Y-4.400
X5.300Y-5.000
X5.350Y-3.800
X5.350Y-4.100
X5.400Y-2.350
X5.400Y-2.950
X5.400Y-4.400
X5.400Y-5.000
X5.400Y-5.400
X5.400Y-5.600
X5.475Y-5.700
X5.475Y-5.800
X5.500Y-2.350
X5.500Y-2.950
X5.500Y-3.750
X5.500Y-4.000
X5.500Y-4.200
X5.500Y-4.400
X5.500Y-5.000
X5.550Y-3.350
X5.550Y-3.550
X5.550Y-5.200
X5.550Y-5.400
X5.600Y-2.350
X5.600Y-2.950
X5.600Y-3.750
X5.600Y-4.400
X5.600Y-5.000
X5.650Y-3.950
X5.650Y-4.250
X5.650Y-5.650
X5.650Y-5.850
X5.700Y-2.350
X5.700Y-2.950
X5.700Y-3.300
X5.700Y-3.600
X5.700Y-3.750
X5.700Y-4.400
X5.700Y-5.000
X5.700Y-5.150
X5.700Y-5.450
X5.750Y-3.950
X5.750Y-4.250
X5.800Y-2.350
X5.800Y-2.950
X5.800Y-3.300
X5.800Y-3.600
X5.800Y-3.750
X5.800Y-4.400
X5.800Y-5.000
X5.800Y-5.150
X5.800Y-5.450
X5.800Y-5.600
X5.800Y-5.900
X5.850Y-3.950
X5.850Y-4.250
X5.900Y-2.350
X5.900Y-2.950
X5.900Y-3.300
X5.900Y-3.600
X5.900Y-3.750
X5.900Y-4.400
X5.900Y-5.000
X5.900Y-5.150
X5.900Y-5.450
X5.900Y-5.600
X5.900Y-5.900
X5.950Y-3.950
X5.950Y-4.250
X6.000Y-2.350
X6.000Y-2.950
X6.000Y-3.300
X6.000Y-3.600
X6.000Y-3.750
X6.000Y-4.400
X6.000Y-5.000
X6.000Y-5.150
X6.000Y-5.450
X6.000Y-5.600
X6.000Y-5.900
X6.050Y-3.950
X6.050Y-4.250
X6.100Y-2.350
X6.100Y-2.950
X6.100Y-3.300
X6.100Y-3.600
X6.100Y-3.750
X6.100Y-4.400
X6.100Y-5.000
X6.100Y-5.150
X6.100Y-5.450
X6.100Y-5.600
X6.100Y-5.900
X6.150Y-3.950
X6.150Y-4.250
X6.200Y-2.350
X6.200Y-2.950
X6.200Y-3.300
X6.200Y-3.600
X6.200Y-3.750
X6.200Y-4.400
X6.200Y-5.000
X6.200Y-5.150
X6.200Y-5.450
X6.200Y-5.600
X6.200Y-5.900
X6.250Y-3.950
X6.250Y-4.250
X6.300Y-3.300
X6.300Y-3.600
X6.300Y-3.750
X6.300Y-4.400
X6.300Y-5.000
X6.300Y-5.150
X6.300Y-5.450
X6.300Y-5.600
X6.300Y-5.900
X6.350Y-2.550
X6.350Y-2.750
X6.350Y-3.950
X6.350Y-4.250
X6.400Y-3.000
X6.400Y-3.100
X6.400Y-3.750
X6.400Y-4.400
X6.400Y-5.000
X6.400Y-5.150
X6.400Y-5.450
X6.400Y-5.600
X6.400Y-5.900
X6.500Y-4.400
X6.500Y-5.000
X6.550Y-2.300
X6.550Y-2.500
X6.550Y-2.700
X6.550Y-2.900
X6.550Y-3.150
X6.550Y-3.350
X6.550Y-3.550
X6.550Y-3.750
X6.550Y-4.000
X6.550Y-4.200
X6.600Y-4.400
X6.600Y-5.000
X6.600Y-5.200
X6.600Y-5.400
X6.600Y-5.650
X6.600Y-5.850
X6.700Y-2.250
X6.700Y-2.550
X6.700Y-2.650
X6.700Y-2.950
X6.700Y-3.100
X6.700Y-3.400
X6.700Y-3.500
X6.700Y-3.800
X6.700Y-3.950
X6.700Y-4.250
X6.700Y-4.400
X6.700Y-5.000
X6.750Y-5.150
X6.750Y-5.450
X6.750Y-5.600
X6.750Y-5.900
X6.800Y-2.250
X6.800Y-2.550
X6.800Y-2.650
X6.800Y-2.950
X6.800Y-3.100
X6.800Y-3.400
X6.800Y-3.500
X6.800Y-3.800
X6.800Y-3.950
X6.800Y-4.250
X6.800Y-4.400
X6.800Y-5.000
X6.850Y-5.150
X6.850Y-5.450
X6.850Y-5.600
X6.850Y-5.900
X6.900Y-2.250
X6.900Y-2.550
X6.900Y-2.650
X6.900Y-2.950
X6.900Y-3.100
X6.900Y-3.400
X6.900Y-3.500
X6.900Y-3.800
X6.900Y-3.950
X6.900Y-4.250
X6.900Y-4.400
X6.900Y-5.000
X6.950Y-5.150
X6.950Y-5.450
X6.950Y-5.600
X6.950Y-5.900
X7.000Y-2.250
X7.000Y-2.550
X7.000Y-2.650
X7.000Y-2.950
X7.000Y-3.100
X7.000Y-3.400
X7.000Y-3.500
X7.000Y-3.800
X7.000Y-3.950
X7.000Y-4.250
X7.000Y-4.400
X7.000Y-5.000
X7.050Y-5.150
X7.050Y-5.450
X7.050Y-5.600
X7.050Y-5.900
X7.100Y-2.250
X7.100Y-2.550
X7.100Y-2.650
X7.100Y-2.950
X7.100Y-3.100
X7.100Y-3.400
X7.100Y-3.500
X7.100Y-3.800
X7.100Y-3.950
X7.100Y-4.250
X7.100Y-4.400
X7.100Y-5.000
X7.150Y-5.150
X7.150Y-5.450
X7.150Y-5.600
X7.150Y-5.900
X7.200Y-2.250
X7.200Y-2.550
X7.200Y-2.650
X7.200Y-2.950
X7.200Y-3.100
X7.200Y-3.400
X7.200Y-3.500
X7.200Y-3.800
X7.200Y-3.950
X7.200Y-4.250
X7.200Y-4.400
X7.200Y-5.000
X7.250Y-5.150
X7.250Y-5.450
X7.250Y-5.600
X7.250Y-5.900
X7.300Y-2.250
X7.300Y-2.550
X7.300Y-2.650
X7.300Y-2.950
X7.300Y-3.100
X7.300Y-3.400
X7.300Y-3.500
X7.300Y-3.800
X7.300Y-3.950
X7.300Y-4.250
X7.350Y-4.400
X7.350Y-4.600
X7.350Y-5.150
X7.350Y-5.450
X7.350Y-5.600
X7.350Y-5.900
X7.400Y-2.650
X7.400Y-2.950
X7.400Y-3.100
X7.400Y-3.400
X7.400Y-3.500
X7.400Y-3.800
X7.400Y-3.950
X7.400Y-4.250
X7.600Y-2.300
X7.600Y-2.500
X7.600Y-2.750
X7.600Y-2.950
X7.600Y-3.200
X7.600Y-3.400
X7.600Y-3.650
X7.600Y-3.850
X7.600Y-4.250
X7.600Y-4.450
X7.600Y-4.700
X7.600Y-4.900
X7.600Y-5.200
X7.600Y-5.400
X7.600Y-5.650
X7.600Y-5.850
X7.750Y-2.250
X7.750Y-2.550
X7.750Y-2.700
X7.750Y-3.000
X7.750Y-3.150
X7.750Y-3.450
X7.750Y-3.600
X7.750Y-3.900
X7.750Y-4.050
X7.750Y-4.200
X7.750Y-4.500
X7.750Y-4.650
X7.750Y-4.950
X7.750Y-5.150
X7.750Y-5.450
X7.750Y-5.600
X7.750Y-5.900
X7.850Y-2.250
X7.850Y-2.550
X7.850Y-2.700
X7.850Y-3.000
X7.850Y-3.150
X7.850Y-3.450
X7.850Y-3.600
X7.850Y-3.900
X7.850Y-4.050
X7.850Y-4.200
X7.850Y-4.500
X7.850Y-4.650
X7.850Y-4.950
X7.850Y-5.150
X7.850Y-5.450
X7.850Y-5.600
X7.850Y-5.900
X7.950Y-2.250
X7.950Y-2.550
X7.950Y-2.700
X7.950Y-3.000
X7.950Y-3.150
X7.950Y-3.450
X7.950Y-3.600
X7.950Y-3.900
X7.950Y-4.050
X7.950Y-4.200
X7.950Y-4.500
X7.950Y-4.650
X7.950Y-4.950
X7.950Y-5.150
X7.950Y-5.450
X7.950Y-5.600
X7.950Y-5.900
X8.050Y-2.250
X8.050Y-2.550
X8.050Y-2.700
X8.050Y-3.000
X8.050Y-3.150
X8.050Y-3.450
X8.050Y-3.600
X8.050Y-3.900
X8.050Y-4.050
X8.050Y-4.200
X8.050Y-4.500
X8.050Y-4.650
X8.050Y-4.950
X8.050Y-5.150
X8.050Y-5.450
X8.050Y-5.600
X8.050Y-5.900
X8.150Y-2.250
X8.150Y-2.550
X8.150Y-2.700
X8.150Y-3.000
X8.150Y-3.150
X8.150Y-3.450
X8.150Y-3.600
X8.150Y-3.900
X8.150Y-4.050
X8.150Y-4.200
X8.150Y-4.500
X8.150Y-4.650
X8.150Y-4.950
X8.150Y-5.150
X8.150Y-5.450
X8.150Y-5.600
X8.150Y-5.900
X8.250Y-2.250
X8.250Y-2.550
X8.250Y-2.700
X8.250Y-3.000
X8.250Y-3.150
X8.250Y-3.450
X8.250Y-3.600
X8.250Y-3.900
X8.250Y-4.050
X8.250Y-4.200
X8.250Y-4.500
X8.250Y-4.650
X8.250Y-4.950
X8.250Y-5.150
X8.250Y-5.450
X8.250Y-5.600
X8.250Y-5.900
X8.350Y-2.250
X8.350Y-2.550
X8.350Y-2.700
X8.350Y-3.000
X8.350Y-3.150
X8.350Y-3.450
X8.350Y-3.600
X8.350Y-3.900
X8.350Y-4.050
X8.350Y-4.200
X8.350Y-4.500
X8.350Y-4.650
X8.350Y-4.950
X8.350Y-5.150
X8.350Y-5.450
X8.350Y-5.600
X8.350Y-5.900
X8.450Y-2.250
X8.450Y-2.550
X8.450Y-2.700
X8.450Y-3.000
X8.450Y-3.150
X8.450Y-3.450
X8.450Y-3.600
X8.450Y-3.900
X8.450Y-4.050
X8.450Y-4.200
X8.450Y-4.500
X8.450Y-4.650
X8.450Y-4.950
X8.450Y-5.150
X8.450Y-5.450
X8.450Y-5.600
X8.450Y-5.900
X8.550Y-2.250
X8.550Y-2.550
X8.550Y-2.700
X8.550Y-3.000
X8.550Y-3.150
X8.550Y-3.450
X8.550Y-3.600
X8.550Y-3.900
X8.550Y-4.050
X8.550Y-4.200
X8.550Y-4.500
X8.550Y-4.650
X8.550Y-4.950
X8.550Y-5.150
X8.550Y-5.450
X8.550Y-5.600
X8.550Y-5.900
X8.650Y-2.250
X8.650Y-2.550
X8.650Y-2.700
X8.650Y-3.000
X8.650Y-3.150
X8.650Y-3.450
X8.650Y-3.600
X8.650Y-3.900
X8.650Y-4.050
X8.650Y-4.200
X8.650Y-4.500
X8.650Y-4.650
X8.650Y-4.950
X8.650Y-5.150
X8.650Y-5.450
X8.650Y-5.600
X8.650Y-5.900
X8.950Y-2.520
X8.950Y-2.620
X8.950Y-2.720
X8.950Y-2.820
X8.950Y-2.920
X8.950Y-3.020
X8.950Y-3.120
X8.950Y-3.220
X8.950Y-3.320
X8.950Y-3.420
X8.950Y-3.520
X8.950Y-3.620
X8.950Y-3.720
X8.950Y-3.820
X8.950Y-3.920
X8.950Y-4.020
X8.950Y-4.120
X8.950Y-4.220
X8.950Y-4.320
X8.950Y-4.420
X8.950Y-4.520
X8.950Y-4.620
X8.950Y-4.720
X8.950Y-4.820
X8.950Y-4.920
X8.950Y-5.020
X8.950Y-5.120
X8.950Y-5.220
X8.950Y-5.320
X8.950Y-5.420
X8.950Y-5.520
X8.950Y-5.620
X9.050Y-2.520
X9.050Y-2.620
X9.050Y-2.720
X9.050Y-2.820
X9.050Y-2.920
X9.050Y-3.020
X9.050Y-3.120
X9.050Y-3.220
X9.050Y-3.320
X9.050Y-3.420
X9.050Y-3.520
X9.050Y-3.620
X9.050Y-3.720
X9.050Y-3.820
X9.050Y-3.920
X9.050Y-4.020
X9.050Y-4.120
X9.050Y-4.220
X9.050Y-4.320
X9.050Y-4.420
X9.050Y-4.520
X9.050Y-4.620
X9.050Y-4.720
X9.050Y-4.820
X9.050Y-4.920
X9.050Y-5.020
X9.050Y-5.120
X9.050Y-5.220
X9.050Y-5.320
X9.050Y-5.420
X9.050Y-5.520
X9.050Y-5.620
X9.150Y-2.520
X9.150Y-2.620
X9.150Y-2.720
X9.150Y-2.820
X9.150Y-2.920
X9.150Y-3.020
X9.150Y-3.120
X9.150Y-3.220
X9.150Y-3.320
X9.150Y-3.420
X9.150Y-3.520
X9.150Y-3.620
X9.150Y-3.720
X9.150Y-3.820
X9.150Y-3.920
X9.150Y-4.020
X9.150Y-4.120
X9.150Y-4.220
X9.150Y-4.320
X9.150Y-4.420
X9.150Y-4.520
X9.150Y-4.620
X9.150Y-4.720
X9.150Y-4.820
X9.150Y-4.920
X9.150Y-5.020
X9.150Y-5.120
X9.150Y-5.220
X9.150Y-5.320
X9.150Y-5.420
X9.150Y-5.520
X9.150Y-5.620
T3
X3.200Y-4.700
X3.200Y-4.800
X3.200Y-4.900
X3.200Y-5.000
X3.200Y-5.100
X3.205Y-2.450
X3.205Y-2.550
X3.205Y-2.650
X3.205Y-2.750
X3.205Y-2.850
X3.205Y-2.950
X3.205Y-3.050
X3.205Y-3.150
X3.205Y-3.250
X3.205Y-3.350
X3.205Y-3.450
X3.205Y-3.550
X3.205Y-3.650
X3.205Y-3.750
X3.205Y-3.850
X3.205Y-3.950
X3.205Y-4.050
X3.205Y-4.150
X3.205Y-4.250
X3.300Y-4.700
X3.300Y-4.800
X3.300Y-4.900
X3.300Y-5.000
X3.300Y-5.100
X3.305Y-2.350
X3.305Y-2.450
X3.305Y-2.550
X3.305Y-2.650
X3.305Y-2.750
X3.305Y-2.850
X3.305Y-2.950
X3.305Y-3.050
X3.305Y-3.150
X3.305Y-3.250
X3.305Y-3.350
X3.305Y-3.450
X3.305Y-3.550
X3.305Y-3.650
X3.305Y-3.750
X3.305Y-3.850
X3.305Y-3.950
X3.305Y-4.050
X3.305Y-4.150
X3.305Y-4.250
X3.350Y-5.650
X3.450Y-5.650
X3.550Y-4.000
X3.550Y-4.100
X3.550Y-4.200
X3.700Y-4.450
X3.700Y-4.550
X3.700Y-4.650
X3.700Y-4.750
X3.725Y-5.075
X3.725Y-5.175
X3.725Y-5.275
X3.725Y-5.375
X3.725Y-5.475
X3.725Y-5.575
X3.725Y-5.675
X3.725Y-5.775
X3.725Y-5.875
X3.750Y-2.500
X3.750Y-2.600
X3.750Y-2.700
X3.750Y-2.800
X3.750Y-2.900
X3.750Y-3.000
X3.750Y-3.100
X3.750Y-3.200
X3.750Y-3.300
X3.750Y-3.400
X3.750Y-3.500
X3.750Y-3.600
X3.800Y-4.450
X3.800Y-4.550
X3.800Y-4.650
X3.800Y-4.750
X3.825Y-4.975
X3.825Y-5.075
X3.825Y-5.175
X3.825Y-5.275
X3.825Y-5.375
X3.825Y-5.475
X3.825Y-5.575
X3.825Y-5.675
X3.825Y-5.775
X3.825Y-5.875
X3.850Y-2.400
X3.850Y-2.500
X3.850Y-2.600
X3.850Y-2.700
X3.850Y-2.800
X3.850Y-2.900
X3.850Y-3.000
X3.850Y-3.100
X3.850Y-3.200
X3.850Y-3.300
X3.850Y-3.400
X3.850Y-3.500
X3.850Y-3.600
X4.200Y-3.300
X4.200Y-3.400
X4.200Y-3.500
X4.200Y-3.600
X4.300Y-3.300
X4.300Y-3.400
X4.300Y-3.500
X4.300Y-3.600
X7.400Y-4.800
X7.400Y-4.900
X8.825Y-5.825
X8.925Y-5.825
X9.025Y-5.825
T4
X3.350Y-5.550
X3.350Y-5.750
T5
X9.250Y-2.320
X9.250Y-5.820
T0
M30
